<svg width="296" height="71" viewBox="0 0 296 71" fill="none" xmlns="http://www.w3.org/2000/svg">
<path d="M45.7193 0.484219C47.1178 -0.857697 48.886 0.814706 48.9284 2.75242L49.3812 23.4512C49.6943 37.7661 38.3437 49.6245 24.0288 49.9376L4.32546 50.3686C0.476139 50.4528 -1.46949 45.7638 1.30866 43.0981L45.7193 0.484219Z" fill="#B8BDFE"/>
<path d="M23.5555 9.64234C22.9325 7.80704 25.1965 6.91382 26.9697 7.69633L45.911 16.0552C59.0105 21.836 64.9434 37.1415 59.1626 50.241L51.2058 68.2714C49.6513 71.7939 44.5796 71.5698 43.3419 67.9239L23.5555 9.64234Z" fill="#6644EC"/>
<path d="M104.108 51.9821C100.521 51.9821 97.3573 51.2495 94.6149 49.7843C91.9148 48.319 89.8054 46.3095 88.2865 43.7558C86.8099 41.2021 86.0716 38.2716 86.0716 34.9644C86.0716 31.6571 86.7888 28.7266 88.2233 26.1729C89.6999 23.6192 91.7039 21.6306 94.2352 20.2073C96.8088 18.742 99.6988 18.0094 102.905 18.0094C106.154 18.0094 109.023 18.7211 111.512 20.1445C114.001 21.5679 115.942 23.5773 117.334 26.1729C118.768 28.7266 119.486 31.7199 119.486 35.1528C119.486 35.4039 119.465 35.697 119.422 36.0319C119.422 36.3668 119.401 36.6808 119.359 36.9738H90.8179V32.6409H116.195L113.727 34.148C113.769 32.0129 113.326 30.1081 112.398 28.4336C111.47 26.759 110.183 25.4612 108.537 24.5402C106.934 23.5773 105.057 23.0959 102.905 23.0959C100.796 23.0959 98.9183 23.5773 97.2729 24.5402C95.6275 25.4612 94.3407 26.7799 93.4126 28.4964C92.4844 30.1709 92.0203 32.0967 92.0203 34.2736V35.2784C92.0203 37.4972 92.5266 39.4857 93.5391 41.244C94.5939 42.9604 96.0494 44.3001 97.9057 45.2629C99.7621 46.2258 101.893 46.7073 104.297 46.7073C106.28 46.7073 108.073 46.3723 109.677 45.7025C111.322 45.0327 112.756 44.0279 113.98 42.6883L117.334 46.5817C115.815 48.34 113.917 49.6796 111.638 50.6006C109.402 51.5216 106.892 51.9821 104.108 51.9821Z" fill="#333538"/>
<path d="M145.198 18.0094C147.941 18.0094 150.345 18.5327 152.413 19.5793C154.522 20.6259 156.167 22.2167 157.349 24.3518C158.53 26.4869 159.121 29.1871 159.121 32.4525V51.6054H153.045V33.1433C153.045 29.9197 152.244 27.4916 150.641 25.8589C149.08 24.2262 146.865 23.4099 143.996 23.4099C141.844 23.4099 139.967 23.8285 138.364 24.6658C136.76 25.5031 135.516 26.7381 134.63 28.3708C133.786 30.0035 133.364 32.0339 133.364 34.462V51.6054H127.289V18.3234H133.111V27.3032L132.162 24.917C133.259 22.74 134.946 21.0445 137.224 19.8305C139.503 18.6164 142.161 18.0094 145.198 18.0094Z" fill="#333538"/>
<path d="M169.731 51.6054V18.3234H175.553V27.366L174.984 25.1054C175.912 22.8028 177.473 21.0445 179.667 19.8305C181.861 18.6164 184.561 18.0094 187.767 18.0094V23.8494C187.514 23.8076 187.261 23.7866 187.008 23.7866C186.797 23.7866 186.586 23.7866 186.375 23.7866C183.126 23.7866 180.553 24.7495 178.654 26.6753C176.756 28.601 175.806 31.385 175.806 35.0272V51.6054H169.731Z" fill="#333538"/>
<path d="M208.679 51.9821C205.303 51.9821 202.308 51.2495 199.692 49.7843C197.077 48.319 195.009 46.3095 193.49 43.7558C191.972 41.1603 191.212 38.2298 191.212 34.9644C191.212 31.6571 191.972 28.7266 193.49 26.1729C195.009 23.6192 197.077 21.6306 199.692 20.2073C202.308 18.742 205.303 18.0094 208.679 18.0094C212.012 18.0094 214.986 18.742 217.602 20.2073C220.26 21.6306 222.327 23.6192 223.804 26.1729C225.322 28.6848 226.082 31.6152 226.082 34.9644C226.082 38.2716 225.322 41.2021 223.804 43.7558C222.327 46.3095 220.26 48.319 217.602 49.7843C214.986 51.2495 212.012 51.9821 208.679 51.9821ZM208.679 46.7073C210.83 46.7073 212.75 46.2258 214.437 45.2629C216.167 44.3001 217.517 42.9395 218.488 41.1812C219.458 39.381 219.943 37.3088 219.943 34.9644C219.943 32.5781 219.458 30.5268 218.488 28.8103C217.517 27.0521 216.167 25.6915 214.437 24.7286C212.75 23.7657 210.83 23.2843 208.679 23.2843C206.527 23.2843 204.607 23.7657 202.92 24.7286C201.232 25.6915 199.882 27.0521 198.87 28.8103C197.857 30.5268 197.351 32.5781 197.351 34.9644C197.351 37.3088 197.857 39.381 198.87 41.1812C199.882 42.9395 201.232 44.3001 202.92 45.2629C204.607 46.2258 206.527 46.7073 208.679 46.7073Z" fill="#333538"/>
<path d="M233.851 51.6054V5.01059H239.926V51.6054H233.851Z" fill="#333538"/>
<path d="M250.893 51.6054V5.01059H256.968V51.6054H250.893Z" fill="#333538"/>
<path d="M288.756 51.6054V44.5722L288.439 43.2535V31.2594C288.439 28.7057 287.68 26.7381 286.161 25.3566C284.684 23.9332 282.448 23.2215 279.453 23.2215C277.47 23.2215 275.529 23.5564 273.631 24.2262C271.732 24.8542 270.129 25.7124 268.821 26.8009L266.29 22.2795C268.02 20.898 270.087 19.8514 272.492 19.1397C274.939 18.3862 277.491 18.0094 280.149 18.0094C284.748 18.0094 288.292 19.1188 290.781 21.3376C293.27 23.5564 294.515 26.9474 294.515 31.5106V51.6054H288.756ZM277.744 51.9821C275.255 51.9821 273.061 51.5635 271.163 50.7262C269.306 49.8889 267.872 48.7377 266.859 47.2724C265.847 45.7653 265.341 44.0698 265.341 42.1859C265.341 40.3858 265.763 38.7531 266.606 37.2878C267.492 35.8226 268.906 34.6504 270.846 33.7712C272.829 32.8921 275.487 32.4525 278.82 32.4525H289.452V36.7855H279.073C276.036 36.7855 273.989 37.2878 272.935 38.2926C271.88 39.2973 271.353 40.5114 271.353 41.9347C271.353 43.5674 272.007 44.8862 273.314 45.8909C274.622 46.8538 276.436 47.3352 278.757 47.3352C281.035 47.3352 283.018 46.8328 284.706 45.8281C286.435 44.8234 287.68 43.3581 288.439 41.4324L289.642 45.5769C288.84 47.5445 287.427 49.1144 285.402 50.2866C283.377 51.417 280.824 51.9821 277.744 51.9821Z" fill="#333538"/>
<path fill-rule="evenodd" clip-rule="evenodd" d="M94.3388 50.2932L94.3355 50.2914C91.5462 48.7777 89.3587 46.6957 87.7849 44.0496L87.7813 44.0435C86.248 41.3918 85.4891 38.3599 85.4891 34.9644C85.4891 31.5717 86.2257 28.542 87.7145 25.8915L87.718 25.8852C89.2452 23.244 91.3233 21.1806 93.9467 19.7052C96.6152 18.1862 99.6061 17.4314 102.905 17.4314C106.242 17.4314 109.214 18.1634 111.803 19.6437C114.388 21.1221 116.404 23.2107 117.845 25.8964C119.334 28.549 120.068 31.6408 120.068 35.1528C120.068 35.4249 120.046 35.7309 120.005 36.0681C120.003 36.4136 119.981 36.7431 119.936 37.0556L119.864 37.5518H92.8028C93.0276 38.7756 93.4412 39.9071 94.0407 40.9501C95.0381 42.5704 96.4122 43.8361 98.1756 44.7507C99.937 45.6644 101.973 46.1293 104.297 46.1293C106.213 46.1293 107.928 45.8059 109.451 45.1698L109.455 45.1678C111.019 44.5315 112.382 43.5776 113.548 42.3002L113.993 41.8136L118.101 46.5822L117.776 46.9578C116.194 48.7893 114.218 50.1814 111.86 51.1352C109.544 52.0889 106.957 52.5601 104.108 52.5601C100.44 52.5601 97.1781 51.8102 94.3388 50.2932ZM111.638 50.6006C113.917 49.6796 115.815 48.34 117.334 46.5817L113.98 42.6883C113.848 42.8327 113.714 42.9733 113.577 43.1099C112.445 44.2407 111.145 45.1049 109.677 45.7025C108.073 46.3723 106.28 46.7073 104.297 46.7073C101.893 46.7073 99.7621 46.2258 97.9057 45.2629C96.0494 44.3001 94.5939 42.9604 93.5391 41.244C92.8856 40.1092 92.443 38.8785 92.2113 37.5518C92.178 37.3611 92.149 37.1685 92.1244 36.9738H119.359C119.401 36.6808 119.422 36.3668 119.422 36.0319C119.465 35.697 119.486 35.4039 119.486 35.1528C119.486 31.7199 118.768 28.7266 117.334 26.1729C115.942 23.5773 114.001 21.5679 111.512 20.1445C109.023 18.7211 106.154 18.0094 102.905 18.0094C99.6988 18.0094 96.8088 18.742 94.2352 20.2073C91.7039 21.6306 89.6999 23.6192 88.2233 26.1729C86.7888 28.7266 86.0716 31.6571 86.0716 34.9644C86.0716 38.2716 86.8099 41.2021 88.2865 43.7558C89.8054 46.3095 91.9148 48.319 94.6149 49.7843C97.3573 51.2495 100.521 51.9821 104.108 51.9821C106.892 51.9821 109.402 51.5216 111.638 50.6006ZM92.1937 32.0629C92.1625 32.2533 92.1355 32.446 92.1127 32.6409H113.672C113.654 32.4461 113.631 32.2535 113.603 32.0629C113.414 30.7522 113.012 29.5424 112.398 28.4336C111.47 26.759 110.183 25.4612 108.537 24.5402C106.934 23.5773 105.057 23.0959 102.905 23.0959C100.796 23.0959 98.9183 23.5773 97.2729 24.5402C95.6275 25.4612 94.3407 26.7799 93.4126 28.4964C92.8119 29.58 92.4056 30.7689 92.1937 32.0629ZM113.015 32.0629C112.83 30.8479 112.453 29.7324 111.887 28.7121C111.01 27.1298 109.8 25.9107 108.251 25.0436L108.243 25.0392L108.236 25.0347C106.736 24.1341 104.967 23.6739 102.905 23.6739C100.889 23.6739 99.1154 24.133 97.5688 25.038L97.5639 25.0409L97.5591 25.0436C96.0137 25.9086 94.8039 27.1457 93.9258 28.7696L93.9229 28.7749C93.3712 29.7703 92.9902 30.8649 92.7841 32.0629H113.015ZM133.693 22.6142C134.647 21.5045 135.824 20.5766 137.224 19.8305C139.503 18.6164 142.161 18.0094 145.198 18.0094C147.941 18.0094 150.345 18.5327 152.413 19.5793C154.522 20.6259 156.167 22.2167 157.349 24.3518C158.53 26.4869 159.121 29.1871 159.121 32.4525V51.6054H153.045V33.1433C153.045 29.9197 152.244 27.4916 150.641 25.8589C149.08 24.2262 146.865 23.4099 143.996 23.4099C141.844 23.4099 139.967 23.8285 138.364 24.6658C136.76 25.5031 135.516 26.7381 134.63 28.3708C133.786 30.0035 133.364 32.0339 133.364 34.462V51.6054H127.289V18.3234H133.111V23.3526C133.295 23.0981 133.489 22.852 133.693 22.6142ZM133.693 21.7519C134.609 20.7996 135.696 19.9892 136.949 19.3213C139.325 18.0548 142.081 17.4314 145.198 17.4314C148.015 17.4314 150.513 17.9691 152.675 19.0634C154.894 20.1648 156.624 21.8408 157.859 24.0737C159.101 26.3181 159.703 29.1217 159.703 32.4525V52.1833H152.463V33.1433C152.463 30.0076 151.683 27.7491 150.223 26.2623L150.218 26.2568C148.795 24.7678 146.75 23.9878 143.996 23.9878C141.921 23.9878 140.14 24.3912 138.635 25.1773C137.139 25.9584 135.978 27.1074 135.145 28.6396C134.357 30.1679 133.947 32.0998 133.947 34.462V52.1833H126.706V17.7454H133.693V21.7519ZM169.149 52.1833V17.7454H176.136V22.0038C177.012 20.932 178.095 20.0384 179.383 19.3257C181.684 18.0522 184.488 17.4314 187.767 17.4314H188.35V24.5317L187.671 24.4195C187.449 24.3828 187.228 24.3646 187.008 24.3646H186.375C183.25 24.3646 180.838 25.2863 179.071 27.0794C177.312 28.8637 176.389 31.4816 176.389 35.0272V52.1833H169.149ZM176.136 22.9658C175.927 23.265 175.732 23.5772 175.553 23.9025V18.3234H169.731V51.6054H175.806V35.0272C175.806 31.385 176.756 28.601 178.654 26.6753C180.553 24.7495 183.126 23.7866 186.375 23.7866H187.008C187.067 23.7866 187.126 23.7878 187.185 23.7901C187.379 23.7975 187.573 23.8173 187.767 23.8494V18.0094C187.571 18.0094 187.377 18.0117 187.185 18.0162C184.232 18.0859 181.727 18.6907 179.667 19.8305C178.211 20.636 177.034 21.6811 176.136 22.9658ZM192.989 44.0496L192.987 44.0461C191.412 41.3547 190.63 38.3225 190.63 34.9644C190.63 31.566 191.411 28.5318 192.989 25.8791C194.56 23.2371 196.703 21.1755 199.409 19.7022C202.122 18.1834 205.217 17.4314 208.679 17.4314C212.099 17.4314 215.172 18.1837 217.883 19.7013C220.631 21.1737 222.775 23.2355 224.306 25.8804C225.885 28.4932 226.664 31.5279 226.664 34.9644C226.664 38.3613 225.883 41.3944 224.307 44.0463C222.777 46.6918 220.633 48.7742 217.886 50.2886C215.174 51.8073 212.1 52.5601 208.679 52.5601C205.216 52.5601 202.119 51.8076 199.406 50.2876C196.702 48.7727 194.56 46.6912 192.989 44.0496ZM217.602 49.7843C220.26 48.319 222.327 46.3095 223.804 43.7558C225.322 41.2021 226.082 38.2716 226.082 34.9644C226.082 31.6152 225.322 28.6848 223.804 26.1729C222.327 23.6192 220.26 21.6306 217.602 20.2073C214.986 18.742 212.012 18.0094 208.679 18.0094C205.303 18.0094 202.308 18.742 199.692 20.2073C197.077 21.6306 195.009 23.6192 193.49 26.1729C191.972 28.7266 191.212 31.6571 191.212 34.9644C191.212 38.2298 191.972 41.1603 193.49 43.7558C195.009 46.3095 197.077 48.319 199.692 49.7843C202.308 51.2495 205.303 51.9821 208.679 51.9821C212.012 51.9821 214.986 51.2495 217.602 49.7843ZM214.147 44.7619L214.152 44.7588C215.784 43.8506 217.056 42.5703 217.975 40.9065C218.893 39.2024 219.361 37.227 219.361 34.9644C219.361 32.6562 218.892 30.7066 217.98 29.0931L217.977 29.088C217.058 27.4228 215.785 26.1415 214.153 25.2327L214.147 25.2297C212.557 24.3223 210.739 23.8622 208.679 23.8622C206.618 23.8622 204.8 24.3223 203.21 25.2296C201.617 26.1388 200.339 27.4235 199.375 29.0971L199.372 29.1023C198.422 30.714 197.933 32.6602 197.933 34.9644C197.933 37.2228 198.42 39.1949 199.377 40.8971C200.34 42.5695 201.618 43.8532 203.21 44.7619C204.8 45.6692 206.618 46.1293 208.679 46.1293C210.739 46.1293 212.557 45.6692 214.147 44.7619ZM198.87 41.1812C197.857 39.381 197.351 37.3088 197.351 34.9644C197.351 32.5781 197.857 30.5268 198.87 28.8103C199.882 27.0521 201.232 25.6915 202.92 24.7286C204.607 23.7657 206.527 23.2843 208.679 23.2843C210.83 23.2843 212.75 23.7657 214.437 24.7286C216.167 25.6915 217.517 27.0521 218.488 28.8103C219.458 30.5268 219.943 32.5781 219.943 34.9644C219.943 37.3088 219.458 39.381 218.488 41.1812C217.517 42.9395 216.167 44.3001 214.437 45.2629C212.75 46.2258 210.83 46.7073 208.679 46.7073C206.527 46.7073 204.607 46.2258 202.92 45.2629C201.232 44.3001 199.882 42.9395 198.87 41.1812ZM233.268 52.1833V4.43262H240.509V52.1833H233.268ZM250.311 52.1833V4.43262H257.551V52.1833H250.311ZM288.173 52.1833V48.874C287.473 49.5982 286.646 50.2355 285.695 50.7859L285.691 50.7882L285.687 50.7904C283.551 51.9827 280.893 52.5601 277.744 52.5601C275.19 52.5601 272.912 52.1303 270.926 51.2544L270.922 51.2524C268.983 50.3777 267.46 49.1629 266.379 47.5993L266.375 47.5931C265.296 45.987 264.758 44.1791 264.758 42.1859C264.758 40.2921 265.203 38.5595 266.101 37.0011L266.104 36.9957L266.107 36.9905C267.067 35.4033 268.582 34.1615 270.604 33.2455L270.609 33.2435C272.696 32.3183 275.445 31.8746 278.82 31.8746H287.857V31.2594C287.857 28.8245 287.137 27.0285 285.768 25.7826L285.761 25.777L285.755 25.7711C284.428 24.492 282.366 23.7995 279.453 23.7995C277.538 23.7995 275.663 24.1227 273.826 24.7708L273.821 24.7727L273.815 24.7745C271.974 25.3834 270.439 26.2093 269.196 27.2437L268.655 27.6937L265.542 22.1346L265.925 21.8293C267.72 20.3956 269.856 19.3171 272.322 18.5868C274.826 17.816 277.436 17.4314 280.149 17.4314C284.837 17.4314 288.54 18.5629 291.17 20.9076C293.823 23.2725 295.097 26.8472 295.097 31.5106V52.1833H288.173ZM272.492 19.1397C270.087 19.8514 268.02 20.898 266.29 22.2795L268.821 26.8009C268.971 26.676 269.125 26.5542 269.283 26.4354C270.501 25.5186 271.95 24.7822 273.631 24.2262C275.529 23.5564 277.47 23.2215 279.453 23.2215C282.448 23.2215 284.684 23.9332 286.161 25.3566C287.68 26.7381 288.439 28.7057 288.439 31.2594V32.4525H278.82C275.487 32.4525 272.829 32.8921 270.846 33.7712C268.906 34.6504 267.492 35.8226 266.606 37.2878C265.763 38.7531 265.341 40.3858 265.341 42.1859C265.341 44.0698 265.847 45.7653 266.859 47.2724C267.872 48.7377 269.306 49.8889 271.163 50.7262C273.061 51.5635 275.255 51.9821 277.744 51.9821C280.824 51.9821 283.377 51.417 285.402 50.2866C286.508 49.6462 287.432 48.8869 288.173 48.009C288.382 47.7619 288.576 47.5054 288.756 47.2395V51.6054H294.515V31.5106C294.515 26.9474 293.27 23.5564 290.781 21.3376C288.292 19.1188 284.748 18.0094 280.149 18.0094C277.491 18.0094 274.939 18.3862 272.492 19.1397ZM288.439 36.7855H279.073C276.036 36.7855 273.989 37.2878 272.935 38.2926C271.88 39.2973 271.353 40.5114 271.353 41.9347C271.353 43.5674 272.007 44.8862 273.314 45.8909C274.622 46.8538 276.436 47.3352 278.757 47.3352C281.035 47.3352 283.018 46.8328 284.706 45.8281C286.048 45.0481 287.099 43.9906 287.857 42.6556C287.931 42.5245 288.003 42.3908 288.072 42.2543C288.205 41.9904 288.327 41.7164 288.439 41.4324V36.7855ZM287.857 41.3217V37.3634H279.073C277.583 37.3634 276.362 37.4871 275.4 37.7233C274.435 37.9603 273.766 38.3015 273.338 38.7095C272.395 39.6076 271.935 40.6721 271.935 41.9347C271.935 43.3856 272.503 44.5348 273.666 45.4302C274.839 46.2914 276.513 46.7572 278.757 46.7572C280.946 46.7572 282.822 46.2753 284.406 45.3325L284.411 45.3293C285.994 44.4103 287.14 43.0819 287.857 41.3217ZM233.851 51.6054H239.926V5.01059H233.851V51.6054ZM250.893 5.01059H256.968V51.6054H250.893V5.01059Z" fill="#333538"/>
</svg>
