<svg width="295" height="237" viewBox="0 0 295 237" fill="none" xmlns="http://www.w3.org/2000/svg">
<g clip-path="url(#clip0_209_19209)">
<path d="M191.882 58.1643H244.512V45.1885" stroke="#1A1A1A" stroke-width="0.786435" stroke-miterlimit="10" stroke-linecap="round" stroke-linejoin="round"/>
<path d="M183.931 0.62207H53.3738C47.3668 0.62207 42.4241 5.13497 41.7283 10.9577H195.566C194.88 5.13497 189.938 0.62207 183.931 0.62207Z" fill="#9376EF" stroke="#1A1A1A" stroke-width="0.39312" stroke-miterlimit="10" stroke-linecap="round" stroke-linejoin="round"/>
<path d="M56.5255 7.17169C57.2885 7.17169 57.907 6.55317 57.907 5.79019C57.907 5.02721 57.2885 4.40869 56.5255 4.40869C55.7626 4.40869 55.144 5.02721 55.144 5.79019C55.144 6.55317 55.7626 7.17169 56.5255 7.17169Z" fill="white" stroke="#1A1A1A" stroke-width="0.786435" stroke-miterlimit="10" stroke-linecap="round" stroke-linejoin="round"/>
<path d="M64.9069 7.17169C65.6699 7.17169 66.2884 6.55317 66.2884 5.79019C66.2884 5.02721 65.6699 4.40869 64.9069 4.40869C64.1439 4.40869 63.5254 5.02721 63.5254 5.79019C63.5254 6.55317 64.1439 7.17169 64.9069 7.17169Z" fill="white" stroke="#1A1A1A" stroke-width="0.786435" stroke-miterlimit="10" stroke-linecap="round" stroke-linejoin="round"/>
<path d="M73.288 7.17169C74.051 7.17169 74.6695 6.55317 74.6695 5.79019C74.6695 5.02721 74.051 4.40869 73.288 4.40869C72.525 4.40869 71.9065 5.02721 71.9065 5.79019C71.9065 6.55317 72.525 7.17169 73.288 7.17169Z" fill="white" stroke="#1A1A1A" stroke-width="0.786435" stroke-miterlimit="10" stroke-linecap="round" stroke-linejoin="round"/>
<path d="M41.7283 10.958C41.6772 11.4185 41.6465 11.879 41.6465 12.3497V89.1611C41.6465 95.6388 46.8962 100.889 53.3739 100.889H183.931C190.408 100.889 195.658 95.6388 195.658 89.1611V12.36C195.658 11.8892 195.627 11.4185 195.576 10.9682H41.7283V10.958Z" fill="white" stroke="#1A1A1A" stroke-width="0.786435" stroke-miterlimit="10" stroke-linecap="round" stroke-linejoin="round"/>
<path d="M112.031 58.1333V59.3715H110.793" stroke="#1A1A1A" stroke-width="0.786435" stroke-linecap="round" stroke-linejoin="round"/>
<path d="M108.225 59.3716H52.9236" stroke="#1A1A1A" stroke-width="0.786435" stroke-linecap="round" stroke-linejoin="round" stroke-dasharray="4.9 4.9"/>
<path d="M51.634 59.3715H50.3958V58.1333" stroke="#1A1A1A" stroke-width="0.786435" stroke-linecap="round" stroke-linejoin="round"/>
<path d="M50.3958 55.7696V19.1548" stroke="#1A1A1A" stroke-width="0.786435" stroke-linecap="round" stroke-linejoin="round" stroke-dasharray="4.5 4.5"/>
<path d="M50.3958 17.9677V16.7295H51.634" stroke="#1A1A1A" stroke-width="0.786435" stroke-linecap="round" stroke-linejoin="round"/>
<path d="M54.2129 16.7295H109.514" stroke="#1A1A1A" stroke-width="0.786435" stroke-linecap="round" stroke-linejoin="round" stroke-dasharray="4.9 4.9"/>
<path d="M110.793 16.7295H112.031V17.9677" stroke="#1A1A1A" stroke-width="0.786435" stroke-linecap="round" stroke-linejoin="round"/>
<path d="M112.031 20.3315V56.9566" stroke="#1A1A1A" stroke-width="0.786435" stroke-linecap="round" stroke-linejoin="round" stroke-dasharray="4.5 4.5"/>
<path d="M164.528 58.1338V59.372H163.3" stroke="#1A1A1A" stroke-width="0.786435" stroke-linecap="round" stroke-linejoin="round"/>
<path d="M160.926 59.3716H119.45" stroke="#1A1A1A" stroke-width="0.786435" stroke-linecap="round" stroke-linejoin="round" stroke-dasharray="4.52 4.52"/>
<path d="M118.274 59.372H117.035V58.1338" stroke="#1A1A1A" stroke-width="0.786435" stroke-linecap="round" stroke-linejoin="round"/>
<path d="M117.035 55.7696V19.1548" stroke="#1A1A1A" stroke-width="0.786435" stroke-linecap="round" stroke-linejoin="round" stroke-dasharray="4.5 4.5"/>
<path d="M117.035 17.9677V16.7295H118.274" stroke="#1A1A1A" stroke-width="0.786435" stroke-linecap="round" stroke-linejoin="round"/>
<path d="M120.637 16.7295H162.113" stroke="#1A1A1A" stroke-width="0.786435" stroke-linecap="round" stroke-linejoin="round" stroke-dasharray="4.52 4.52"/>
<path d="M163.3 16.7295H164.528V17.9677" stroke="#1A1A1A" stroke-width="0.786435" stroke-linecap="round" stroke-linejoin="round"/>
<path d="M164.528 20.3315V56.9566" stroke="#1A1A1A" stroke-width="0.786435" stroke-linecap="round" stroke-linejoin="round" stroke-dasharray="4.5 4.5"/>
<path d="M188.28 92.9062V94.1445H187.042" stroke="#1A1A1A" stroke-width="0.786435" stroke-linecap="round" stroke-linejoin="round"/>
<path d="M184.841 94.1445H172.684" stroke="#1A1A1A" stroke-width="0.786435" stroke-linecap="round" stroke-linejoin="round" stroke-dasharray="4.21 4.21"/>
<path d="M171.579 94.1445H170.341V92.9062" stroke="#1A1A1A" stroke-width="0.786435" stroke-linecap="round" stroke-linejoin="round"/>
<path d="M170.341 90.4914V19.1753" stroke="#1A1A1A" stroke-width="0.786435" stroke-linecap="round" stroke-linejoin="round" stroke-dasharray="4.61 4.61"/>
<path d="M170.341 17.9677V16.7295H171.579" stroke="#1A1A1A" stroke-width="0.786435" stroke-linecap="round" stroke-linejoin="round"/>
<path d="M173.789 16.7295H185.936" stroke="#1A1A1A" stroke-width="0.786435" stroke-linecap="round" stroke-linejoin="round" stroke-dasharray="4.21 4.21"/>
<path d="M187.042 16.7295H188.28V17.9677" stroke="#1A1A1A" stroke-width="0.786435" stroke-linecap="round" stroke-linejoin="round"/>
<path d="M188.28 20.3828V91.6989" stroke="#1A1A1A" stroke-width="0.786435" stroke-linecap="round" stroke-linejoin="round" stroke-dasharray="4.61 4.61"/>
<path d="M112.031 91.2793V92.5175H110.793" stroke="#1A1A1A" stroke-width="0.786435" stroke-linecap="round" stroke-linejoin="round"/>
<path d="M108.224 92.5176H52.9233" stroke="#1A1A1A" stroke-width="0.786435" stroke-linecap="round" stroke-linejoin="round" stroke-dasharray="4.9 4.9"/>
<path d="M51.634 92.5175H50.3958V91.2793" stroke="#1A1A1A" stroke-width="0.786435" stroke-linecap="round" stroke-linejoin="round"/>
<path d="M50.3958 89.0178V67.5176" stroke="#1A1A1A" stroke-width="0.786435" stroke-linecap="round" stroke-linejoin="round" stroke-dasharray="4.31 4.31"/>
<path d="M50.3958 66.3818V65.1436H51.634" stroke="#1A1A1A" stroke-width="0.786435" stroke-linecap="round" stroke-linejoin="round"/>
<path d="M54.2129 65.1436H109.514" stroke="#1A1A1A" stroke-width="0.786435" stroke-linecap="round" stroke-linejoin="round" stroke-dasharray="4.9 4.9"/>
<path d="M110.793 65.1436H112.031V66.3818" stroke="#1A1A1A" stroke-width="0.786435" stroke-linecap="round" stroke-linejoin="round"/>
<path d="M112.031 68.6436V90.154" stroke="#1A1A1A" stroke-width="0.786435" stroke-linecap="round" stroke-linejoin="round" stroke-dasharray="4.31 4.31"/>
<path d="M108.583 91.2792H53.7933C52.862 91.2792 52.115 90.5322 52.115 89.601V68.6431C52.115 67.7119 52.862 66.9648 53.7933 66.9648H108.593C109.524 66.9648 110.271 67.7119 110.271 68.6431V89.601C110.261 90.5322 109.514 91.2792 108.583 91.2792Z" fill="white" stroke="#1A1A1A" stroke-width="0.786435" stroke-miterlimit="10" stroke-linecap="round" stroke-linejoin="round"/>
<path d="M74.833 81.271L77.8621 87.1859L81.4028 81.5575L74.833 81.271Z" fill="#9376EF" stroke="#1A1A1A" stroke-width="0.39312" stroke-miterlimit="10" stroke-linecap="round" stroke-linejoin="round"/>
<path d="M78.8855 83.8804C79.2539 84.0748 79.6121 84.2795 79.96 84.4841" stroke="#1A1A1A" stroke-width="0.786435" stroke-linecap="round" stroke-linejoin="round"/>
<path d="M82.0067 85.8555C90.9302 92.4764 95.3407 104.941 92.0865 115.634C89.2417 124.998 81.669 131.998 74.8945 139.048C71.4459 142.64 67.9256 146.836 67.854 151.809C67.7824 156.148 70.3612 160.047 73.0423 163.445C78.4762 170.321 84.8106 176.472 91.8307 181.711" stroke="#1A1A1A" stroke-width="0.786435" stroke-linecap="round" stroke-linejoin="round" stroke-dasharray="4.69 4.69"/>
<path d="M92.8232 182.448C93.1609 182.693 93.4884 182.929 93.8261 183.164" stroke="#1A1A1A" stroke-width="0.786435" stroke-linecap="round" stroke-linejoin="round"/>
<path d="M110.732 174.968H23.8404C18.5497 174.968 14.262 179.256 14.262 184.546V186.388H110.732V174.968Z" fill="white" stroke="#1A1A1A" stroke-width="0.786435" stroke-miterlimit="10" stroke-linecap="round" stroke-linejoin="round"/>
<path d="M110.732 186.388H14.262V197.635H110.732V186.388Z" fill="#9376EF" stroke="#1A1A1A" stroke-width="0.39312" stroke-miterlimit="10" stroke-linecap="round" stroke-linejoin="round"/>
<path d="M110.732 197.635H14.262V236.378H110.732V197.635Z" fill="white" stroke="#1A1A1A" stroke-width="0.786435" stroke-miterlimit="10" stroke-linecap="round" stroke-linejoin="round"/>
<path d="M33.4801 225.387H22.7454V230.975H33.4801V225.387Z" fill="white" stroke="#1A1A1A" stroke-width="0.786435" stroke-miterlimit="10" stroke-linecap="round" stroke-linejoin="round"/>
<path d="M47.0802 225.387H36.3455V230.975H47.0802V225.387Z" fill="white" stroke="#1A1A1A" stroke-width="0.786435" stroke-miterlimit="10" stroke-linecap="round" stroke-linejoin="round"/>
<path d="M60.6906 225.387H49.9558V230.975H60.6906V225.387Z" fill="white" stroke="#1A1A1A" stroke-width="0.786435" stroke-miterlimit="10" stroke-linecap="round" stroke-linejoin="round"/>
<path d="M58.1426 229.634C54.1414 219.114 56.0243 207.346 63.1058 199.139C71.5176 189.396 85.8954 186.255 98.3903 191.689C99.1885 187.749 100.887 181.875 104.95 176.083C123.544 149.599 178.067 144.237 207.068 170.588C212.083 175.141 221.743 185.559 226.215 204.982C235.722 192.927 253.169 192.733 261.847 201.963C270.147 210.794 269.451 227.198 258.041 236.357C192.087 236.357 126.133 236.357 60.1791 236.357C59.5037 234.126 58.818 231.885 58.1426 229.634Z" fill="white" stroke="#1A1A1A" stroke-width="0.786435" stroke-miterlimit="10" stroke-linecap="round" stroke-linejoin="round"/>
<path d="M179.899 153.129H105.605V164.488H179.899V153.129Z" fill="white" stroke="#1A1A1A" stroke-width="0.786435" stroke-miterlimit="10" stroke-linecap="round" stroke-linejoin="round"/>
<path d="M179.899 164.488H105.605V224.66H179.899V164.488Z" fill="white" stroke="#1A1A1A" stroke-width="0.786435" stroke-miterlimit="10" stroke-linecap="round" stroke-linejoin="round"/>
<path d="M179.899 224.65H105.605V226.564H179.899V224.65Z" fill="white" stroke="#1A1A1A" stroke-width="0.786435" stroke-miterlimit="10" stroke-linecap="round" stroke-linejoin="round"/>
<path d="M179.899 226.564H105.605V236.357H179.899V226.564Z" fill="white" stroke="#1A1A1A" stroke-width="0.786435" stroke-miterlimit="10" stroke-linecap="round" stroke-linejoin="round"/>
<path d="M153.272 171.283H132.979V175.192H153.272V171.283Z" fill="#9376EF" stroke="#1A1A1A" stroke-width="0.39312" stroke-miterlimit="10" stroke-linecap="round" stroke-linejoin="round"/>
<path d="M105.605 153.129L98.8098 161.787L98.9326 169.789L105.605 164.714V153.129Z" fill="#9376EF" stroke="#1A1A1A" stroke-width="0.39312" stroke-miterlimit="10" stroke-linecap="round" stroke-linejoin="round"/>
<path d="M105.605 164.713L98.9326 169.789L99.7717 225.786L105.605 224.568V164.713Z" fill="white" stroke="#1A1A1A" stroke-width="0.786435" stroke-miterlimit="10" stroke-linecap="round" stroke-linejoin="round"/>
<path d="M99.7717 225.786L99.8024 227.966L105.605 226.513V224.568L99.7717 225.786Z" fill="white" stroke="#1A1A1A" stroke-width="0.786435" stroke-miterlimit="10" stroke-linecap="round" stroke-linejoin="round"/>
<path d="M99.8025 227.966L99.9253 236.367H105.605V226.513L99.8025 227.966Z" fill="#9376EF" stroke="#1A1A1A" stroke-width="0.39312" stroke-miterlimit="10" stroke-linecap="round" stroke-linejoin="round"/>
<path d="M0.651611 236.368H294.348" stroke="#1A1A1A" stroke-width="1.17955" stroke-miterlimit="10" stroke-linecap="round" stroke-linejoin="round"/>
<path d="M244.706 47.0816C253.088 47.0816 259.882 40.287 259.882 31.9055C259.882 23.524 253.088 16.7295 244.706 16.7295C236.325 16.7295 229.53 23.524 229.53 31.9055C229.53 40.287 236.325 47.0816 244.706 47.0816Z" fill="white" stroke="#1A1A1A" stroke-width="0.786435" stroke-miterlimit="10" stroke-linecap="round" stroke-linejoin="round"/>
<path d="M246.937 28.8153C247.991 28.2013 248.708 27.0552 248.708 25.7453C248.708 23.7805 247.111 22.1943 245.157 22.1943C243.192 22.1943 241.606 23.7907 241.606 25.7453C241.606 27.0552 242.312 28.2013 243.376 28.8153C240.265 29.6135 237.963 32.4379 237.963 35.7944V39.2738H252.381V35.7944C252.361 32.4277 250.048 29.6033 246.937 28.8153Z" fill="#9376EF" stroke="#1A1A1A" stroke-width="0.39312" stroke-miterlimit="10" stroke-linecap="round" stroke-linejoin="round"/>
<path d="M154.582 71.5698C154.582 71.5698 167.117 99.7934 173.39 99.5989C179.663 99.4045 156.986 107.796 156.986 107.796L154.582 88.332V71.5698Z" fill="#DACAFF" stroke="#1A1A1A" stroke-width="0.786435" stroke-miterlimit="10" stroke-linecap="round" stroke-linejoin="round"/>
<path d="M118.315 111.859C118.315 111.859 110.629 92.7017 118.315 79.5723C126 66.443 135.865 61.7868 135.865 61.7868C135.865 61.7868 147.04 59.648 151.972 65.3275C156.904 71.007 165.47 90.2764 158.112 114.488C141.452 120.547 118.315 111.859 118.315 111.859ZM117.271 105.616C117.271 105.616 126.88 97.8081 137.134 97.8081Z" fill="#DACAFF"/>
<path d="M117.271 105.616C117.271 105.616 126.88 97.8081 137.134 97.8081M118.315 111.859C118.315 111.859 110.629 92.7017 118.315 79.5723C126 66.443 135.865 61.7868 135.865 61.7868C135.865 61.7868 147.04 59.648 151.972 65.3275C156.904 71.007 165.47 90.2764 158.112 114.488C141.452 120.547 118.315 111.859 118.315 111.859Z" stroke="#1A1A1A" stroke-width="0.786435" stroke-miterlimit="10" stroke-linecap="round" stroke-linejoin="round"/>
<path d="M190.03 111.367C181.229 120.373 181.024 137.207 181.024 137.207L194.184 147.378C194.184 147.378 198.278 137.575 205.329 125.888C211.939 114.929 223.206 96.5699 205.329 94.3391C187.451 92.1082 156.035 110.815 156.035 110.815C156.035 110.815 141.851 127.454 142.128 127.526C142.404 127.597 167.69 131.762 167.69 131.762C167.69 131.762 180.861 123.443 183.849 121.908" fill="white"/>
<path d="M190.03 111.367C181.229 120.373 181.024 137.207 181.024 137.207L194.184 147.378C194.184 147.378 198.278 137.575 205.329 125.888C211.939 114.929 223.206 96.5699 205.329 94.3391C187.451 92.1082 156.035 110.815 156.035 110.815C156.035 110.815 141.851 127.454 142.128 127.526C142.404 127.597 167.69 131.762 167.69 131.762C167.69 131.762 180.861 123.443 183.849 121.908" stroke="#1A1A1A" stroke-width="0.786435" stroke-miterlimit="10" stroke-linecap="round" stroke-linejoin="round"/>
<path d="M197.019 212.688C197.828 212.595 198.431 212.155 198.933 211.552C198.779 211.408 198.667 211.296 198.616 211.224C197.879 210.18 197.029 208.85 197.029 208.85L188.925 210.805C188.925 210.805 188.904 211.726 188.986 212.995C191.401 214.171 194.522 213.046 197.019 212.688Z" fill="#9376EF" stroke="#1A1A1A" stroke-width="0.39312" stroke-miterlimit="10" stroke-linecap="round" stroke-linejoin="round"/>
<path d="M212.819 223.238C211.223 220.946 200.979 213.445 198.943 211.562C198.441 212.166 197.827 212.606 197.029 212.698C194.532 213.056 191.411 214.182 189.006 213.005C189.15 215.328 189.631 218.838 191.135 220.219C193.458 222.358 203.517 226.881 207.385 226.922C211.233 226.963 214.539 225.704 212.819 223.238Z" fill="white" stroke="#1A1A1A" stroke-width="0.786435" stroke-miterlimit="10" stroke-linecap="round" stroke-linejoin="round"/>
<path d="M123.206 116.638C123.206 116.638 118.734 119.616 118.11 128.897C117.486 138.189 118.796 153.498 137.942 154.153C157.089 154.808 167.332 154.521 168.734 152.853C169.389 158.062 185.404 208.154 187.912 210.764C190.429 213.373 199.271 211.879 199.363 207.407C199.455 202.935 198.708 157.97 197.684 151.636C196.661 145.301 195.075 130.596 154.387 125.571M138.505 131.005C138.505 131.005 140.03 134.638 137.942 138.363Z" fill="white"/>
<path d="M123.206 116.638C123.206 116.638 118.734 119.616 118.11 128.897C117.486 138.189 118.796 153.498 137.942 154.153C157.089 154.808 167.332 154.521 168.734 152.853C169.389 158.062 185.404 208.154 187.912 210.764C190.429 213.373 199.271 211.879 199.363 207.407C199.455 202.935 198.708 157.97 197.684 151.636C196.661 145.301 195.075 130.596 154.387 125.571M138.505 131.005C138.505 131.005 140.03 134.638 137.942 138.363" stroke="#1A1A1A" stroke-width="0.786435" stroke-miterlimit="10" stroke-linecap="round" stroke-linejoin="round"/>
<path d="M129.459 131.466C129.459 131.466 127.535 144.268 152.985 142.497C178.435 140.727 184.176 146.437 185.056 161.449C185.936 176.472 191.892 209.567 191.892 209.567" stroke="#1A1A1A" stroke-width="0.786435" stroke-miterlimit="10" stroke-linecap="round" stroke-linejoin="round" stroke-dasharray="4.72 4.72"/>
<path d="M121.364 119.994C121.364 119.994 126.368 126.104 133.573 126.912C140.777 127.72 148.769 127.311 156.986 120.762C160.762 117.354 159.32 116.392 159.32 116.392H122.254L120.945 119.217L121.364 119.994ZM184.688 105.402C184.688 105.402 202.566 91.8526 205.257 90.1129C207.948 88.363 206.27 86.7257 206.27 86.7257C206.27 86.7257 199.414 79.4907 196.671 77.1575C193.929 74.8346 192.271 76.5333 192.271 76.5333L170.341 93.1522C170.341 93.1522 169.185 94.1551 170.658 95.8231C172.132 97.4912 181.598 106.323 181.598 106.323C181.598 106.323 182.457 107.469 184.688 105.402Z" fill="#9376EF" stroke="#1A1A1A" stroke-width="0.39312" stroke-miterlimit="10" stroke-linecap="round" stroke-linejoin="round"/>
<path d="M185.19 103.457C185.19 103.457 200.601 91.7806 202.914 90.2763C205.226 88.772 203.783 87.3598 203.783 87.3598C203.783 87.3598 197.879 81.1175 195.505 79.1118C193.141 77.106 191.708 78.5694 191.708 78.5694L172.807 92.8961C172.807 92.8961 171.815 93.7557 173.083 95.1986C174.352 96.6415 182.519 104.245 182.519 104.245C182.519 104.245 183.266 105.237 185.19 103.457Z" fill="white" stroke="#1A1A1A" stroke-width="0.786435" stroke-miterlimit="10" stroke-linecap="round" stroke-linejoin="round"/>
<path d="M137.174 90.3788L137.942 99.6911C137.942 99.6911 146.671 114.028 164.538 102.301C176.829 93.4999 183.951 85.8249 191.073 85.4054C198.196 84.9858 195.893 87.1553 191.698 88.1274C187.512 89.1098 188.761 91.4124 188.904 92.5994C189.047 93.7865 188.628 97.6956 182.692 98.1152C176.757 98.5348 176.409 102.239 172.848 105.933C169.287 109.638 156.536 125.019 139.866 125.858C123.196 126.697 118.918 113.557 118.314 111.869C118.314 111.869 124.526 103.488 136.397 100.274L137.942 99.6911M205.994 89.5397C205.994 89.5397 206.679 91.0132 209.279 88.3833C211.888 85.7533 210.23 82.6117 208.163 79.9101C206.096 77.2085 203.507 76.9322 203.507 76.9322C203.507 76.9322 197.459 78.7947 198.298 81.6088C199.137 84.423 201.951 86.6845 204.674 86.1217C206.127 85.2621 206.72 87.0632 206.884 87.3907C206.884 87.3907 207.314 88.5675 205.994 89.5397ZM148.124 58.0517C155.584 62.6465 158.122 57.8368 160.036 54.204C161.949 50.5711 160.987 44.9633 160.987 44.9633C160.363 42.4459 157.498 39.1712 150.304 40.9109C143.11 42.6608 141.82 54.1733 141.82 54.1733L135.957 62.6567C135.957 62.6567 135.824 65.4606 140.296 65.9723C144.768 66.484 146.876 65.2457 147.551 63.9666C148.994 60.9375 149.792 59.1671 149.792 59.1671" fill="white"/>
<path d="M137.174 90.3788L137.942 99.6911M137.942 99.6911C137.942 99.6911 146.671 114.028 164.538 102.301C176.829 93.4999 183.951 85.8249 191.073 85.4054C198.196 84.9858 195.893 87.1553 191.698 88.1274C187.512 89.1098 188.761 91.4124 188.904 92.5994C189.047 93.7865 188.628 97.6956 182.692 98.1152C176.757 98.5348 176.409 102.239 172.848 105.933C169.287 109.638 156.536 125.019 139.866 125.858C123.196 126.697 118.918 113.557 118.314 111.869C118.314 111.869 124.526 103.488 136.397 100.274L137.942 99.6911ZM148.124 58.0517C155.584 62.6465 158.122 57.8368 160.036 54.204C161.949 50.5711 160.987 44.9633 160.987 44.9633C160.363 42.4459 157.498 39.1712 150.304 40.9109C143.11 42.6608 141.82 54.1733 141.82 54.1733L135.957 62.6567C135.957 62.6567 135.824 65.4606 140.296 65.9723C144.768 66.484 146.876 65.2457 147.551 63.9666C148.994 60.9375 149.792 59.1671 149.792 59.1671M205.994 89.5397C205.994 89.5397 206.679 91.0132 209.279 88.3833C211.888 85.7533 210.23 82.6117 208.163 79.9101C206.096 77.2085 203.507 76.9322 203.507 76.9322C203.507 76.9322 197.459 78.7947 198.298 81.6088C199.137 84.423 201.951 86.6845 204.674 86.1217C206.127 85.2621 206.72 87.0632 206.884 87.3907C206.884 87.3907 207.314 88.5675 205.994 89.5397Z" stroke="#1A1A1A" stroke-width="0.786435" stroke-miterlimit="10" stroke-linecap="round" stroke-linejoin="round"/>
<path d="M148.165 58.1641L149.465 59.6377L149.649 59.0953L148.165 58.1641Z" fill="#9376EF" stroke="#1A1A1A" stroke-width="0.39312" stroke-miterlimit="10" stroke-linecap="round" stroke-linejoin="round"/>
<path d="M147.398 51.8094C147.398 51.8094 146.948 55.1966 144.635 55.2273C142.322 55.258 138.628 51.6354 139.017 48.2789C139.406 44.9224 142.261 38.6084 147.889 36.0603C153.507 33.5122 160.108 37.0427 162.553 37.9432C164.999 38.8438 167.199 38.3321 167.997 37.8409C168.796 37.3497 168.448 39.9387 167.23 41.0132C166.012 42.098 163.873 45.3112 156.618 43.459C155.431 43.1111 152.709 44.7893 152.709 45.6285C152.709 46.4676 151.624 46.6723 151.624 46.6723C151.624 46.6723 149.7 42.5175 147.92 44.2265C146.139 45.9355 148.718 49.3636 149.352 50.0186C149.987 50.6735 147.398 51.8094 147.398 51.8094Z" fill="#9376EF" stroke="#1A1A1A" stroke-width="0.39312" stroke-miterlimit="10" stroke-linecap="round" stroke-linejoin="round"/>
<path d="M51.7773 15.9312H49.0757V18.6327H51.7773V15.9312Z" fill="#9376EF" stroke="#1A1A1A" stroke-width="0.39312" stroke-miterlimit="10" stroke-linecap="round" stroke-linejoin="round"/>
<path d="M51.7773 57.7036H49.0757V60.4052H51.7773V57.7036Z" fill="#9376EF" stroke="#1A1A1A" stroke-width="0.39312" stroke-miterlimit="10" stroke-linecap="round" stroke-linejoin="round"/>
<path d="M113.157 15.9312H110.455V18.6327H113.157V15.9312Z" fill="#9376EF" stroke="#1A1A1A" stroke-width="0.39312" stroke-miterlimit="10" stroke-linecap="round" stroke-linejoin="round"/>
<path d="M113.157 57.7036H110.455V60.4052H113.157V57.7036Z" fill="#9376EF" stroke="#1A1A1A" stroke-width="0.39312" stroke-miterlimit="10" stroke-linecap="round" stroke-linejoin="round"/>
<path d="M34.5035 146.068C43.2806 146.068 50.3958 138.953 50.3958 130.176C50.3958 121.399 43.2806 114.284 34.5035 114.284C25.7263 114.284 18.6111 121.399 18.6111 130.176C18.6111 138.953 25.7263 146.068 34.5035 146.068Z" fill="white" stroke="#1A1A1A" stroke-width="0.786435" stroke-miterlimit="10" stroke-linecap="round" stroke-linejoin="round"/>
<path d="M34.5035 144.329C42.3199 144.329 48.6562 137.992 48.6562 130.176C48.6562 122.36 42.3199 116.023 34.5035 116.023C26.6872 116.023 20.3508 122.36 20.3508 130.176C20.3508 137.992 26.6872 144.329 34.5035 144.329Z" fill="white" stroke="#1A1A1A" stroke-width="0.786435" stroke-miterlimit="10" stroke-linecap="round" stroke-linejoin="round"/>
<path d="M31.2185 121.958V138.383L40.142 130.176L31.2185 121.958Z" fill="#9376EF" stroke="#1A1A1A" stroke-width="0.39312" stroke-miterlimit="10" stroke-linecap="round" stroke-linejoin="round"/>
<path d="M252.361 107.98C258.612 107.98 263.679 102.913 263.679 96.6623C263.679 90.4115 258.612 85.3442 252.361 85.3442C246.11 85.3442 241.043 90.4115 241.043 96.6623C241.043 102.913 246.11 107.98 252.361 107.98Z" fill="white" stroke="#1A1A1A" stroke-width="0.786435" stroke-miterlimit="10" stroke-linecap="round" stroke-linejoin="round"/>
<path d="M252.361 106.752C257.934 106.752 262.451 102.235 262.451 96.6623C262.451 91.0897 257.934 86.5723 252.361 86.5723C246.788 86.5723 242.271 91.0897 242.271 96.6623C242.271 102.235 246.788 106.752 252.361 106.752Z" fill="white" stroke="#1A1A1A" stroke-width="0.786435" stroke-miterlimit="10" stroke-linecap="round" stroke-linejoin="round"/>
<path d="M249.792 102.199L250.253 98.7398H248.81V97.6959H250.417L250.754 95.1376H249.24V94.0938H250.918L251.379 90.7271H252.402L251.962 94.0938H253.794L254.254 90.7271H255.298L254.858 94.0938H256.301V95.1376H254.694L254.377 97.6959H255.892V98.7398H254.213L253.753 102.199H252.699L253.159 98.7398H251.327L250.867 102.199H249.792ZM253.302 97.6959L253.64 95.1376H251.808L251.471 97.6959H253.302Z" fill="black"/>
<path d="M200.775 214.212L198.523 217.354L203.128 216.177L202.535 219.657L205.871 218.48L205.288 220.342" stroke="#1A1A1A" stroke-width="1.17955" stroke-miterlimit="10" stroke-linecap="round" stroke-linejoin="round"/>
<path d="M29.2946 37.4316H11.417V55.3093H29.2946V37.4316Z" fill="white" stroke="#1A1A1A" stroke-width="0.786435" stroke-miterlimit="10" stroke-linecap="round" stroke-linejoin="round"/>
<path d="M20.3506 40.481V52.2493" stroke="#1A1A1A" stroke-width="0.786435" stroke-miterlimit="10" stroke-linecap="round" stroke-linejoin="round"/>
<path d="M14.4868 46.3652H26.0709" stroke="#1A1A1A" stroke-width="0.786435" stroke-miterlimit="10" stroke-linecap="round" stroke-linejoin="round"/>
<path d="M244.512 60.4872C245.795 60.4872 246.835 59.4472 246.835 58.1643C246.835 56.8813 245.795 55.8413 244.512 55.8413C243.229 55.8413 242.189 56.8813 242.189 58.1643C242.189 59.4472 243.229 60.4872 244.512 60.4872Z" fill="white" stroke="#1A1A1A" stroke-width="0.786435" stroke-miterlimit="10" stroke-linecap="round" stroke-linejoin="round"/>
<path d="M249.393 139.734H222.428V157.223H249.393V139.734Z" fill="white" stroke="#1A1A1A" stroke-width="0.786435" stroke-miterlimit="10" stroke-linecap="round" stroke-linejoin="round"/>
<path d="M235.906 148.228L222.428 139.734H249.393L235.906 148.228Z" fill="white" stroke="#1A1A1A" stroke-width="0.786435" stroke-miterlimit="10" stroke-linecap="round" stroke-linejoin="round"/>
<path d="M222.428 157.223L232.467 146.069" stroke="#1A1A1A" stroke-width="0.786435" stroke-miterlimit="10" stroke-linecap="round" stroke-linejoin="round"/>
<path d="M239.723 146.069L249.393 157.223" stroke="#1A1A1A" stroke-width="0.786435" stroke-miterlimit="10" stroke-linecap="round" stroke-linejoin="round"/>
</g>
<defs>
<clipPath id="clip0_209_19209">
<rect width="295" height="237" fill="white"/>
</clipPath>
</defs>
</svg>
