<svg width="289" height="232" viewBox="0 0 289 232" fill="none" xmlns="http://www.w3.org/2000/svg">
<g clip-path="url(#clip0_209_20424)">
<path d="M187.851 56.6121H239.259V43.9375" stroke="#A9ACB7" stroke-width="0.786435" stroke-miterlimit="10" stroke-linecap="round" stroke-linejoin="round"/>
<path d="M180.085 0.40625H52.5595C46.692 0.40625 41.864 4.81436 41.1843 10.5019H191.45C190.78 4.81436 185.952 0.40625 180.085 0.40625Z" fill="#DACAFF" stroke="#A9ACB7" stroke-width="0.39312" stroke-miterlimit="10" stroke-linecap="round" stroke-linejoin="round"/>
<path d="M55.638 6.80382C56.3833 6.80382 56.9874 6.19967 56.9874 5.4544C56.9874 4.70914 56.3833 4.10498 55.638 4.10498C54.8927 4.10498 54.2886 4.70914 54.2886 5.4544C54.2886 6.19967 54.8927 6.80382 55.638 6.80382Z" fill="#9376EF"/>
<path d="M63.8244 6.80382C64.5697 6.80382 65.1738 6.19967 65.1738 5.4544C65.1738 4.70914 64.5697 4.10498 63.8244 4.10498C63.0791 4.10498 62.475 4.70914 62.475 5.4544C62.475 6.19967 63.0791 6.80382 63.8244 6.80382Z" fill="#9376EF"/>
<path d="M72.0112 6.80382C72.7564 6.80382 73.3606 6.19967 73.3606 5.4544C73.3606 4.70914 72.7564 4.10498 72.0112 4.10498C71.2659 4.10498 70.6617 4.70914 70.6617 5.4544C70.6617 6.19967 71.2659 6.80382 72.0112 6.80382Z" fill="#9376EF"/>
<path d="M41.1842 10.502C41.1342 10.9518 41.1042 11.4016 41.1042 11.8614V86.8892C41.1042 93.2165 46.2321 98.3443 52.5593 98.3443H180.085C186.412 98.3443 191.54 93.2165 191.54 86.8892V11.8714C191.54 11.4116 191.51 10.9518 191.46 10.5119H41.1842V10.502Z" fill="#0C0C0E" stroke="#A9ACB7" stroke-width="0.786435" stroke-miterlimit="10" stroke-linecap="round" stroke-linejoin="round"/>
<path d="M109.855 56.582V57.7915H108.646" stroke="#1A1A1A" stroke-width="0.786435" stroke-linecap="round" stroke-linejoin="round"/>
<path d="M106.136 57.792H52.1196" stroke="#A9ACB7" stroke-width="0.786435" stroke-linecap="round" stroke-linejoin="round" stroke-dasharray="4.9 4.9"/>
<path d="M50.8601 57.7915H49.6506V56.582" stroke="#1A1A1A" stroke-width="0.786435" stroke-linecap="round" stroke-linejoin="round"/>
<path d="M49.6506 54.2735V18.5088" stroke="#A9ACB7" stroke-width="0.786435" stroke-linecap="round" stroke-linejoin="round" stroke-dasharray="4.5 4.5"/>
<path d="M49.6506 17.3491V16.1396H50.8601" stroke="#1A1A1A" stroke-width="0.786435" stroke-linecap="round" stroke-linejoin="round"/>
<path d="M53.379 16.1396H107.396" stroke="#A9ACB7" stroke-width="0.786435" stroke-linecap="round" stroke-linejoin="round" stroke-dasharray="4.9 4.9"/>
<path d="M108.646 16.1396H109.855V17.3491" stroke="#1A1A1A" stroke-width="0.786435" stroke-linecap="round" stroke-linejoin="round"/>
<path d="M109.855 19.6582V55.4329" stroke="#A9ACB7" stroke-width="0.786435" stroke-linecap="round" stroke-linejoin="round" stroke-dasharray="4.5 4.5"/>
<path d="M161.133 56.5825V57.792H159.934" stroke="#1A1A1A" stroke-width="0.786435" stroke-linecap="round" stroke-linejoin="round"/>
<path d="M157.615 57.792H117.102" stroke="#A9ACB7" stroke-width="0.786435" stroke-linecap="round" stroke-linejoin="round" stroke-dasharray="4.52 4.52"/>
<path d="M115.952 57.792H114.743V56.5825" stroke="#1A1A1A" stroke-width="0.786435" stroke-linecap="round" stroke-linejoin="round"/>
<path d="M114.743 54.2735V18.5088" stroke="#A9ACB7" stroke-width="0.786435" stroke-linecap="round" stroke-linejoin="round" stroke-dasharray="4.5 4.5"/>
<path d="M114.743 17.3491V16.1396H115.952" stroke="#1A1A1A" stroke-width="0.786435" stroke-linecap="round" stroke-linejoin="round"/>
<path d="M118.261 16.1396H158.774" stroke="#A9ACB7" stroke-width="0.786435" stroke-linecap="round" stroke-linejoin="round" stroke-dasharray="4.52 4.52"/>
<path d="M159.934 16.1396H161.133V17.3491" stroke="#1A1A1A" stroke-width="0.786435" stroke-linecap="round" stroke-linejoin="round"/>
<path d="M161.133 19.6582V55.4329" stroke="#A9ACB7" stroke-width="0.786435" stroke-linecap="round" stroke-linejoin="round" stroke-dasharray="4.5 4.5"/>
<path d="M184.333 90.5479V91.7573H183.123" stroke="#1A1A1A" stroke-width="0.786435" stroke-linecap="round" stroke-linejoin="round"/>
<path d="M180.974 91.7573H169.099" stroke="#A9ACB7" stroke-width="0.786435" stroke-linecap="round" stroke-linejoin="round" stroke-dasharray="4.21 4.21"/>
<path d="M168.02 91.7573H166.81V90.5479" stroke="#1A1A1A" stroke-width="0.786435" stroke-linecap="round" stroke-linejoin="round"/>
<path d="M166.81 88.189V18.5288" stroke="#A9ACB7" stroke-width="0.786435" stroke-linecap="round" stroke-linejoin="round" stroke-dasharray="4.61 4.61"/>
<path d="M166.81 17.3491V16.1396H168.02" stroke="#1A1A1A" stroke-width="0.786435" stroke-linecap="round" stroke-linejoin="round"/>
<path d="M170.179 16.1396H182.044" stroke="#A9ACB7" stroke-width="0.786435" stroke-linecap="round" stroke-linejoin="round" stroke-dasharray="4.21 4.21"/>
<path d="M183.123 16.1396H184.333V17.3491" stroke="#1A1A1A" stroke-width="0.786435" stroke-linecap="round" stroke-linejoin="round"/>
<path d="M184.333 19.708V89.3681" stroke="#A9ACB7" stroke-width="0.786435" stroke-linecap="round" stroke-linejoin="round" stroke-dasharray="4.61 4.61"/>
<path d="M109.855 88.958V90.1675H108.645" stroke="#1A1A1A" stroke-width="0.786435" stroke-linecap="round" stroke-linejoin="round"/>
<path d="M106.136 90.1675H52.1196" stroke="#A9ACB7" stroke-width="0.786435" stroke-linecap="round" stroke-linejoin="round" stroke-dasharray="4.9 4.9"/>
<path d="M50.8602 90.1675H49.6508V88.958" stroke="#1A1A1A" stroke-width="0.786435" stroke-linecap="round" stroke-linejoin="round"/>
<path d="M49.6508 86.749V65.748" stroke="#A9ACB7" stroke-width="0.786435" stroke-linecap="round" stroke-linejoin="round" stroke-dasharray="4.31 4.31"/>
<path d="M49.6506 64.6387V63.4292H50.8601" stroke="#1A1A1A" stroke-width="0.786435" stroke-linecap="round" stroke-linejoin="round"/>
<path d="M53.3792 63.4292H107.396" stroke="#A9ACB7" stroke-width="0.786435" stroke-linecap="round" stroke-linejoin="round" stroke-dasharray="4.9 4.9"/>
<path d="M108.645 63.4292H109.855V64.6387" stroke="#1A1A1A" stroke-width="0.786435" stroke-linecap="round" stroke-linejoin="round"/>
<path d="M109.855 66.8477V87.8587" stroke="#A9ACB7" stroke-width="0.786435" stroke-linecap="round" stroke-linejoin="round" stroke-dasharray="4.31 4.31"/>
<path d="M106.486 88.9583H52.9692C52.0596 88.9583 51.33 88.2286 51.33 87.319V66.8478C51.33 65.9382 52.0596 65.2085 52.9692 65.2085H106.496C107.406 65.2085 108.136 65.9382 108.136 66.8478V87.319C108.126 88.2286 107.396 88.9583 106.486 88.9583Z" fill="#0C0C0E" stroke="#A9ACB7" stroke-width="0.786435" stroke-miterlimit="10" stroke-linecap="round" stroke-linejoin="round"/>
<path d="M73.5208 79.1826L76.4795 84.9601L79.938 79.4625L73.5208 79.1826Z" fill="#9376EF" stroke="#A9ACB7" stroke-width="0.39312" stroke-miterlimit="10" stroke-linecap="round" stroke-linejoin="round"/>
<path d="M77.4791 81.7314C77.839 81.9214 78.1888 82.1213 78.5287 82.3212" stroke="#A9ACB7" stroke-width="0.786435" stroke-linecap="round" stroke-linejoin="round"/>
<path d="M80.5278 83.6606C89.244 90.1279 93.5522 102.303 90.3735 112.748C87.5947 121.894 80.1979 128.731 73.5807 135.618C70.2122 139.127 66.7737 143.225 66.7037 148.083C66.6337 152.321 69.1526 156.13 71.7715 159.448C77.0792 166.165 83.2666 172.173 90.1237 177.291" stroke="#A9ACB7" stroke-width="0.786435" stroke-linecap="round" stroke-linejoin="round" stroke-dasharray="4.69 4.69"/>
<path d="M91.0929 178.01C91.4228 178.25 91.7426 178.48 92.0725 178.71" stroke="#A9ACB7" stroke-width="0.786435" stroke-linecap="round" stroke-linejoin="round"/>
<path d="M108.585 170.704H23.7117C18.5439 170.704 14.3557 174.892 14.3557 180.06V181.859H108.585V170.704Z" fill="#0C0C0E" stroke="#A9ACB7" stroke-width="0.786435" stroke-miterlimit="10" stroke-linecap="round" stroke-linejoin="round"/>
<path d="M108.585 181.859H14.3557V192.844H108.585V181.859Z" fill="#DACAFF"/>
<path d="M108.585 192.844H14.3557V230.688H108.585V192.844Z" fill="#0C0C0E" stroke="#A9ACB7" stroke-width="0.786435" stroke-miterlimit="10" stroke-linecap="round" stroke-linejoin="round"/>
<path d="M33.1277 219.953H22.6422V225.41H33.1277V219.953Z" fill="#0C0C0E" stroke="#A9ACB7" stroke-width="0.786435" stroke-miterlimit="10" stroke-linecap="round" stroke-linejoin="round"/>
<path d="M46.4119 219.953H35.9264V225.41H46.4119V219.953Z" fill="#0C0C0E" stroke="#A9ACB7" stroke-width="0.786435" stroke-miterlimit="10" stroke-linecap="round" stroke-linejoin="round"/>
<path d="M59.7063 219.953H49.2208V225.41H59.7063V219.953Z" fill="#0C0C0E" stroke="#A9ACB7" stroke-width="0.786435" stroke-miterlimit="10" stroke-linecap="round" stroke-linejoin="round"/>
<path d="M57.2174 224.101C53.3091 213.825 55.1483 202.33 62.0653 194.313C70.2818 184.797 84.3258 181.729 96.5306 187.036C97.3102 183.188 98.9695 177.451 102.938 171.793C121.1 145.924 174.357 140.686 202.685 166.425C207.583 170.873 217.019 181.049 221.387 200.021C230.673 188.246 247.716 188.056 256.192 197.072C264.299 205.698 263.619 221.722 252.474 230.668C188.051 230.668 123.629 230.668 59.2066 230.668C58.5468 228.489 57.8771 226.3 57.2174 224.101Z" fill="#0C0C0E" stroke="#A9ACB7" stroke-width="0.786435" stroke-miterlimit="10" stroke-linecap="round" stroke-linejoin="round"/>
<path d="M176.146 149.373H103.578V160.468H176.146V149.373Z" fill="#0C0C0E" stroke="#A9ACB7" stroke-width="0.786435" stroke-miterlimit="10" stroke-linecap="round" stroke-linejoin="round"/>
<path d="M176.146 160.468H103.578V219.243H176.146V160.468Z" fill="#0C0C0E" stroke="#A9ACB7" stroke-width="0.786435" stroke-miterlimit="10" stroke-linecap="round" stroke-linejoin="round"/>
<path d="M176.146 219.232H103.578V221.102H176.146V219.232Z" fill="#0C0C0E" stroke="#A9ACB7" stroke-width="0.786435" stroke-miterlimit="10" stroke-linecap="round" stroke-linejoin="round"/>
<path d="M176.146 221.102H103.578V230.667H176.146V221.102Z" fill="#0C0C0E" stroke="#A9ACB7" stroke-width="0.786435" stroke-miterlimit="10" stroke-linecap="round" stroke-linejoin="round"/>
<path d="M150.138 167.105H130.316V170.923H150.138V167.105Z" fill="#9376EF" stroke="#A9ACB7" stroke-width="0.39312" stroke-miterlimit="10" stroke-linecap="round" stroke-linejoin="round"/>
<path d="M103.577 149.373L96.9403 157.829L97.0603 165.646L103.577 160.688V149.373Z" fill="#9376EF" stroke="#A9ACB7" stroke-width="0.39312" stroke-miterlimit="10" stroke-linecap="round" stroke-linejoin="round"/>
<path d="M103.578 160.688L97.0604 165.645L97.8801 220.342L103.578 219.152V160.688Z" fill="#0C0C0E" stroke="#A9ACB7" stroke-width="0.786435" stroke-miterlimit="10" stroke-linecap="round" stroke-linejoin="round"/>
<path d="M97.88 220.342L97.91 222.471L103.578 221.052V219.152L97.88 220.342Z" fill="#0C0C0E" stroke="#A9ACB7" stroke-width="0.786435" stroke-miterlimit="10" stroke-linecap="round" stroke-linejoin="round"/>
<path d="M97.91 222.471L98.03 230.678H103.578V221.052L97.91 222.471Z" fill="#9376EF" stroke="#A9ACB7" stroke-width="0.39312" stroke-miterlimit="10" stroke-linecap="round" stroke-linejoin="round"/>
<path d="M1.06152 230.678H287.939" stroke="#A9ACB7" stroke-width="1.17955" stroke-miterlimit="10" stroke-linecap="round" stroke-linejoin="round"/>
<path d="M239.449 45.7869C247.636 45.7869 254.273 39.1502 254.273 30.9633C254.273 22.7764 247.636 16.1396 239.449 16.1396C231.262 16.1396 224.626 22.7764 224.626 30.9633C224.626 39.1502 231.262 45.7869 239.449 45.7869Z" fill="#0C0C0E" stroke="#A9ACB7" stroke-width="0.786435" stroke-miterlimit="10" stroke-linecap="round" stroke-linejoin="round"/>
<path d="M241.628 27.9448C242.658 27.345 243.358 26.2255 243.358 24.946C243.358 23.0269 241.798 21.4775 239.889 21.4775C237.97 21.4775 236.421 23.0369 236.421 24.946C236.421 26.2255 237.11 27.345 238.15 27.9448C235.111 28.7244 232.862 31.4832 232.862 34.7618V38.1604H246.946V34.7618C246.926 31.4733 244.667 28.7144 241.628 27.9448Z" fill="#DACAFF"/>
<path d="M151.417 69.7065C151.417 69.7065 163.662 97.2747 169.789 97.0848C175.916 96.8949 153.766 105.091 153.766 105.091L151.417 86.0795V69.7065Z" fill="#DACAFF" stroke="#A9ACB7" stroke-width="0.786435" stroke-miterlimit="10" stroke-linecap="round" stroke-linejoin="round"/>
<path d="M115.992 109.06C115.992 109.06 108.485 90.3477 115.992 77.5232C123.499 64.6987 133.135 60.1507 133.135 60.1507C133.135 60.1507 144.05 58.0616 148.868 63.6092C153.686 69.1568 162.052 87.9788 154.865 111.629C138.592 117.546 115.992 109.06 115.992 109.06ZM114.973 102.962C114.973 102.962 124.359 95.3356 134.374 95.3356Z" fill="#DACAFF"/>
<path d="M114.973 102.962C114.973 102.962 124.359 95.3356 134.374 95.3356M115.992 109.06C115.992 109.06 108.485 90.3477 115.992 77.5232C123.499 64.6987 133.135 60.1507 133.135 60.1507C133.135 60.1507 144.05 58.0616 148.868 63.6092C153.686 69.1568 162.052 87.9788 154.865 111.629C138.592 117.546 115.992 109.06 115.992 109.06Z" stroke="#0C0C0E" stroke-width="0.786435" stroke-miterlimit="10" stroke-linecap="round" stroke-linejoin="round"/>
<path d="M186.042 108.58C177.446 117.376 177.246 133.819 177.246 133.819L190.1 143.755C190.1 143.755 194.099 134.179 200.986 122.764C207.443 112.058 218.448 94.1261 200.986 91.9471C183.523 89.768 152.836 108.04 152.836 108.04C152.836 108.04 138.982 124.293 139.252 124.363C139.522 124.433 164.221 128.501 164.221 128.501C164.221 128.501 177.086 120.375 180.005 118.876" fill="#9376EF"/>
<path d="M186.042 108.58C177.446 117.376 177.246 133.819 177.246 133.819L190.1 143.755C190.1 143.755 194.099 134.179 200.986 122.764C207.443 112.058 218.448 94.1261 200.986 91.9471C183.523 89.768 152.836 108.04 152.836 108.04C152.836 108.04 138.982 124.293 139.252 124.363C139.522 124.433 164.221 128.501 164.221 128.501C164.221 128.501 177.086 120.375 180.005 118.876" stroke="#0C0C0E" stroke-width="0.786435" stroke-miterlimit="10" stroke-linecap="round" stroke-linejoin="round"/>
<path d="M192.869 207.548C193.659 207.458 194.249 207.028 194.738 206.438C194.588 206.298 194.478 206.188 194.428 206.118C193.709 205.099 192.879 203.799 192.879 203.799L184.963 205.709C184.963 205.709 184.943 206.608 185.023 207.848C187.382 208.997 190.43 207.898 192.869 207.548Z" fill="#9376EF" stroke="#A9ACB7" stroke-width="0.39312" stroke-miterlimit="10" stroke-linecap="round" stroke-linejoin="round"/>
<path d="M208.303 217.853C206.743 215.614 196.737 208.287 194.748 206.448C194.259 207.038 193.659 207.468 192.879 207.558C190.44 207.908 187.391 209.007 185.042 207.858C185.182 210.127 185.652 213.555 187.122 214.905C189.391 216.994 199.216 221.412 202.995 221.452C206.753 221.492 209.982 220.262 208.303 217.853Z" fill="#DACAFF" stroke="#0C0C0E" stroke-width="0.786435" stroke-miterlimit="10" stroke-linecap="round" stroke-linejoin="round"/>
<path d="M120.77 113.728C120.77 113.728 116.402 116.637 115.792 125.703C115.183 134.779 116.462 149.733 135.164 150.372C153.866 151.012 163.872 150.732 165.241 149.103C165.881 154.191 181.524 203.12 183.973 205.669C186.432 208.218 195.068 206.758 195.158 202.39C195.248 198.022 194.519 154.101 193.519 147.913C192.52 141.726 190.97 127.362 151.227 122.454M135.714 127.762C135.714 127.762 137.203 131.31 135.164 134.949Z" fill="#9376EF"/>
<path d="M120.77 113.728C120.77 113.728 116.402 116.637 115.792 125.703C115.183 134.779 116.462 149.733 135.164 150.372C153.866 151.012 163.872 150.732 165.241 149.103C165.881 154.191 181.524 203.12 183.973 205.669C186.432 208.218 195.068 206.758 195.158 202.39C195.248 198.022 194.519 154.101 193.519 147.913C192.52 141.726 190.97 127.362 151.227 122.454M135.714 127.762C135.714 127.762 137.203 131.31 135.164 134.949" stroke="#0C0C0E" stroke-width="0.786435" stroke-miterlimit="10" stroke-linecap="round" stroke-linejoin="round"/>
<path d="M126.877 128.212C126.877 128.212 124.998 140.717 149.858 138.987C174.717 137.258 180.324 142.836 181.184 157.499C182.044 172.173 187.861 204.499 187.861 204.499" stroke="#0C0C0E" stroke-width="0.786435" stroke-miterlimit="10" stroke-linecap="round" stroke-linejoin="round" stroke-dasharray="4.72 4.72"/>
<path d="M118.971 117.006C118.971 117.006 123.859 122.974 130.896 123.763C137.933 124.553 145.739 124.153 153.766 117.756C157.454 114.427 156.045 113.488 156.045 113.488H119.84L118.561 116.247L118.971 117.006ZM180.824 102.752C180.824 102.752 198.287 89.5181 200.916 87.8188C203.545 86.1096 201.905 84.5103 201.905 84.5103C201.905 84.5103 195.208 77.4433 192.529 75.1643C189.85 72.8952 188.231 74.5545 188.231 74.5545L166.81 90.7876C166.81 90.7876 165.681 91.7672 167.12 93.3965C168.56 95.0258 177.806 103.652 177.806 103.652C177.806 103.652 178.645 104.772 180.824 102.752Z" fill="#9376EF" stroke="#0C0C0E" stroke-width="0.39312" stroke-miterlimit="10" stroke-linecap="round" stroke-linejoin="round"/>
<path d="M181.314 100.853C181.314 100.853 196.368 89.4482 198.627 87.9789C200.886 86.5095 199.476 85.1301 199.476 85.1301C199.476 85.1301 193.709 79.0327 191.39 77.0736C189.081 75.1144 187.681 76.5438 187.681 76.5438L169.219 90.5378C169.219 90.5378 168.25 91.3774 169.489 92.7868C170.729 94.1962 178.705 101.623 178.705 101.623C178.705 101.623 179.435 102.593 181.314 100.853Z" fill="#DACAFF" stroke="#0C0C0E" stroke-width="0.786435" stroke-miterlimit="10" stroke-linecap="round" stroke-linejoin="round"/>
<path d="M134.414 88.0787L135.164 97.1748C135.164 97.1748 143.69 111.179 161.143 99.7237C173.148 91.1274 180.105 83.6306 187.062 83.2207C194.019 82.8109 191.77 84.93 187.671 85.8796C183.583 86.8392 184.803 89.0882 184.943 90.2477C185.083 91.4072 184.673 95.2256 178.875 95.6354C173.078 96.0453 172.738 99.6637 169.259 103.272C165.781 106.891 153.326 121.914 137.043 122.734C120.76 123.553 116.582 110.719 115.992 109.07C115.992 109.07 122.06 100.883 133.655 97.7445L135.164 97.1748M201.635 87.259C201.635 87.259 202.305 88.6984 204.844 86.1295C207.393 83.5606 205.774 80.4919 203.755 77.8531C201.735 75.2142 199.207 74.9443 199.207 74.9443C199.207 74.9443 193.299 76.7635 194.119 79.5123C194.938 82.2612 197.687 84.4702 200.346 83.9204C201.765 83.0808 202.345 84.8401 202.505 85.1599C202.505 85.1599 202.925 86.3094 201.635 87.259ZM145.11 56.5022C152.397 60.9903 154.876 56.2923 156.745 52.7438C158.614 49.1953 157.674 43.7177 157.674 43.7177C157.065 41.2587 154.266 38.0601 147.239 39.7594C140.212 41.4686 138.952 52.7138 138.952 52.7138L133.225 61.0003C133.225 61.0003 133.095 63.7391 137.463 64.2389C141.831 64.7387 143.89 63.5292 144.55 62.2797C145.959 59.321 146.739 57.5917 146.739 57.5917" fill="#DACAFF"/>
<path d="M134.414 88.0787L135.164 97.1748M135.164 97.1748C135.164 97.1748 143.69 111.179 161.143 99.7237C173.148 91.1274 180.105 83.6306 187.062 83.2207C194.019 82.8109 191.77 84.93 187.671 85.8796C183.583 86.8392 184.803 89.0882 184.943 90.2477C185.083 91.4072 184.673 95.2256 178.875 95.6354C173.078 96.0453 172.738 99.6637 169.259 103.272C165.781 106.891 153.326 121.914 137.043 122.734C120.76 123.553 116.582 110.719 115.992 109.07C115.992 109.07 122.06 100.883 133.655 97.7445L135.164 97.1748ZM145.11 56.5022C152.397 60.9903 154.876 56.2923 156.745 52.7438C158.614 49.1953 157.674 43.7177 157.674 43.7177C157.065 41.2587 154.266 38.0601 147.239 39.7594C140.212 41.4686 138.952 52.7138 138.952 52.7138L133.225 61.0003C133.225 61.0003 133.095 63.7391 137.463 64.2389C141.831 64.7387 143.89 63.5292 144.55 62.2797C145.959 59.321 146.739 57.5917 146.739 57.5917M201.635 87.259C201.635 87.259 202.305 88.6984 204.844 86.1295C207.393 83.5606 205.774 80.4919 203.755 77.8531C201.735 75.2142 199.207 74.9443 199.207 74.9443C199.207 74.9443 193.299 76.7635 194.119 79.5123C194.938 82.2612 197.687 84.4702 200.346 83.9204C201.765 83.0808 202.345 84.8401 202.505 85.1599C202.505 85.1599 202.925 86.3094 201.635 87.259Z" stroke="#0C0C0E" stroke-width="0.786435" stroke-miterlimit="10" stroke-linecap="round" stroke-linejoin="round"/>
<path d="M145.15 56.6123L146.419 58.0517L146.599 57.5219L145.15 56.6123Z" fill="#9376EF" stroke="#0C0C0E" stroke-width="0.39312" stroke-miterlimit="10" stroke-linecap="round" stroke-linejoin="round"/>
<path d="M144.4 50.405C144.4 50.405 143.96 53.7136 141.701 53.7436C139.442 53.7736 135.834 50.2351 136.214 46.9565C136.593 43.6779 139.382 37.5106 144.88 35.0216C150.367 32.5327 156.815 35.9812 159.204 36.8608C161.593 37.7405 163.742 37.2407 164.521 36.7609C165.301 36.2811 164.961 38.81 163.772 39.8596C162.582 40.9191 160.493 44.0578 153.406 42.2485C152.247 41.9087 149.588 43.548 149.588 44.3676C149.588 45.1873 148.528 45.3872 148.528 45.3872C148.528 45.3872 146.649 41.3289 144.91 42.9982C143.171 44.6675 145.689 48.0161 146.309 48.6558C146.929 49.2955 144.4 50.405 144.4 50.405Z" fill="#9376EF" stroke="#0C0C0E" stroke-width="0.39312" stroke-miterlimit="10" stroke-linecap="round" stroke-linejoin="round"/>
<path d="M51.0001 15.3599H48.3612V17.9987H51.0001V15.3599Z" fill="#9376EF" stroke="#A9ACB7" stroke-width="0.39312" stroke-miterlimit="10" stroke-linecap="round" stroke-linejoin="round"/>
<path d="M51.0001 56.1626H48.3612V58.8015H51.0001V56.1626Z" fill="#9376EF" stroke="#A9ACB7" stroke-width="0.39312" stroke-miterlimit="10" stroke-linecap="round" stroke-linejoin="round"/>
<path d="M110.954 15.3599H108.315V17.9987H110.954V15.3599Z" fill="#9376EF" stroke="#A9ACB7" stroke-width="0.39312" stroke-miterlimit="10" stroke-linecap="round" stroke-linejoin="round"/>
<path d="M110.954 56.1626H108.315V58.8015H110.954V56.1626Z" fill="#9376EF" stroke="#A9ACB7" stroke-width="0.39312" stroke-miterlimit="10" stroke-linecap="round" stroke-linejoin="round"/>
<path d="M34.1273 142.475C42.7007 142.475 49.6507 135.525 49.6507 126.952C49.6507 118.379 42.7007 111.429 34.1273 111.429C25.554 111.429 18.604 118.379 18.604 126.952C18.604 135.525 25.554 142.475 34.1273 142.475Z" fill="#0C0C0E" stroke="#A9ACB7" stroke-width="0.786435" stroke-miterlimit="10" stroke-linecap="round" stroke-linejoin="round"/>
<path d="M34.1275 140.776C41.7624 140.776 47.9516 134.587 47.9516 126.952C47.9516 119.317 41.7624 113.128 34.1275 113.128C26.4927 113.128 20.3035 119.317 20.3035 126.952C20.3035 134.587 26.4927 140.776 34.1275 140.776Z" fill="#0C0C0E" stroke="#A9ACB7" stroke-width="0.786435" stroke-miterlimit="10" stroke-linecap="round" stroke-linejoin="round"/>
<path d="M30.9189 118.925V134.968L39.6352 126.952L30.9189 118.925Z" fill="#9376EF" stroke="#A9ACB7" stroke-width="0.39312" stroke-miterlimit="10" stroke-linecap="round" stroke-linejoin="round"/>
<path d="M246.926 105.271C253.032 105.271 257.981 100.322 257.981 94.2159C257.981 88.1103 253.032 83.1606 246.926 83.1606C240.82 83.1606 235.871 88.1103 235.871 94.2159C235.871 100.322 240.82 105.271 246.926 105.271Z" fill="#0C0C0E" stroke="#A9ACB7" stroke-width="0.786435" stroke-miterlimit="10" stroke-linecap="round" stroke-linejoin="round"/>
<path d="M246.926 104.072C252.369 104.072 256.782 99.6593 256.782 94.2161C256.782 88.7729 252.369 84.3604 246.926 84.3604C241.483 84.3604 237.07 88.7729 237.07 94.2161C237.07 99.6593 241.483 104.072 246.926 104.072Z" fill="#0C0C0E" stroke="#A9ACB7" stroke-width="0.786435" stroke-miterlimit="10" stroke-linecap="round" stroke-linejoin="round"/>
<path d="M244.417 99.6237L244.867 96.2451H243.458V95.2255H245.027L245.357 92.7266H243.877V91.7071H245.517L245.967 88.4185H246.966L246.536 91.7071H248.325L248.775 88.4185H249.795L249.365 91.7071H250.774V92.7266H249.205L248.895 95.2255H250.375V96.2451H248.735L248.286 99.6237H247.256L247.706 96.2451H245.917L245.467 99.6237H244.417ZM247.846 95.2255L248.176 92.7266H246.386L246.056 95.2255H247.846Z" fill="#A9ACB7"/>
<path d="M196.538 209.037L194.339 212.106L198.837 210.956L198.257 214.355L201.516 213.205L200.946 215.025" stroke="#1A1A1A" stroke-width="1.17955" stroke-miterlimit="10" stroke-linecap="round" stroke-linejoin="round"/>
<path d="M29.0394 36.3608H11.5769V53.8234H29.0394V36.3608Z" fill="#0C0C0E" stroke="#A9ACB7" stroke-width="0.786435" stroke-miterlimit="10" stroke-linecap="round" stroke-linejoin="round"/>
<path d="M20.3031 39.3394V50.8344" stroke="#A9ACB7" stroke-width="0.786435" stroke-miterlimit="10" stroke-linecap="round" stroke-linejoin="round"/>
<path d="M14.5756 45.0869H25.8907" stroke="#A9ACB7" stroke-width="0.786435" stroke-miterlimit="10" stroke-linecap="round" stroke-linejoin="round"/>
<path d="M239.26 58.8813C240.513 58.8813 241.529 57.8654 241.529 56.6123C241.529 55.3591 240.513 54.3433 239.26 54.3433C238.006 54.3433 236.99 55.3591 236.99 56.6123C236.99 57.8654 238.006 58.8813 239.26 58.8813Z" fill="#0C0C0E" stroke="#A9ACB7" stroke-width="0.786435" stroke-miterlimit="10" stroke-linecap="round" stroke-linejoin="round"/>
<path d="M244.027 136.288H217.689V153.371H244.027V136.288Z" fill="#0C0C0E" stroke="#A9ACB7" stroke-width="0.786435" stroke-miterlimit="10" stroke-linecap="round" stroke-linejoin="round"/>
<path d="M230.853 144.585L217.689 136.288H244.027L230.853 144.585Z" fill="#0C0C0E" stroke="#A9ACB7" stroke-width="0.786435" stroke-miterlimit="10" stroke-linecap="round" stroke-linejoin="round"/>
<path d="M217.689 153.371L227.494 142.476" stroke="#A9ACB7" stroke-width="0.786435" stroke-miterlimit="10" stroke-linecap="round" stroke-linejoin="round"/>
<path d="M234.581 142.476L244.027 153.371" stroke="#A9ACB7" stroke-width="0.786435" stroke-miterlimit="10" stroke-linecap="round" stroke-linejoin="round"/>
</g>
<defs>
<clipPath id="clip0_209_20424">
<rect width="289" height="231.925" fill="white" transform="translate(0 0.0375977)"/>
</clipPath>
</defs>
</svg>
