<svg width="253" height="239" viewBox="0 0 253 239" fill="none" xmlns="http://www.w3.org/2000/svg">
<g clip-path="url(#clip0_200_14769)">
<path d="M104.71 211.153H238.695C238.695 211.153 227.713 231.733 166.304 230.217C104.895 228.7 111.196 219.004 111.196 219.004C111.196 219.004 85.3721 218.671 81.9124 215.849C78.4527 213.027 53.558 219.963 40.9227 216.621C28.2874 213.279 40.9227 211.241 40.9227 211.241L104.71 211.153Z" fill="#0C0C0E" stroke="#A9ACB7" stroke-width="0.787825" stroke-linecap="round" stroke-linejoin="round"/>
<path d="M23.1926 211.241H239.079C249.933 186.924 236.613 162.195 220.183 157.958C205.303 154.12 184.324 166.177 178.612 188.952C175.895 186.342 168.52 179.992 157.59 179.015C144.064 177.806 130.553 185.312 122.632 198.18C120.418 196.065 97.6268 175.041 65.9447 181.145C38.7143 186.391 25.3051 207.748 23.1926 211.241Z" stroke="#A9ACB7" stroke-width="0.787825" stroke-linecap="round" stroke-linejoin="round"/>
<path d="M231.43 150.333C234.775 150.333 237.487 147.617 237.487 144.266C237.487 140.916 234.775 138.199 231.43 138.199C228.085 138.199 225.373 140.916 225.373 144.266C225.373 147.617 228.085 150.333 231.43 150.333Z" fill="#0C0C0E" stroke="#A9ACB7" stroke-width="0.787825" stroke-linecap="round" stroke-linejoin="round"/>
<path d="M210.43 34.4904C210.43 32.999 210.136 31.5222 209.566 30.1443C208.997 28.7664 208.162 27.5145 207.109 26.4599C206.056 25.4053 204.806 24.5688 203.431 23.998C202.055 23.4273 200.581 23.1335 199.092 23.1335H63.3561C61.8672 23.1335 60.393 23.4273 59.0174 23.998C57.6419 24.5688 56.392 25.4053 55.3392 26.4599C54.2865 27.5145 53.4513 28.7664 52.8816 30.1443C52.3118 31.5222 52.0186 32.999 52.0186 34.4904V35.1213H210.43V34.4904Z" fill="#DACAFF" stroke="#0C0C0E" stroke-width="0.787825" stroke-linecap="round" stroke-linejoin="round"/>
<path d="M52.4125 114.304V35.5155H210.036V114.304C210.036 115.744 209.753 117.169 209.202 118.5C208.652 119.83 207.846 121.038 206.83 122.056C205.814 123.074 204.607 123.882 203.28 124.433C201.952 124.983 200.529 125.267 199.092 125.267H63.3561C61.9191 125.267 60.4961 124.983 59.1684 124.433C57.8407 123.882 56.6343 123.074 55.618 122.056C54.6018 121.038 53.7956 119.83 53.2456 118.5C52.6956 117.169 52.4125 115.744 52.4125 114.304Z" fill="#0C0C0E" stroke="#A9ACB7" stroke-width="0.787825" stroke-linecap="round" stroke-linejoin="round"/>
<path d="M227.153 59.4363H203.363C202.744 59.4363 202.241 59.9396 202.241 60.5604V70.2999C202.241 70.9207 202.744 71.424 203.363 71.424H227.153C227.773 71.424 228.276 70.9207 228.276 70.2999V60.5604C228.276 59.9396 227.773 59.4363 227.153 59.4363Z" fill="#0C0C0E" stroke="#A9ACB7" stroke-width="0.787825" stroke-linecap="round" stroke-linejoin="round"/>
<path d="M227.153 74.8694H203.363C202.744 74.8694 202.241 75.3727 202.241 75.9935V85.733C202.241 86.3538 202.744 86.8571 203.363 86.8571H227.153C227.773 86.8571 228.276 86.3538 228.276 85.733V75.9935C228.276 75.3727 227.773 74.8694 227.153 74.8694Z" fill="#DACAFF" stroke="#0C0C0E" stroke-width="0.787825" stroke-linecap="round" stroke-linejoin="round"/>
<path d="M151.432 72.1887C151.432 72.1887 150.333 72.5221 149.726 72.3465L151.432 72.1887Z" fill="white"/>
<path d="M151.432 72.1887C151.432 72.1887 150.333 72.5221 149.726 72.3465" stroke="#1A1A1A" stroke-width="0.787825" stroke-linecap="round" stroke-linejoin="round"/>
<path d="M64.6158 75.9749C64.6158 75.9749 64.7135 76.3367 64.9263 76.9919" stroke="#1A1A1A" stroke-width="0.787825" stroke-linecap="round" stroke-linejoin="round"/>
<path d="M65.6345 79.0044C68.5677 86.8028 78.3775 107.424 101.935 114.146C121.405 119.701 133.123 117.859 137.546 116.691" stroke="#A9ACB7" stroke-width="0.787825" stroke-linecap="round" stroke-linejoin="round" stroke-dasharray="4.74 4.74"/>
<path d="M138.57 116.395C139.238 116.184 139.57 116.039 139.57 116.039" stroke="#1A1A1A" stroke-width="0.787825" stroke-linecap="round" stroke-linejoin="round"/>
<path d="M70.2845 38.3418V123.519" stroke="#A9ACB7" stroke-width="0.787825" stroke-linecap="round" stroke-linejoin="round" stroke-dasharray="4.79 4.79"/>
<path d="M70.2845 124.597V125.661" stroke="#1A1A1A" stroke-width="0.787825" stroke-linecap="round" stroke-linejoin="round"/>
<path d="M55.2217 43.8218H208.297" stroke="#A9ACB7" stroke-width="0.787825" stroke-linecap="round" stroke-linejoin="round" stroke-dasharray="4.76 4.76"/>
<path d="M209.367 44.8218H210.429" stroke="#1A1A1A" stroke-width="0.787825" stroke-linecap="round" stroke-linejoin="round"/>
<path d="M44.5453 121.735L49.2777 127.907L60.1118 119.571L55.5409 113.275L44.5453 121.735Z" fill="#0C0C0E" stroke="#A9ACB7" stroke-width="0.3" stroke-linecap="round" stroke-linejoin="round"/>
<path d="M68.2315 120.086L79.6319 111.314L79.2104 101.429L71.6341 107.259C71.8712 107.983 71.8473 108.768 71.5666 109.477C71.2858 110.186 70.7659 110.773 70.0973 111.138C69.4287 111.502 68.6537 111.62 67.9072 111.472C67.1606 111.323 66.4898 110.917 66.0112 110.324C65.5327 109.731 65.2768 108.989 65.288 108.226C65.2993 107.464 65.577 106.73 66.0728 106.151C66.5686 105.573 67.2512 105.187 68.0018 105.06C68.7524 104.933 69.5235 105.074 70.1811 105.459L77.803 99.594L68.3775 96.6375L56.977 105.409L55.9929 112.927L55.5409 113.275L60.1118 119.57L60.7253 119.098L68.2315 120.086Z" fill="#0C0C0E" stroke="#A9ACB7" stroke-width="0.3" stroke-linecap="round" stroke-linejoin="round"/>
<path d="M44.5452 121.736L40.0905 125.164L44.8229 131.335L49.2776 127.907L44.5452 121.736Z" fill="white"/>
<path d="M40.0906 125.163L27.3746 134.948L32.107 141.119L44.823 131.335L40.0906 125.163Z" fill="#0C0C0E" stroke="#A9ACB7" stroke-width="0.787825" stroke-linecap="round" stroke-linejoin="round"/>
<path d="M44.5453 121.735L49.2777 127.907L60.1118 119.571L55.5409 113.275L44.5453 121.735Z" stroke="white" stroke-width="0.393912" stroke-miterlimit="10"/>
<path d="M68.2315 120.086L79.6319 111.314L79.2104 101.429L71.6341 107.259C71.8712 107.983 71.8473 108.768 71.5666 109.477C71.2858 110.186 70.7659 110.773 70.0973 111.138C69.4287 111.502 68.6537 111.62 67.9072 111.472C67.1606 111.323 66.4898 110.917 66.0112 110.324C65.5327 109.731 65.2768 108.989 65.288 108.226C65.2993 107.464 65.577 106.73 66.0728 106.151C66.5686 105.573 67.2512 105.187 68.0018 105.06C68.7524 104.933 69.5235 105.074 70.1811 105.459L77.803 99.594L68.3775 96.6375L56.977 105.409L55.9929 112.927L55.5409 113.275L60.1118 119.57L60.7253 119.098L68.2315 120.086Z" stroke="white" stroke-width="0.393912" stroke-miterlimit="10"/>
<path d="M44.5452 121.736L40.0905 125.164L44.8229 131.335L49.2776 127.907L44.5452 121.736Z" fill="#DACAFF" stroke="#0C0C0E" stroke-width="0.787825" stroke-linecap="round" stroke-linejoin="round"/>
<path d="M40.0906 125.163L27.3746 134.948L32.107 141.119L44.823 131.335L40.0906 125.163Z" stroke="white" stroke-width="0.393912" stroke-miterlimit="10"/>
<path d="M44.5453 121.735L49.2777 127.907L60.1118 119.571L55.5409 113.275L44.5453 121.735Z" fill="#0C0C0E" stroke="#A9ACB7" stroke-width="0.787825" stroke-linecap="round" stroke-linejoin="round"/>
<path d="M68.2315 120.086L79.6319 111.314L79.2104 101.429L71.6341 107.259C71.8712 107.983 71.8473 108.768 71.5666 109.477C71.2858 110.186 70.7659 110.773 70.0973 111.138C69.4287 111.502 68.6537 111.62 67.9072 111.472C67.1606 111.323 66.4898 110.917 66.0112 110.324C65.5327 109.731 65.2768 108.989 65.288 108.226C65.2993 107.464 65.577 106.73 66.0728 106.151C66.5686 105.573 67.2512 105.187 68.0018 105.06C68.7524 104.933 69.5235 105.074 70.1811 105.459L77.803 99.594L68.3775 96.6375L56.977 105.409L55.9929 112.927L55.5409 113.275L60.1118 119.57L60.7253 119.098L68.2315 120.086Z" fill="#0C0C0E" stroke="#A9ACB7" stroke-width="0.787825" stroke-linecap="round" stroke-linejoin="round"/>
<path d="M44.5452 121.736L40.0905 125.164L44.8229 131.335L49.2776 127.907L44.5452 121.736Z" stroke="#A9ACB7" stroke-width="0.787825" stroke-linecap="round" stroke-linejoin="round"/>
<path d="M40.0906 125.163L27.3746 134.948L32.107 141.119L44.823 131.335L40.0906 125.163Z" stroke="#A9ACB7" stroke-width="0.787825" stroke-linecap="round" stroke-linejoin="round"/>
<path d="M45.8775 61.6997V56.8097H40.8412C40.6443 56.0952 40.3602 55.4078 39.9952 54.763L43.5559 51.1962L40.1034 47.7378L36.5427 51.3047C35.899 50.9391 35.2127 50.6544 34.4995 50.4572V45.4146H29.62V50.4572C28.9067 50.6544 28.2204 50.9391 27.5768 51.3047L24.016 47.7378L20.5635 51.1962L24.1242 54.763C23.7593 55.4078 23.4751 56.0952 23.2782 56.8097H18.2419V61.6997H23.2782C23.4751 62.4142 23.7593 63.1016 24.1242 63.7464L20.5635 67.3132L24.016 70.7716L27.5768 67.2048C28.2204 67.5704 28.9067 67.855 29.62 68.0522V73.0949H34.4995V68.0522C35.2127 67.855 35.899 67.5704 36.5427 67.2048L40.1034 70.7716L43.5559 67.3132L39.9952 63.7464C40.3602 63.1016 40.6443 62.4142 40.8412 61.6997H45.8775ZM36.2864 61.6997C35.8579 62.4431 35.2416 63.0605 34.4995 63.4897C34.1306 63.7048 33.7347 63.8693 33.3221 63.9788C32.4943 64.2 31.623 64.2 30.7951 63.9788C30.3833 63.8693 29.988 63.7048 29.62 63.4897C28.4995 62.8397 27.6809 61.7724 27.3426 60.5204C27.234 60.1073 27.179 59.6819 27.1792 59.2547C27.1787 58.8274 27.2344 58.4019 27.3448 57.9891C27.4541 57.5758 27.6183 57.1792 27.833 56.8097C28.2621 56.0668 28.8783 55.4496 29.62 55.0197C29.988 54.8046 30.3833 54.6402 30.7951 54.5307C31.623 54.3094 32.4943 54.3094 33.3221 54.5307C33.7347 54.6401 34.1306 54.8046 34.4995 55.0197C35.2411 55.4496 35.8573 56.0668 36.2864 56.8097C36.5012 57.1792 36.6654 57.5758 36.7746 57.9891C36.8851 58.4018 36.9408 58.8274 36.9403 59.2547C36.9404 59.6819 36.8855 60.1073 36.7768 60.5203C36.6658 60.9334 36.501 61.3299 36.2864 61.6997Z" fill="#DACAFF" stroke="#0C0C0E" stroke-width="0.79" stroke-linecap="round" stroke-linejoin="round"/>
<path d="M70.4946 32.2298C72.2049 32.2298 73.5914 30.8409 73.5914 29.1277C73.5914 27.4145 72.2049 26.0256 70.4946 26.0256C68.7843 26.0256 67.3978 27.4145 67.3978 29.1277C67.3978 30.8409 68.7843 32.2298 70.4946 32.2298Z" fill="#9376EF" stroke="#0C0C0E" stroke-width="0.787825" stroke-linecap="round" stroke-linejoin="round"/>
<path d="M103.186 27.3401H79.1117C78.7298 27.3401 78.4203 27.6501 78.4203 28.0326V30.7486C78.4203 31.1311 78.7298 31.4412 79.1117 31.4412H103.186C103.568 31.4412 103.877 31.1311 103.877 30.7486V28.0326C103.877 27.6501 103.568 27.3401 103.186 27.3401Z" fill="#9376EF" stroke="#0C0C0E" stroke-width="0.787825" stroke-linecap="round" stroke-linejoin="round"/>
<path d="M76.8982 45.9919V64.3278C76.8982 65.2832 77.2771 66.1994 77.9515 66.875C78.6259 67.5506 79.5406 67.9301 80.4944 67.9301H168.726C169.68 67.9301 170.595 67.5506 171.269 66.875C171.944 66.1994 172.323 65.2832 172.323 64.3278V45.9919H76.8982Z" stroke="#A9ACB7" stroke-width="0.787825" stroke-linecap="round" stroke-linejoin="round"/>
<path d="M172.323 44.4026C172.323 43.9295 172.23 43.4611 172.049 43.0241C171.868 42.587 171.603 42.1899 171.269 41.8554C170.935 41.5209 170.539 41.2555 170.103 41.0745C169.666 40.8935 169.199 40.8003 168.726 40.8003H80.4944C80.0221 40.8003 79.5545 40.8935 79.1182 41.0745C78.6819 41.2555 78.2854 41.5209 77.9515 41.8554C77.6176 42.1899 77.3527 42.587 77.1719 43.0241C76.9912 43.4611 76.8982 43.9295 76.8982 44.4026V45.9924H172.323V44.4026Z" stroke="#A9ACB7" stroke-width="0.393912" stroke-linecap="round" stroke-linejoin="round"/>
<path d="M170.609 73.7034H78.6116C77.6653 73.7034 76.8982 74.4718 76.8982 75.4197V87.9808C76.8982 88.9287 77.6653 89.6971 78.6116 89.6971H170.609C171.556 89.6971 172.323 88.9287 172.323 87.9808V75.4197C172.323 74.4718 171.556 73.7034 170.609 73.7034Z" fill="#0C0C0E" stroke="#A9ACB7" stroke-width="0.787825" stroke-linecap="round" stroke-linejoin="round"/>
<path d="M114.885 178.033C112.634 175.931 110.153 173.289 110.68 170.252C111.078 167.961 113.072 166.357 114.48 164.508C116.428 161.951 117.337 158.546 116.602 155.415C115.866 152.285 113.381 149.551 110.254 148.824C107.126 148.096 103.533 149.604 102.11 152.488C100.996 154.747 101.249 157.404 101.019 159.914C100.789 162.424 99.7159 165.241 97.3137 165.991C95.3073 166.617 93.1827 165.542 91.4717 164.32C89.7606 163.097 88.0622 161.639 85.9778 161.371C83.5316 161.057 81.0847 162.579 79.846 164.715C78.6072 166.851 78.4349 169.475 78.8692 171.907C79.3036 174.339 80.298 176.629 81.2844 178.893L74.7986 186.336L72.6702 211.153H94.9543C97.2518 210.113 99.3972 208.748 101.526 207.388C103.286 206.264 105.045 205.139 106.805 204.015C107.995 203.255 109.316 202.283 109.395 200.87C109.556 198.006 104.685 196.898 104.765 194.031C104.798 192.862 105.74 191.88 106.815 191.422C107.889 190.965 109.086 190.921 110.251 190.846C112.036 190.732 113.853 190.521 115.475 189.766C117.098 189.011 118.516 187.625 118.901 185.875C119.563 182.865 117.135 180.135 114.885 178.033Z" fill="#DACAFF" stroke="#0C0C0E" stroke-width="0.787825" stroke-linecap="round" stroke-linejoin="round"/>
<path d="M105.452 164.158C105.452 164.158 103.095 177.881 95.7706 184.632C88.4457 191.384 87.186 200.427 87.5009 204.423C87.8158 208.419 84.1416 211.153 84.1416 211.153M96.9489 198.534C96.9489 198.534 90.375 196.269 87.6782 200.241L96.9489 198.534ZM88.4457 181.065C88.4457 181.065 91.5545 182.577 91.3648 189.977L88.4457 181.065ZM106.187 177.818C106.187 177.818 103.968 181.062 98.4114 181.648L106.187 177.818Z" fill="#DACAFF"/>
<path d="M105.452 164.158C105.452 164.158 103.095 177.881 95.7706 184.632C88.4457 191.384 87.186 200.427 87.5009 204.423C87.8158 208.419 84.1416 211.153 84.1416 211.153M96.9489 198.534C96.9489 198.534 90.375 196.269 87.6782 200.241M88.4457 181.065C88.4457 181.065 91.5545 182.577 91.3648 189.977M106.187 177.818C106.187 177.818 103.968 181.062 98.4114 181.648" stroke="#0C0C0E" stroke-width="0.787825" stroke-linecap="round" stroke-linejoin="round"/>
<path d="M82.603 205.431C84.9156 200.886 82.5905 197.277 78.749 194.771C74.955 191.237 77.8153 188.917 81.1897 186.769C87.2538 181.464 81.219 171.801 73.7972 174.975C71.1303 176.268 68.0335 179.977 64.9231 177.809C63.1359 176.391 63.7259 173.625 63.9169 171.349C64.5108 165.642 60.2156 157.508 53.7184 158.552C50.8245 159.277 49.1753 162.403 46.4831 163.69C38.5282 167.151 32.3575 155.934 24.6029 156.664C9.56914 160.041 14.3386 186.373 35.8708 183.121C37.5911 183.263 39.3908 183.915 40.3522 185.351C43.4777 190.263 35.4807 196.079 38.4692 201.013C41.0745 204.764 46.247 202.828 50.0307 202.75C55.3396 202.586 57.4578 207.229 54.522 211.152H75.1449C78.237 210.1 81.0266 208.411 82.603 205.431Z" fill="#9376EF" stroke="#0C0C0E" stroke-width="0.787825" stroke-linecap="round" stroke-linejoin="round"/>
<path d="M61.5452 211.153L63.1986 207.998C70.442 182.919 32.4927 169.827 32.4927 169.827M66.6628 188.282C66.6628 188.282 67.5327 193.878 63.6073 197.152L66.6628 188.282ZM50.6538 169.827C50.7587 170.09 53.8391 175.264 51.3279 180.09L50.6538 169.827ZM51.0212 187.756C51.0212 187.756 57.6565 186.987 60.0601 189.133L51.0212 187.756ZM34.1723 173.717C34.1723 173.717 37.7884 174.878 41.0455 173.614L34.1723 173.717Z" fill="#9376EF"/>
<path d="M61.5452 211.153L63.1986 207.998C70.442 182.919 32.4927 169.827 32.4927 169.827M66.6628 188.282C66.6628 188.282 67.5327 193.878 63.6073 197.152M50.6538 169.827C50.7587 170.09 53.8391 175.264 51.3279 180.09M51.0212 187.756C51.0212 187.756 57.6565 186.987 60.0601 189.133M34.1723 173.717C34.1723 173.717 37.7884 174.878 41.0455 173.614" stroke="#0C0C0E" stroke-width="0.787825" stroke-linecap="round" stroke-linejoin="round"/>
<path d="M5.56604 211.172H247.434" stroke="#A9ACB7" stroke-width="0.787825" stroke-linecap="round" stroke-linejoin="round"/>
<path d="M91.385 112.272L93.1463 108.383L96.5528 110.029L94.8886 113.857L91.385 112.272Z" fill="#DACAFF" stroke="#0C0C0E" stroke-width="0.787825" stroke-linecap="round" stroke-linejoin="round"/>
<path d="M143.467 213.913C143.555 214.001 143.902 215.088 144.19 216.029C141.358 216.894 138.452 217.048 136.592 214.842C137.715 214.277 138.467 213.913 138.467 213.913C138.467 213.913 143.31 213.755 143.467 213.913Z" stroke="#1A1A1A" stroke-width="0.393912" stroke-linecap="round" stroke-linejoin="round"/>
<path d="M144.975 220.157C145.042 219.515 144.942 218.642 144.609 217.422C144.609 217.422 144.417 216.771 144.19 216.029C141.358 216.894 138.452 217.048 136.592 214.842C133.472 216.41 127.491 219.525 126.854 220.656C126.46 221.356 126.255 222.235 126.388 222.982C132.598 223.543 139.369 222.889 144.975 220.157Z" fill="#DACAFF" stroke="#A9ACB7" stroke-width="0.787825" stroke-linecap="round" stroke-linejoin="round"/>
<path d="M210.536 209.56C209.318 208.309 208.225 207.367 208.225 207.367L201.848 210.482C201.848 210.482 200.915 211.368 199.68 212.546C203.621 213.503 208.153 212.541 210.536 209.56Z" fill="#0C0C0E" stroke="#A9ACB7" stroke-width="0.787825" stroke-linecap="round" stroke-linejoin="round"/>
<path d="M198.542 220.521C196.658 221.06 194.571 221.29 192.589 220.903C192.655 221.135 192.75 221.356 192.872 221.563C193.62 222.865 198.58 221.76 203.54 220.025C208.125 218.422 213.718 216.313 213.668 214.041C209.753 218.134 203.587 218.626 198.542 220.521Z" fill="#0C0C0E" stroke="#A9ACB7" stroke-width="0.787825" stroke-linecap="round" stroke-linejoin="round"/>
<path d="M210.536 209.561C208.153 212.541 203.621 213.503 199.68 212.547C197.565 214.564 194.562 217.439 193.817 218.211C192.848 219.214 192.331 219.952 192.589 220.903C194.571 221.29 196.658 221.06 198.542 220.521C203.587 218.626 209.753 218.134 213.668 214.04C213.663 213.847 213.619 213.656 213.539 213.479C212.999 212.26 211.709 210.767 210.536 209.561Z" fill="#DACAFF" stroke="#A9ACB7" stroke-width="0.787825" stroke-linecap="round" stroke-linejoin="round"/>
<path d="M175.052 151.95C177.047 171.299 199.722 210.364 200.194 210.837C200.667 211.31 207.595 211.784 208.697 208.471C209.8 205.159 202.399 180.237 199.722 171.719C201.611 162.728 202.241 137.964 197.36 128.154C192.478 118.345 185.077 117.143 185.077 117.143L172.323 121.402" fill="#9376EF"/>
<path d="M175.052 151.95C177.047 171.299 199.722 210.364 200.194 210.837C200.667 211.31 207.595 211.784 208.697 208.471C209.8 205.159 202.399 180.237 199.722 171.719C201.611 162.728 202.241 137.964 197.36 128.154C192.478 118.345 185.077 117.143 185.077 117.143L172.323 121.402" stroke="#0C0C0E" stroke-width="0.787825" stroke-linecap="round" stroke-linejoin="round"/>
<path d="M186.267 131.891C186.267 131.891 189.329 137.964 183.188 148.059C175.707 160.357 154.896 165.304 149.07 167.197C150.697 180.447 146.078 210.626 143.664 215.253C141.144 216.936 137.365 214.517 137.365 214.517C137.365 214.517 130.647 180.131 133.796 161.729C136.945 143.327 165.184 126.817 165.184 126.817L178.779 121.402" fill="#9376EF"/>
<path d="M186.267 131.891C186.267 131.891 189.329 137.964 183.188 148.059C175.707 160.357 154.896 165.304 149.07 167.197C150.697 180.447 146.078 210.626 143.664 215.253C141.144 216.936 137.365 214.517 137.365 214.517C137.365 214.517 130.647 180.131 133.796 161.729C136.945 143.327 165.184 126.817 165.184 126.817L178.779 121.402" stroke="#0C0C0E" stroke-width="0.787825" stroke-linecap="round" stroke-linejoin="round"/>
<path d="M157.915 79.6026C157.915 79.6026 155.316 73.9242 155.71 71.3216C156.104 68.719 161.772 65.8009 155.789 60.5168C149.805 55.2328 145.711 61.2266 145.317 63.9081C144.924 66.5896 144.924 71.1639 149.726 72.3469L149.569 81.18" fill="#DACAFF"/>
<path d="M157.915 79.6026C157.915 79.6026 155.316 73.9242 155.71 71.3216C156.104 68.719 161.772 65.8009 155.789 60.5168C149.805 55.2328 145.711 61.2266 145.317 63.9081C144.924 66.5896 144.924 71.1639 149.726 72.3469L149.569 81.18" stroke="#0C0C0E" stroke-width="0.787825" stroke-linecap="round" stroke-linejoin="round"/>
<path d="M151.528 71.988L149.726 72.347L149.712 73.1469L151.528 71.988Z" fill="#9376EF" stroke="#A9ACB7" stroke-width="0.393912" stroke-linecap="round" stroke-linejoin="round"/>
<path d="M179.291 50.7369C179.291 50.7369 175.748 46.0443 171.496 45.8077C167.244 45.5711 166.457 47.5822 167.441 48.7652C168.425 49.9482 170.905 50.3426 171.457 50.3426C172.008 50.3426 169.803 51.4861 170 51.9593C170.197 52.4326 172.047 52.1565 172.992 51.8016C173.937 51.4467 175.787 51.3284 176.259 52.0382C176.732 52.748 179.291 50.7369 179.291 50.7369Z" fill="#DACAFF" stroke="#0C0C0E" stroke-width="0.787825" stroke-linecap="round" stroke-linejoin="round"/>
<path d="M159.174 79.9965C159.174 79.9965 173.74 81.8893 177.519 75.501C181.298 69.1128 179.614 57.6893 175.629 52.9451C174.698 51.9912 175.708 50.9734 176.889 50.5002C178.07 50.027 179.33 49.1595 181.219 51.841C183.109 54.5224 190.825 67.5355 189.293 79.681C187.887 90.8372 182.794 96.5585 175.629 97.4261C168.071 90.0126 159.174 79.9965 159.174 79.9965Z" fill="#DACAFF" stroke="#0C0C0E" stroke-width="0.787825" stroke-linecap="round" stroke-linejoin="round"/>
<path d="M101.148 72.1496C101.148 72.1496 96.6602 66.55 96.5027 64.2629C96.3452 61.9757 96.8176 60.7927 98.2348 60.4378C99.652 60.0829 100.203 62.2912 101.305 62.7644C102.408 63.2376 103.943 61.4631 104.179 62.9221C104.415 64.3812 102.447 67.3387 102.605 68.9555C102.762 70.5722 103.431 71.0454 103.431 71.0454L101.148 72.1496Z" fill="#DACAFF" stroke="#0C0C0E" stroke-width="0.787825" stroke-linecap="round" stroke-linejoin="round"/>
<path d="M152.639 98.3728C118.548 104.84 100.51 72.8839 100.166 72.1616C99.822 71.4393 102.129 69.2575 103.248 69.823C104.366 70.3885 126.185 81.8896 143.664 80.9432C148.782 80.6304 149.293 80.5883 151.143 79.8391C152.994 79.0899 158.229 77.7886 159.686 78.9321C161.143 80.0757 166.969 83.467 174.685 93.2465C182.4 103.026 186.967 116.67 186.18 119.115C185.392 121.56 178.936 128.815 165.709 128.106C156.182 127.317 140.367 110.634 136.903 98.6465" fill="#DACAFF"/>
<path d="M152.639 98.3728C118.548 104.84 100.51 72.8839 100.166 72.1616C99.822 71.4393 102.129 69.2575 103.248 69.823C104.366 70.3885 126.185 81.8896 143.664 80.9432C148.782 80.6304 149.293 80.5883 151.143 79.8391C152.994 79.0899 158.229 77.7886 159.686 78.9321C161.143 80.0757 166.969 83.467 174.685 93.2465C182.4 103.026 186.967 116.67 186.18 119.115C185.392 121.56 178.936 128.815 165.709 128.106C156.182 127.317 140.367 110.634 136.903 98.6465" stroke="#0C0C0E" stroke-width="0.787825" stroke-linecap="round" stroke-linejoin="round"/>
<path d="M145.518 59.0639C145.092 55.4522 149.341 53.265 152.431 54.5885C156.908 55.8803 157.223 61.9048 161.374 63.4859C162.47 63.8241 163.672 63.6736 164.766 64.0203C168.315 65.1895 168.505 70.0994 165.97 72.4399C162.809 75.724 155.716 76.4847 154.17 71.2236C153.563 69.5433 151.83 67.5998 154.574 66.9678C157.273 65.7132 156.282 62.6592 153.28 63.7075C151.826 63.6506 150.445 62.8835 149.093 62.387C147.426 61.9441 145.712 60.9621 145.518 59.0639Z" fill="#9376EF" stroke="#0C0C0E" stroke-width="0.393912" stroke-linecap="round" stroke-linejoin="round"/>
<path d="M224.26 94.2161H205.711V100.107H224.26V94.2161Z" fill="#0C0C0E" stroke="#A9ACB7" stroke-width="0.787825" stroke-linecap="round" stroke-linejoin="round"/>
<path d="M216.878 102.622H205.711V106.943H216.878V102.622Z" fill="#0C0C0E" stroke="#A9ACB7" stroke-width="0.787825" stroke-linecap="round" stroke-linejoin="round"/>
<path d="M204.092 93.5212H202.241V107.594H204.092V93.5212Z" fill="#0C0C0E" stroke="#A9ACB7" stroke-width="0.787825" stroke-linecap="round" stroke-linejoin="round"/>
<path d="M42.2631 86.4133H16.09V104.125H42.2631V86.4133Z" fill="#0C0C0E" stroke="#A9ACB7" stroke-width="0.79" stroke-linecap="round" stroke-linejoin="round"/>
<path d="M23.5448 98.1787L27.4581 91.3892L31.3714 98.1787H23.5448Z" fill="#DACAFF" stroke="#0C0C0E" stroke-width="0.787825" stroke-linecap="round" stroke-linejoin="round"/>
<path d="M32.2591 98.4591C34.1828 98.4591 35.7423 96.8607 35.7423 94.8891C35.7423 92.9174 34.1828 91.3191 32.2591 91.3191C30.3355 91.3191 28.776 92.9174 28.776 94.8891C28.776 96.8607 30.3355 98.4591 32.2591 98.4591Z" fill="#0C0C0E" stroke="#A9ACB7" stroke-width="0.787825" stroke-linecap="round" stroke-linejoin="round"/>
<path d="M227.47 41.4182C227.587 41.9274 227.82 42.4025 228.151 42.8063C228.482 43.2101 228.902 43.5316 229.378 43.7456L227.322 44.2027L225.704 43.1057L213.909 45.7278L216.42 47.4362L232.125 43.9448L232.149 43.9269C233.986 43.3715 235.133 41.5836 234.738 39.8025C234.323 37.9295 232.358 36.7716 230.352 37.2176C228.344 37.664 227.055 39.5453 227.47 41.4182ZM233.891 39.9907C234.21 41.4291 233.221 42.8731 231.681 43.2154C230.141 43.5577 228.634 42.6688 228.315 41.2303C227.997 39.7936 228.987 38.3492 230.527 38.0069C232.067 37.6647 233.573 38.554 233.891 39.9907Z" fill="#0C0C0E" stroke="#A9ACB7" stroke-width="0.3" stroke-linecap="round" stroke-linejoin="round"/>
<path d="M229.908 52.4017C231.901 52.9028 233.897 51.7995 234.363 49.9387C234.807 48.1691 233.709 46.3503 231.888 45.7444L231.866 45.7259L216.941 41.9736L213.705 43.4413L225.424 46.3877L227.071 45.3357L229.114 45.8493C228.632 46.0501 228.203 46.3599 227.861 46.7544C227.519 47.1489 227.273 47.6174 227.142 48.1232C226.676 49.984 227.913 51.9001 229.908 52.4017ZM230.105 51.6175C228.575 51.2329 227.624 49.7617 227.982 48.3343C228.34 46.9052 229.872 46.0582 231.401 46.4428C232.931 46.8274 233.88 48.2981 233.522 49.7272C233.164 51.1546 231.634 52.0021 230.105 51.6175Z" fill="#0C0C0E" stroke="#A9ACB7" stroke-width="0.3" stroke-linecap="round" stroke-linejoin="round"/>
<path d="M224.764 45.713C225.293 45.713 225.722 45.2832 225.722 44.7529C225.722 44.2226 225.293 43.7927 224.764 43.7927C224.234 43.7927 223.805 44.2226 223.805 44.7529C223.805 45.2832 224.234 45.713 224.764 45.713Z" fill="#0C0C0E" stroke="#A9ACB7" stroke-width="0.3" stroke-linecap="round" stroke-linejoin="round"/>
</g>
<defs>
<clipPath id="clip0_200_14769">
<rect width="253" height="239" fill="white"/>
</clipPath>
</defs>
</svg>
