<svg width="563" height="563" viewBox="0 0 563 563" fill="none" xmlns="http://www.w3.org/2000/svg">
<g clip-path="url(#clip0_130_15131)">
<g clip-path="url(#clip1_130_15131)">
<path d="M233.01 469.08H531.166C531.166 469.08 506.729 514.8 370.075 511.431C233.421 508.061 247.444 486.522 247.444 486.522C247.444 486.522 189.978 485.783 182.279 479.513C174.58 473.243 119.182 488.651 91.065 481.228C62.9478 473.804 91.065 469.276 91.065 469.276L233.01 469.08Z" fill="white" stroke="#1A1A1A" stroke-width="0.787825" stroke-linecap="round" stroke-linejoin="round"/>
<path d="M51.6105 469.276H532.021C556.175 415.256 526.534 360.318 489.972 350.906C456.859 342.381 410.175 369.164 397.464 419.761C391.418 413.962 375.006 399.857 350.684 397.685C320.585 394.998 290.518 411.674 272.894 440.26C267.965 435.561 217.249 388.856 146.746 402.416C86.1508 414.07 56.3115 461.517 51.6105 469.276Z" fill="white" stroke="#1A1A1A" stroke-width="0.787825" stroke-linecap="round" stroke-linejoin="round"/>
<path d="M515.001 333.969C522.445 333.969 528.479 327.934 528.479 320.491C528.479 313.047 522.445 307.012 515.001 307.012C507.557 307.012 501.523 313.047 501.523 320.491C501.523 327.934 507.557 333.969 515.001 333.969Z" fill="white" stroke="#1A1A1A" stroke-width="0.787825" stroke-linecap="round" stroke-linejoin="round"/>
<path d="M468.268 76.6209C468.268 73.3077 467.615 70.027 466.347 66.966C465.08 63.905 463.221 61.1238 460.878 58.781C458.536 56.4382 455.754 54.5798 452.693 53.3119C449.632 52.044 446.352 51.3915 443.038 51.3915H140.986C137.673 51.3915 134.392 52.044 131.331 53.3119C128.27 54.5798 125.489 56.4382 123.146 58.781C120.803 61.1238 118.945 63.905 117.677 66.966C116.409 70.027 115.757 73.3077 115.757 76.6209V78.0225H468.268V76.6209Z" fill="#9376EF" stroke="#1A1A1A" stroke-width="0.393912" stroke-linecap="round" stroke-linejoin="round"/>
<path d="M115.757 78.0234V253.929C115.757 257.242 116.409 260.523 117.677 263.584C118.945 266.645 120.803 269.426 123.146 271.769C125.489 274.111 128.27 275.97 131.331 277.238C134.392 278.506 137.673 279.158 140.986 279.158H443.038C446.352 279.158 449.632 278.506 452.693 277.238C455.754 275.97 458.536 274.111 460.878 271.769C463.221 269.426 465.08 266.645 466.347 263.584C467.615 260.523 468.268 257.242 468.268 253.929V78.0234H115.757Z" fill="white" stroke="#1A1A1A" stroke-width="0.787825" stroke-linecap="round" stroke-linejoin="round"/>
<path d="M505.484 132.039H452.544C451.165 132.039 450.047 133.157 450.047 134.536V156.172C450.047 157.552 451.165 158.67 452.544 158.67H505.484C506.863 158.67 507.981 157.552 507.981 156.172V134.536C507.981 133.157 506.863 132.039 505.484 132.039Z" fill="white" stroke="#1A1A1A" stroke-width="0.787825" stroke-linecap="round" stroke-linejoin="round"/>
<path d="M505.484 166.324H452.544C451.165 166.324 450.047 167.442 450.047 168.821V190.457C450.047 191.837 451.165 192.955 452.544 192.955H505.484C506.863 192.955 507.981 191.837 507.981 190.457V168.821C507.981 167.442 506.863 166.324 505.484 166.324Z" fill="#9376EF" stroke="#1A1A1A" stroke-width="0.393912" stroke-linecap="round" stroke-linejoin="round"/>
<path d="M336.981 160.369C336.981 160.369 334.535 161.11 333.185 160.719L336.981 160.369Z" fill="white"/>
<path d="M336.981 160.369C336.981 160.369 334.535 161.11 333.185 160.719" stroke="#1A1A1A" stroke-width="0.787825" stroke-linecap="round" stroke-linejoin="round"/>
<path d="M143.789 168.779C143.789 168.779 144.007 169.583 144.48 171.039" stroke="#1A1A1A" stroke-width="0.787825" stroke-linecap="round" stroke-linejoin="round"/>
<path d="M146.056 175.51C152.584 192.834 174.413 238.645 226.836 253.577C270.162 265.919 296.239 261.827 306.08 259.231" stroke="#1A1A1A" stroke-width="0.787825" stroke-linecap="round" stroke-linejoin="round" stroke-dasharray="4.74 4.74"/>
<path d="M308.359 258.575C309.846 258.106 310.584 257.782 310.584 257.782" stroke="#1A1A1A" stroke-width="0.787825" stroke-linecap="round" stroke-linejoin="round"/>
<path d="M156.404 78.0234V80.3869" stroke="#1A1A1A" stroke-width="0.787825" stroke-linecap="round" stroke-linejoin="round"/>
<path d="M156.404 85.177V274.399" stroke="#1A1A1A" stroke-width="0.787825" stroke-linecap="round" stroke-linejoin="round" stroke-dasharray="4.79 4.79"/>
<path d="M156.404 276.795V279.158" stroke="#1A1A1A" stroke-width="0.787825" stroke-linecap="round" stroke-linejoin="round"/>
<path d="M115.757 99.5727H118.12" stroke="#1A1A1A" stroke-width="0.787825" stroke-linecap="round" stroke-linejoin="round"/>
<path d="M122.884 99.5727H463.522" stroke="#1A1A1A" stroke-width="0.787825" stroke-linecap="round" stroke-linejoin="round" stroke-dasharray="4.76 4.76"/>
<path d="M465.904 99.5727H468.268" stroke="#1A1A1A" stroke-width="0.787825" stroke-linecap="round" stroke-linejoin="round"/>
<path d="M99.1265 270.438L109.657 284.148L133.767 265.628L123.595 251.643L99.1265 270.438Z" fill="white"/>
<path d="M151.835 266.773L177.205 247.286L176.267 225.327L159.407 238.278C159.935 239.887 159.882 241.631 159.257 243.205C158.632 244.78 157.475 246.085 155.987 246.895C154.499 247.704 152.775 247.967 151.114 247.636C149.452 247.306 147.959 246.404 146.895 245.087C145.83 243.769 145.26 242.121 145.285 240.427C145.31 238.733 145.928 237.102 147.032 235.817C148.135 234.532 149.654 233.674 151.324 233.393C152.994 233.112 154.71 233.425 156.174 234.278L173.135 221.25L152.16 214.682L126.791 234.169L124.601 250.869L123.595 251.642L133.767 265.628L135.132 264.579L151.835 266.773Z" fill="white"/>
<path d="M99.1263 270.438L89.2131 278.053L99.7441 291.763L109.657 284.148L99.1263 270.438Z" fill="white"/>
<path d="M89.2132 278.053L60.9165 299.789L71.4475 313.499L99.7442 291.763L89.2132 278.053Z" fill="white"/>
<path d="M99.1265 270.438L109.657 284.148L133.767 265.628L123.595 251.643L99.1265 270.438Z" stroke="white" stroke-width="0.393912" stroke-miterlimit="10"/>
<path d="M151.835 266.773L177.205 247.286L176.267 225.327L159.407 238.278C159.935 239.887 159.882 241.631 159.257 243.205C158.632 244.78 157.475 246.085 155.987 246.895C154.499 247.704 152.775 247.967 151.114 247.636C149.452 247.306 147.959 246.404 146.895 245.087C145.83 243.769 145.26 242.121 145.285 240.427C145.31 238.733 145.928 237.102 147.032 235.817C148.135 234.532 149.654 233.674 151.324 233.393C152.994 233.112 154.71 233.425 156.174 234.278L173.135 221.25L152.16 214.682L126.791 234.169L124.601 250.869L123.595 251.642L133.767 265.628L135.132 264.579L151.835 266.773Z" stroke="white" stroke-width="0.393912" stroke-miterlimit="10"/>
<path d="M99.1263 270.438L89.2131 278.053L99.7441 291.763L109.657 284.148L99.1263 270.438Z" fill="#9376EF" stroke="#1A1A1A" stroke-width="0.393912" stroke-linecap="round" stroke-linejoin="round"/>
<path d="M89.2132 278.053L60.9165 299.789L71.4475 313.499L99.7442 291.763L89.2132 278.053Z" stroke="white" stroke-width="0.393912" stroke-miterlimit="10"/>
<path d="M99.1265 270.438L109.657 284.148L133.767 265.628L123.595 251.643L99.1265 270.438Z" stroke="#1A1A1A" stroke-width="0.787825" stroke-linecap="round" stroke-linejoin="round"/>
<path d="M151.835 266.773L177.205 247.286L176.267 225.327L159.407 238.278C159.935 239.887 159.882 241.631 159.257 243.205C158.632 244.78 157.475 246.085 155.987 246.895C154.499 247.704 152.775 247.967 151.114 247.636C149.452 247.306 147.959 246.404 146.895 245.087C145.83 243.769 145.26 242.121 145.285 240.427C145.31 238.733 145.928 237.102 147.032 235.817C148.135 234.532 149.654 233.674 151.324 233.393C152.994 233.112 154.71 233.425 156.174 234.278L173.135 221.25L152.16 214.682L126.791 234.169L124.601 250.869L123.595 251.642L133.767 265.628L135.132 264.579L151.835 266.773Z" stroke="#1A1A1A" stroke-width="0.787825" stroke-linecap="round" stroke-linejoin="round"/>
<path d="M99.1263 270.438L89.2131 278.053L99.7441 291.763L109.657 284.148L99.1263 270.438Z" stroke="#1A1A1A" stroke-width="0.787825" stroke-linecap="round" stroke-linejoin="round"/>
<path d="M89.2132 278.053L60.9165 299.789L71.4475 313.499L99.7442 291.763L89.2132 278.053Z" stroke="#1A1A1A" stroke-width="0.787825" stroke-linecap="round" stroke-linejoin="round"/>
<path d="M102.091 137.067V126.204H90.8839C90.4458 124.616 89.8135 123.089 89.0013 121.657L96.925 113.733L89.2422 106.05L81.3185 113.974C79.8861 113.162 78.3589 112.53 76.7717 112.091V100.889H65.9134V112.091C64.3261 112.53 62.799 113.162 61.3666 113.974L53.4429 106.05L45.76 113.733L53.6837 121.657C52.8716 123.089 52.2392 124.616 51.8011 126.204H40.5939V137.067H51.8011C52.2392 138.654 52.8715 140.181 53.6837 141.614L45.76 149.537L53.4429 157.22L61.3666 149.297C62.799 150.109 64.3261 150.741 65.9134 151.179V162.382H76.7717V151.179C78.3589 150.741 79.8861 150.109 81.3185 149.297L89.2422 157.22L96.925 149.537L89.0013 141.614C89.8135 140.181 90.4458 138.654 90.8839 137.067H102.091ZM80.7482 137.067C79.7947 138.719 78.4232 140.09 76.7717 141.044C75.9509 141.521 75.0697 141.887 74.1517 142.13C72.3095 142.621 70.3706 142.621 68.5284 142.13C67.6119 141.887 66.7324 141.521 65.9134 141.044C63.42 139.599 61.5984 137.228 60.8456 134.447C60.6038 133.529 60.4815 132.584 60.4818 131.635C60.4807 130.686 60.6047 129.741 60.8505 128.824C61.0936 127.906 61.459 127.025 61.9368 126.204C62.8918 124.553 64.2629 123.182 65.9134 122.227C66.7324 121.749 67.6119 121.384 68.5284 121.141C70.3706 120.649 72.3095 120.649 74.1517 121.141C75.0697 121.384 75.9509 121.749 76.7717 122.227C78.4221 123.182 79.7933 124.553 80.7482 126.204C81.2261 127.024 81.5914 127.906 81.8346 128.824C82.0804 129.741 82.2043 130.686 82.2032 131.635C82.2035 132.584 82.0813 133.529 81.8395 134.447C81.5925 135.364 81.2256 136.245 80.7482 137.067Z" fill="white" stroke="#1A1A1A" stroke-width="0.787825" stroke-linecap="round" stroke-linejoin="round"/>
<path d="M156.871 71.5992C160.677 71.5992 163.763 68.5138 163.763 64.7078C163.763 60.9019 160.677 57.8165 156.871 57.8165C153.065 57.8165 149.98 60.9019 149.98 64.7078C149.98 68.5138 153.065 71.5992 156.871 71.5992Z" fill="white" stroke="#1A1A1A" stroke-width="0.787825" stroke-linecap="round" stroke-linejoin="round"/>
<path d="M229.619 60.7366H176.047C175.197 60.7366 174.508 61.4254 174.508 62.2751V68.3088C174.508 69.1585 175.197 69.8473 176.047 69.8473H229.619C230.469 69.8473 231.158 69.1585 231.158 68.3088V62.2751C231.158 61.4254 230.469 60.7366 229.619 60.7366Z" fill="white" stroke="#1A1A1A" stroke-width="0.787825" stroke-linecap="round" stroke-linejoin="round"/>
<path d="M171.121 102.172V142.905C171.121 145.028 171.964 147.063 173.465 148.564C174.966 150.065 177.001 150.908 179.124 150.908H375.466C377.589 150.908 379.624 150.065 381.125 148.564C382.626 147.063 383.469 145.028 383.469 142.905V102.172H171.121Z" fill="white" stroke="#1A1A1A" stroke-width="0.787825" stroke-linecap="round" stroke-linejoin="round"/>
<path d="M383.469 98.641C383.469 97.5901 383.262 96.5494 382.86 95.5785C382.458 94.6076 381.868 93.7254 381.125 92.9823C380.382 92.2391 379.5 91.6497 378.529 91.2475C377.558 90.8453 376.517 90.6384 375.466 90.6384H179.124C178.073 90.6384 177.032 90.8454 176.061 91.2475C175.09 91.6497 174.208 92.2392 173.465 92.9823C172.722 93.7254 172.133 94.6076 171.73 95.5785C171.328 96.5494 171.121 97.5901 171.121 98.641V102.173H383.469V98.641Z" fill="#9376EF" stroke="#1A1A1A" stroke-width="0.393912" stroke-linecap="round" stroke-linejoin="round"/>
<path d="M379.656 163.733H174.934C172.828 163.733 171.121 165.44 171.121 167.546V195.451C171.121 197.557 172.828 199.264 174.934 199.264H379.656C381.762 199.264 383.469 197.557 383.469 195.451V167.546C383.469 165.44 381.762 163.733 379.656 163.733Z" fill="white" stroke="#1A1A1A" stroke-width="0.787825" stroke-linecap="round" stroke-linejoin="round"/>
<path d="M255.653 395.504C250.644 390.835 245.123 384.965 246.296 378.219C247.182 373.128 251.619 369.566 254.753 365.458C259.087 359.777 261.11 352.213 259.474 345.258C257.837 338.303 252.307 332.23 245.347 330.614C238.388 328.998 230.391 332.349 227.226 338.754C224.746 343.774 225.309 349.676 224.797 355.252C224.286 360.828 221.898 367.086 216.552 368.752C212.087 370.144 207.359 367.755 203.552 365.039C199.744 362.324 195.965 359.085 191.326 358.49C185.883 357.791 180.438 361.171 177.681 365.917C174.924 370.662 174.541 376.492 175.508 381.894C176.474 387.297 178.687 392.384 180.882 397.414L166.449 413.948L161.713 469.079H211.302C216.414 466.771 221.188 463.738 225.927 460.715C229.842 458.218 233.757 455.721 237.672 453.224C240.322 451.534 243.26 449.375 243.437 446.237C243.794 439.874 232.956 437.414 233.134 431.043C233.207 428.446 235.304 426.265 237.694 425.249C240.085 424.232 242.748 424.134 245.34 423.968C249.313 423.714 253.357 423.245 256.967 421.568C260.578 419.891 263.734 416.813 264.59 412.925C266.064 406.238 260.661 400.174 255.653 395.504Z" fill="#9376EF" stroke="#1A1A1A" stroke-width="0.393912" stroke-linecap="round" stroke-linejoin="round"/>
<path d="M234.662 364.679C234.662 364.679 229.418 395.166 213.118 410.164C196.818 425.162 194.015 445.252 194.715 454.129C195.416 463.006 187.24 469.08 187.24 469.08M215.74 441.047C215.74 441.047 201.111 436.016 195.11 444.839M196.818 402.24C196.818 402.24 203.736 405.599 203.314 422.038M236.297 395.027C236.297 395.027 231.36 402.232 218.994 403.535" stroke="white" stroke-width="1.18174" stroke-linecap="round" stroke-linejoin="round"/>
<path d="M183.816 456.37C188.962 446.271 183.788 438.255 175.24 432.686C166.797 424.835 173.162 419.683 180.671 414.91C194.166 403.125 180.736 381.658 164.221 388.71C158.286 391.583 151.395 399.822 144.473 395.005C140.496 391.856 141.809 385.711 142.234 380.656C143.556 367.977 133.998 349.906 119.539 352.225C113.1 353.838 109.43 360.781 103.439 363.641C85.7366 371.329 72.0052 346.411 54.7488 348.032C21.2942 355.534 31.9077 414.031 79.8231 406.807C83.6514 407.123 87.6563 408.571 89.7956 411.761C96.7508 422.673 78.955 435.593 85.6054 446.554C91.4031 454.886 102.913 450.586 111.333 450.412C123.147 450.049 127.861 460.363 121.328 469.079H167.22C174.1 466.741 180.308 462.989 183.816 456.37Z" fill="white" stroke="#1A1A1A" stroke-width="0.787825" stroke-linecap="round" stroke-linejoin="round"/>
<path d="M136.956 469.08L140.636 462.072C156.754 406.357 72.3059 377.273 72.3059 377.273M148.345 418.271C148.345 418.271 150.28 430.702 141.545 437.977L148.345 418.271ZM112.72 377.273C112.953 377.857 119.808 389.351 114.22 400.073L112.72 377.273ZM113.537 417.104C113.537 417.104 128.303 415.395 133.652 420.162L113.537 417.104ZM76.0436 385.916C76.0436 385.916 84.0904 388.495 91.3385 385.687L76.0436 385.916Z" fill="white"/>
<path d="M136.956 469.08L140.636 462.072C156.754 406.357 72.3059 377.273 72.3059 377.273M148.345 418.271C148.345 418.271 150.28 430.702 141.545 437.977M112.72 377.273C112.953 377.857 119.808 389.351 114.22 400.073M113.537 417.104C113.537 417.104 128.303 415.395 133.652 420.162M76.0436 385.916C76.0436 385.916 84.0904 388.495 91.3385 385.687" stroke="#1A1A1A" stroke-width="0.787825" stroke-linecap="round" stroke-linejoin="round"/>
<path d="M12.386 469.122H550.614" stroke="#1A1A1A" stroke-width="1.18174" stroke-linecap="round" stroke-linejoin="round"/>
<path d="M203.359 249.415L207.278 240.775L214.859 244.431L211.155 252.935L203.359 249.415Z" fill="#9376EF" stroke="#1A1A1A" stroke-width="0.393912" stroke-linecap="round" stroke-linejoin="round"/>
<path d="M320.865 479.912C320.223 477.821 319.452 475.407 319.257 475.211C318.906 474.861 308.131 475.211 308.131 475.211C308.131 475.211 306.456 476.021 303.958 477.275C308.097 482.177 314.563 481.835 320.865 479.912Z" fill="#9376EF" stroke="#1A1A1A" stroke-width="0.393912" stroke-linecap="round" stroke-linejoin="round"/>
<path d="M322.613 489.082C322.762 487.656 322.539 485.719 321.797 483.008C321.797 483.008 321.371 481.56 320.865 479.912C314.563 481.834 308.097 482.176 303.959 477.275C297.015 480.76 283.706 487.679 282.288 490.191C281.411 491.746 280.954 493.699 281.25 495.359C295.069 496.604 310.138 495.152 322.613 489.082Z" fill="white" stroke="#1A1A1A" stroke-width="0.787825" stroke-linecap="round" stroke-linejoin="round"/>
<path d="M281.25 495.359C281.605 497.346 283.04 498.911 286.143 498.864C291.837 498.776 312.689 495.452 316.891 493.958C319.683 492.965 322.251 492.54 322.613 489.082C310.138 495.152 295.069 496.604 281.25 495.359Z" fill="white" stroke="#1A1A1A" stroke-width="0.787825" stroke-linecap="round" stroke-linejoin="round"/>
<path d="M468.505 465.542C465.794 462.761 463.362 460.669 463.362 460.669L449.171 467.59C449.171 467.59 447.095 469.558 444.346 472.176C453.117 474.301 463.203 472.164 468.505 465.542Z" fill="#9376EF" stroke="#1A1A1A" stroke-width="0.393912" stroke-linecap="round" stroke-linejoin="round"/>
<path d="M441.814 489.892C437.623 491.089 432.977 491.601 428.568 490.741C428.714 491.255 428.925 491.747 429.197 492.207C430.862 495.098 441.9 492.645 452.938 488.791C463.14 485.228 475.586 480.543 475.475 475.496C466.764 484.589 453.041 485.682 441.814 489.892Z" fill="white" stroke="#1A1A1A" stroke-width="0.787825" stroke-linecap="round" stroke-linejoin="round"/>
<path d="M468.505 465.543C463.203 472.164 453.117 474.301 444.346 472.176C439.641 476.657 432.959 483.046 431.3 484.76C429.144 486.988 427.993 488.627 428.568 490.74C432.977 491.6 437.623 491.089 441.814 489.891C453.041 485.681 466.764 484.588 475.475 475.495C475.464 475.064 475.367 474.64 475.189 474.248C473.985 471.54 471.116 468.222 468.505 465.543Z" fill="white" stroke="#1A1A1A" stroke-width="0.787825" stroke-linecap="round" stroke-linejoin="round"/>
<path d="M389.543 337.56C393.981 380.543 444.44 467.328 445.491 468.379C446.543 469.43 461.961 470.482 464.413 463.123C466.866 455.764 450.397 400.4 444.44 381.478C448.645 361.504 450.047 306.49 439.184 284.698C428.321 262.905 411.852 260.236 411.852 260.236L383.469 269.697" fill="white"/>
<path d="M389.543 337.56C393.981 380.543 444.44 467.328 445.491 468.379C446.543 469.43 461.961 470.482 464.413 463.123C466.866 455.764 450.397 400.4 444.44 381.478C448.645 361.504 450.047 306.49 439.184 284.698C428.321 262.905 411.852 260.236 411.852 260.236L383.469 269.697" stroke="#1A1A1A" stroke-width="0.787825" stroke-linecap="round" stroke-linejoin="round"/>
<path d="M414.5 292.998C414.5 292.998 421.313 306.489 407.647 328.915C390.999 356.235 344.69 367.226 331.725 371.431C335.345 400.866 325.068 467.911 319.695 478.189C314.088 481.927 305.678 476.554 305.678 476.554C305.678 476.554 290.727 400.165 297.736 359.284C304.744 318.403 367.584 281.727 367.584 281.727L397.836 269.696" fill="white"/>
<path d="M414.5 292.998C414.5 292.998 421.313 306.489 407.647 328.915C390.999 356.235 344.69 367.226 331.725 371.431C335.345 400.866 325.068 467.911 319.695 478.189C314.088 481.927 305.678 476.554 305.678 476.554C305.678 476.554 290.727 400.165 297.736 359.284C304.744 318.403 367.584 281.727 367.584 281.727L397.836 269.696" stroke="#1A1A1A" stroke-width="0.787825" stroke-linecap="round" stroke-linejoin="round"/>
<path d="M361.691 285.413C361.691 285.413 379.361 289.603 389.891 285.813C400.42 282.022 412.715 276.546 414.5 266.859L414.464 262.077L365.321 281.601L361.691 285.413Z" fill="#9376EF" stroke="#1A1A1A" stroke-width="0.393912" stroke-linecap="round" stroke-linejoin="round"/>
<path d="M351.407 176.839C351.407 176.839 345.625 164.224 346.501 158.442C347.377 152.66 359.992 146.178 346.676 134.439C333.361 122.7 324.25 136.016 323.374 141.973C322.498 147.93 322.498 158.092 333.185 160.72L332.835 180.343" fill="white"/>
<path d="M351.407 176.839C351.407 176.839 345.625 164.224 346.501 158.442C347.377 152.66 359.992 146.178 346.676 134.439C333.361 122.7 324.25 136.016 323.374 141.973C322.498 147.93 322.498 158.092 333.185 160.72L332.835 180.343" stroke="#1A1A1A" stroke-width="0.787825" stroke-linecap="round" stroke-linejoin="round"/>
<path d="M337.195 159.923L333.185 160.72L333.154 162.497L337.195 159.923Z" fill="#9376EF" stroke="#1A1A1A" stroke-width="0.393912" stroke-linecap="round" stroke-linejoin="round"/>
<path d="M398.975 112.713C398.975 112.713 391.09 102.288 381.629 101.763C372.168 101.237 370.416 105.705 372.606 108.333C374.796 110.961 380.315 111.837 381.542 111.837C382.768 111.837 377.862 114.377 378.3 115.428C378.738 116.48 382.856 115.866 384.958 115.078C387.061 114.29 391.178 114.027 392.229 115.604C393.28 117.181 398.975 112.713 398.975 112.713Z" fill="white" stroke="#1A1A1A" stroke-width="0.787825" stroke-linecap="round" stroke-linejoin="round"/>
<path d="M354.21 177.714C354.21 177.714 386.623 181.919 395.032 167.727C403.442 153.535 399.694 128.158 390.828 117.619C388.756 115.499 391.003 113.238 393.631 112.187C396.259 111.136 399.062 109.209 403.267 115.166C407.472 121.123 424.642 150.031 421.234 177.013C418.104 201.797 406.771 214.507 390.828 216.434C374.008 199.965 354.21 177.714 354.21 177.714Z" fill="#DACAFF" stroke="#1A1A1A" stroke-width="0.787825" stroke-linecap="round" stroke-linejoin="round"/>
<path d="M225.084 160.282C225.084 160.282 215.097 147.842 214.747 142.761C214.397 137.68 215.448 135.052 218.602 134.264C221.755 133.475 222.982 138.381 225.435 139.432C227.887 140.483 231.304 136.541 231.83 139.783C232.355 143.024 227.975 149.594 228.325 153.186C228.676 156.777 230.165 157.829 230.165 157.829L225.084 160.282Z" fill="white" stroke="#1A1A1A" stroke-width="0.787825" stroke-linecap="round" stroke-linejoin="round"/>
<path d="M339.668 218.537C263.804 232.904 223.664 161.913 222.899 160.308C222.134 158.704 227.268 153.857 229.756 155.113C232.245 156.369 280.799 181.919 319.695 179.817C331.084 179.122 332.222 179.028 336.339 177.364C340.456 175.7 352.107 172.809 355.349 175.349C358.59 177.89 371.555 185.423 388.725 207.149C405.895 228.874 416.057 259.184 414.305 264.616C412.553 270.047 398.186 286.166 368.752 284.589C347.552 282.837 312.358 245.776 304.649 219.145" fill="#DACAFF"/>
<path d="M339.668 218.537C263.804 232.904 223.664 161.913 222.899 160.308C222.134 158.704 227.268 153.857 229.756 155.113C232.245 156.369 280.799 181.919 319.695 179.817C331.084 179.122 332.222 179.028 336.339 177.364C340.456 175.7 352.107 172.809 355.349 175.349C358.59 177.89 371.555 185.423 388.725 207.149C405.895 228.874 416.057 259.184 414.305 264.616C412.553 270.047 398.186 286.166 368.752 284.589C347.552 282.837 312.358 245.776 304.649 219.145" stroke="#1A1A1A" stroke-width="0.787825" stroke-linecap="round" stroke-linejoin="round"/>
<path d="M323.821 131.212C322.873 123.188 332.328 118.329 339.203 121.269C349.167 124.139 349.868 137.523 359.106 141.035C361.545 141.787 364.22 141.452 366.653 142.222C374.551 144.82 374.974 155.727 369.333 160.927C362.298 168.222 346.515 169.912 343.075 158.225C341.723 154.492 337.867 150.174 343.973 148.77C349.978 145.983 347.773 139.199 341.094 141.528C337.857 141.401 334.786 139.697 331.777 138.594C328.066 137.61 324.253 135.429 323.821 131.212Z" fill="#9376EF" stroke="#1A1A1A" stroke-width="0.393912" stroke-linecap="round" stroke-linejoin="round"/>
<path d="M499.045 209.303H457.769V222.391H499.045V209.303Z" fill="white" stroke="#1A1A1A" stroke-width="0.787825" stroke-linecap="round" stroke-linejoin="round"/>
<path d="M482.619 227.977H457.769V237.575H482.619V227.977Z" fill="white" stroke="#1A1A1A" stroke-width="0.787825" stroke-linecap="round" stroke-linejoin="round"/>
<path d="M454.165 207.759H450.047V239.021H454.165V207.759Z" fill="white" stroke="#1A1A1A" stroke-width="0.787825" stroke-linecap="round" stroke-linejoin="round"/>
<path d="M94.0478 191.969H35.8049V231.315H94.0478V191.969Z" fill="white" stroke="#1A1A1A" stroke-width="0.787825" stroke-linecap="round" stroke-linejoin="round"/>
<path d="M52.394 218.106L61.1023 203.023L69.8106 218.106H52.394Z" fill="white" stroke="#1A1A1A" stroke-width="0.787825" stroke-linecap="round" stroke-linejoin="round"/>
<path d="M71.786 218.729C76.0668 218.729 79.5371 215.178 79.5371 210.798C79.5371 206.418 76.0668 202.867 71.786 202.867C67.5053 202.867 64.035 206.418 64.035 210.798C64.035 215.178 67.5053 218.729 71.786 218.729Z" fill="#9376EF" stroke="#1A1A1A" stroke-width="0.393912" stroke-linecap="round" stroke-linejoin="round"/>
<path d="M506.188 92.0116C506.448 93.1427 506.967 94.1982 507.704 95.0953C508.441 95.9923 509.375 96.7065 510.434 97.1819L505.858 98.1974L502.259 95.7603L476.01 101.586L481.599 105.381L516.548 97.6245L516.6 97.5848C520.688 96.3508 523.24 92.379 522.362 88.4222C521.438 84.2615 517.067 81.6891 512.602 82.6799C508.134 83.6716 505.265 87.8509 506.188 92.0116ZM520.477 88.8404C521.186 92.0359 518.985 95.2438 515.559 96.0042C512.133 96.7645 508.777 94.7898 508.068 91.5943C507.36 88.4026 509.565 85.1938 512.991 84.4334C516.417 83.6731 519.769 85.6487 520.477 88.8404Z" fill="white" stroke="#1A1A1A" stroke-width="0.787825" stroke-linecap="round" stroke-linejoin="round"/>
<path d="M511.614 116.411C516.049 117.525 520.49 115.074 521.528 110.94C522.514 107.009 520.073 102.968 516.02 101.622L515.97 101.581L482.759 93.2453L475.556 96.5058L501.635 103.051L505.3 100.714L509.846 101.855C508.774 102.301 507.82 102.99 507.059 103.866C506.298 104.742 505.75 105.783 505.459 106.907C504.421 111.04 507.175 115.297 511.614 116.411ZM512.051 114.669C508.647 113.815 506.531 110.547 507.327 107.376C508.124 104.201 511.533 102.319 514.937 103.174C518.34 104.028 520.453 107.295 519.656 110.47C518.86 113.641 515.455 115.524 512.051 114.669Z" fill="white" stroke="#1A1A1A" stroke-width="0.787825" stroke-linecap="round" stroke-linejoin="round"/>
<path d="M500.166 101.552C501.344 101.552 502.299 100.597 502.299 99.4194C502.299 98.2414 501.344 97.2864 500.166 97.2864C498.988 97.2864 498.033 98.2414 498.033 99.4194C498.033 100.597 498.988 101.552 500.166 101.552Z" fill="white" stroke="#1A1A1A" stroke-width="0.787825" stroke-linecap="round" stroke-linejoin="round"/>
</g>
</g>
<defs>
<clipPath id="clip0_130_15131">
<rect width="563" height="563" fill="white"/>
</clipPath>
<clipPath id="clip1_130_15131">
<rect width="563" height="563" fill="white"/>
</clipPath>
</defs>
</svg>
