<svg width="598" height="598" viewBox="0 0 598 598" fill="none" xmlns="http://www.w3.org/2000/svg">
<g clip-path="url(#clip0_130_15063)">
<g clip-path="url(#clip1_130_15063)">
<path d="M380.895 481.114C374.811 466.907 386.503 440.208 401.481 428.972C419.993 415.086 453.249 426.312 456.053 428.058C457.114 425.603 473.94 388.439 508.199 387.053C534.707 385.98 546.947 395.318 557.27 430.345C558.146 429.958 571.306 430.807 579.776 439.712C589.934 450.393 588.98 474.891 579.737 490.537H391.641C384.955 488.202 382.176 484.104 380.895 481.114Z" stroke="#1A1A1A" stroke-width="1.10052" stroke-linecap="round" stroke-linejoin="round"/>
<path d="M476.812 437.817C455.956 421.813 431.944 427.03 428.674 427.798C425.77 405.22 409.599 387.397 389.332 383.569C366.534 379.263 349.28 394.693 347.303 396.52C340.47 382.415 325.269 356.065 295.499 336.408C262.189 314.414 200.771 294.283 156.214 326.145C132.405 343.171 122.416 368.604 118.095 384.791C89.4347 373.169 56.314 384.163 40.3887 410.449C24.6577 436.414 29.8916 470.388 52.851 490.537H498.56C498.749 488.929 501.926 457.088 476.812 437.817Z" fill="white" stroke="#1A1A1A" stroke-width="0.733746" stroke-linecap="round" stroke-linejoin="round"/>
<path d="M467.197 72.4525H154.589C147.39 72.4525 141.553 78.289 141.553 85.4889V290.335C141.553 297.534 147.39 303.371 154.589 303.371H467.197C474.397 303.371 480.233 297.534 480.233 290.335V85.4889C480.233 78.289 474.397 72.4525 467.197 72.4525Z" fill="white" stroke="#1A1A1A" stroke-width="0.733746" stroke-linecap="round" stroke-linejoin="round"/>
<path d="M472.521 98.605C472.521 93.064 470.32 87.7499 466.401 83.8317C462.483 79.9136 457.169 77.7124 451.628 77.7124H170.158C164.617 77.7124 159.303 79.9136 155.385 83.8317C151.467 87.7499 149.266 93.064 149.266 98.605V101.777H472.521V98.605Z" fill="#9376EF" stroke="#1A1A1A" stroke-width="0.366773" stroke-linecap="round" stroke-linejoin="round"/>
<path d="M149.266 101.778V277.222C149.266 282.763 151.467 288.077 155.385 291.995C159.303 295.913 164.617 298.115 170.158 298.115H451.628C457.169 298.115 462.483 295.913 466.401 291.995C470.32 288.077 472.521 282.763 472.521 277.222V101.778H149.266Z" fill="white" stroke="#1A1A1A" stroke-width="0.733746" stroke-linecap="round" stroke-linejoin="round"/>
<path d="M149.266 128.167H472.521" stroke="#1A1A1A" stroke-width="0.733746" stroke-linecap="round" stroke-linejoin="round" stroke-dasharray="4.4 4.4"/>
<path d="M351.212 110.573H318.224V120.103H351.212V110.573Z" fill="#9376EF" stroke="#1A1A1A" stroke-width="0.366773" stroke-linecap="round" stroke-linejoin="round"/>
<path d="M395.93 110.573H362.942V120.103H395.93V110.573Z" fill="white" stroke="#1A1A1A" stroke-width="0.733746" stroke-linecap="round" stroke-linejoin="round"/>
<path d="M440.647 110.573H407.659V120.103H440.647V110.573Z" fill="white" stroke="#1A1A1A" stroke-width="0.733746" stroke-linecap="round" stroke-linejoin="round"/>
<path d="M227.546 110.573H165.011V187.913H227.546V110.573Z" fill="white" stroke="#1A1A1A" stroke-width="0.733746" stroke-linecap="round" stroke-linejoin="round"/>
<path d="M213.926 151.887H179.668V155.025H213.926V151.887Z" fill="white" stroke="#1A1A1A" stroke-width="0.733746" stroke-linecap="round" stroke-linejoin="round"/>
<path d="M218.895 161.038H174.7V164.177H218.895V161.038Z" fill="white" stroke="#1A1A1A" stroke-width="0.733746" stroke-linecap="round" stroke-linejoin="round"/>
<path d="M218.895 169.144H174.7V172.282H218.895V169.144Z" fill="white" stroke="#1A1A1A" stroke-width="0.733746" stroke-linecap="round" stroke-linejoin="round"/>
<path d="M196.279 141.913C202.301 141.913 207.184 137.031 207.184 131.008C207.184 124.986 202.301 120.103 196.279 120.103C190.256 120.103 185.374 124.986 185.374 131.008C185.374 137.031 190.256 141.913 196.279 141.913Z" fill="#9376EF" stroke="#1A1A1A" stroke-width="0.366773" stroke-linecap="round" stroke-linejoin="round"/>
<path d="M216.734 282.55H174.7V289.963H216.734V282.55Z" fill="#9376EF" stroke="#1A1A1A" stroke-width="0.366773" stroke-linecap="round" stroke-linejoin="round"/>
<path d="M449.078 298.113H240.518V282.55H471.834C467.559 294.957 459.051 298.133 449.078 298.113Z" fill="#9376EF" stroke="#1A1A1A" stroke-width="0.366773" stroke-linecap="round" stroke-linejoin="round"/>
<path d="M240.518 101.778V298.115" stroke="#1A1A1A" stroke-width="0.733746" stroke-linecap="round" stroke-linejoin="round" stroke-dasharray="4.4 4.4"/>
<path d="M304.306 149.242H253.347V199.944H304.306V149.242Z" stroke="#1A1A1A" stroke-width="0.733746" stroke-linecap="round" stroke-linejoin="round" stroke-dasharray="4.4 4.4"/>
<path d="M376.692 149.242H325.733V199.944H376.692V149.242Z" stroke="#1A1A1A" stroke-width="0.733746" stroke-linecap="round" stroke-linejoin="round" stroke-dasharray="4.4 4.4"/>
<path d="M449.078 149.242H398.119V199.944H449.078V149.242Z" stroke="#1A1A1A" stroke-width="0.733746" stroke-linecap="round" stroke-linejoin="round" stroke-dasharray="4.4 4.4"/>
<path d="M304.306 215.79H253.347V266.492H304.306V215.79Z" stroke="#1A1A1A" stroke-width="0.733746" stroke-linecap="round" stroke-linejoin="round" stroke-dasharray="4.4 4.4"/>
<path d="M376.692 215.79H325.733V266.492H376.692V215.79Z" stroke="#1A1A1A" stroke-width="0.733746" stroke-linecap="round" stroke-linejoin="round" stroke-dasharray="4.4 4.4"/>
<path d="M449.078 215.79H398.119V266.492H449.078V215.79Z" stroke="#1A1A1A" stroke-width="0.733746" stroke-linecap="round" stroke-linejoin="round" stroke-dasharray="4.4 4.4"/>
<path d="M301.14 196.082C286.873 196.896 269.628 195.62 265.444 191.767C261.259 187.914 260.614 185.806 259.406 180.162C257.723 172.296 257.212 162.311 256.945 151.887H301.14V196.082Z" fill="white" stroke="#1A1A1A" stroke-width="0.733746" stroke-linecap="round" stroke-linejoin="round"/>
<path d="M259.061 178.426C260.784 185.613 270.674 185.752 270.674 185.752C270.674 185.752 270.874 191.856 275.406 195.137M373.31 196.082C359.043 196.896 341.798 195.62 337.614 191.767C333.43 187.914 332.784 185.806 331.576 180.162C329.893 172.296 329.382 162.311 329.115 151.887H373.31V196.082Z" fill="white"/>
<path d="M259.061 178.426C260.784 185.613 270.674 185.752 270.674 185.752C270.674 185.752 270.874 191.856 275.406 195.137M373.31 196.082C359.043 196.896 341.798 195.62 337.614 191.767C333.43 187.914 332.784 185.806 331.576 180.162C329.893 172.296 329.382 162.311 329.115 151.887H373.31V196.082Z" stroke="#1A1A1A" stroke-width="0.733746" stroke-linecap="round" stroke-linejoin="round"/>
<path d="M331.23 178.426C332.954 185.613 342.844 185.752 342.844 185.752C342.844 185.752 343.044 191.856 347.576 195.137M445.48 196.082C431.213 196.896 413.968 195.62 409.784 191.767C405.6 187.914 404.954 185.806 403.746 180.162C402.063 172.296 401.552 162.311 401.285 151.887H445.48V196.082Z" fill="white"/>
<path d="M331.23 178.426C332.954 185.613 342.844 185.752 342.844 185.752C342.844 185.752 343.044 191.856 347.576 195.137M445.48 196.082C431.213 196.896 413.968 195.62 409.784 191.767C405.6 187.914 404.954 185.806 403.746 180.162C402.063 172.296 401.552 162.311 401.285 151.887H445.48V196.082Z" stroke="#1A1A1A" stroke-width="0.733746" stroke-linecap="round" stroke-linejoin="round"/>
<path d="M403.401 178.425C405.124 185.612 415.014 185.752 415.014 185.752C415.014 185.752 415.214 191.856 419.746 195.137M301.14 263.122C286.873 263.936 269.628 262.66 265.444 258.807C261.259 254.954 260.614 252.846 259.406 247.203C257.723 239.336 257.212 229.352 256.945 218.927H301.14V263.122Z" fill="white"/>
<path d="M403.401 178.425C405.124 185.612 415.014 185.752 415.014 185.752C415.014 185.752 415.214 191.856 419.746 195.137M301.14 263.122C286.873 263.936 269.628 262.66 265.444 258.807C261.259 254.954 260.614 252.846 259.406 247.203C257.723 239.336 257.212 229.352 256.945 218.927H301.14V263.122Z" stroke="#1A1A1A" stroke-width="0.733746" stroke-linecap="round" stroke-linejoin="round"/>
<path d="M259.061 245.465C260.784 252.652 270.674 252.791 270.674 252.791C270.674 252.791 270.874 258.895 275.406 262.176M373.31 263.121C359.043 263.935 341.798 262.659 337.614 258.806C333.43 254.953 332.784 252.845 331.576 247.201C329.893 239.334 329.382 229.35 329.115 218.926H373.31V263.121Z" fill="white"/>
<path d="M259.061 245.465C260.784 252.652 270.674 252.791 270.674 252.791C270.674 252.791 270.874 258.895 275.406 262.176M373.31 263.121C359.043 263.935 341.798 262.659 337.614 258.806C333.43 254.953 332.784 252.845 331.576 247.201C329.893 239.334 329.382 229.35 329.115 218.926H373.31V263.121Z" stroke="#1A1A1A" stroke-width="0.733746" stroke-linecap="round" stroke-linejoin="round"/>
<path d="M331.23 245.465C332.954 252.652 342.844 252.791 342.844 252.791C342.844 252.791 343.044 258.895 347.576 262.176M445.48 263.121C431.213 263.935 413.968 262.659 409.784 258.806C405.6 254.953 404.954 252.845 403.746 247.201C402.063 239.334 401.552 229.35 401.285 218.926H445.48V263.121Z" fill="white"/>
<path d="M331.23 245.465C332.954 252.652 342.844 252.791 342.844 252.791C342.844 252.791 343.044 258.895 347.576 262.176M445.48 263.121C431.213 263.935 413.968 262.659 409.784 258.806C405.6 254.953 404.954 252.845 403.746 247.201C402.063 239.334 401.552 229.35 401.285 218.926H445.48V263.121Z" stroke="#1A1A1A" stroke-width="0.733746" stroke-linecap="round" stroke-linejoin="round"/>
<path d="M403.401 245.465C405.124 252.653 415.014 252.792 415.014 252.792C415.014 252.792 415.214 258.896 419.746 262.177" fill="white"/>
<path d="M403.401 245.465C405.124 252.653 415.014 252.792 415.014 252.792C415.014 252.792 415.214 258.896 419.746 262.177" stroke="#1A1A1A" stroke-width="0.733746" stroke-linecap="round" stroke-linejoin="round"/>
<path d="M21.3286 490.537H550.608" stroke="#1A1A1A" stroke-width="0.733746" stroke-linecap="round" stroke-linejoin="round"/>
<path d="M436.127 323.031C438.937 317.288 437.837 313.623 433.805 314.356C429.773 315.089 405.949 325.841 403.505 328.651C401.996 330.386 403.654 338.243 405.144 344.003C405.283 343.933 405.422 343.867 405.559 343.813C410.608 342.235 415.861 340.998 421.143 340.42C420.867 339.346 420.582 338.22 420.3 337.081C421.089 335.493 433.317 328.773 436.127 323.031Z" fill="white" stroke="#1A1A1A" stroke-width="0.733746" stroke-linecap="round" stroke-linejoin="round"/>
<path d="M405.144 344.002C406.067 347.572 406.926 350.337 406.926 350.337L423.176 348.076C423.176 348.076 422.233 344.661 421.143 340.419C415.861 340.997 410.608 342.234 405.559 343.812C405.422 343.866 405.283 343.932 405.144 344.002Z" fill="#9376EF" stroke="#1A1A1A" stroke-width="0.366773" stroke-linecap="round" stroke-linejoin="round"/>
<path d="M414.257 437.757C414.257 437.757 399.839 418.941 405.704 348.81C405.948 345.389 414.99 342.702 422.565 342.702C429.651 352.72 446.023 418.697 446.756 427.983C447.489 437.268 444.313 449.035 443.58 449.016C442.847 448.997 414.257 437.757 414.257 437.757Z" fill="white" stroke="#1A1A1A" stroke-width="0.733746" stroke-linecap="round" stroke-linejoin="round"/>
<path d="M414.16 353.641C414.16 353.641 427.057 440.844 435.426 450.329" stroke="#1A1A1A" stroke-width="0.733746" stroke-linecap="round" stroke-linejoin="round" stroke-dasharray="4.4 4.4"/>
<path d="M495.518 356.183C494.559 357.637 493.988 358.584 493.988 358.584C493.988 358.584 505.524 368.481 505.891 368.481C506.168 368.481 508.744 363.954 511.146 361.736C507.469 357.21 501.582 354.663 495.518 356.183Z" fill="#9376EF" stroke="#1A1A1A" stroke-width="0.366773" stroke-linecap="round" stroke-linejoin="round"/>
<path d="M540.468 362.128C537.291 358.341 517.865 341.113 511.267 340.991C506.194 340.897 498.708 351.348 495.518 356.184C501.582 354.664 507.469 357.211 511.146 361.737C511.925 361.018 512.686 360.54 513.344 360.54C516.032 360.54 523.851 367.138 533.504 369.581C543.156 372.025 543.644 365.916 540.468 362.128Z" fill="white" stroke="#1A1A1A" stroke-width="0.733746" stroke-linecap="round" stroke-linejoin="round"/>
<path d="M495.384 357.607C446.268 391.573 439.914 441.486 439.914 441.486C439.914 441.486 410.836 429.204 384.201 426.272C357.566 423.34 328.243 443.947 328.243 443.947L328.366 446.897L330.197 490.538H392.509C403.016 490.538 451.888 494.937 462.151 481.253C472.414 467.569 509.312 367.626 509.312 365.427C509.312 363.228 506.38 357.363 495.384 357.607Z" fill="white" stroke="#1A1A1A" stroke-width="0.733746" stroke-linecap="round" stroke-linejoin="round"/>
<path d="M350.173 467.922C350.173 467.922 425.488 462.692 444.578 467.922C459.484 437.848 490.732 374.405 502.567 365.854" stroke="#1A1A1A" stroke-width="0.733746" stroke-linecap="round" stroke-linejoin="round" stroke-dasharray="4.4 4.4"/>
<path d="M329.252 447.654C329.252 447.654 331.475 444.007 336.051 453.218C340.628 462.429 343.766 484.559 335.267 491.211L328.728 490.743L329.252 447.654Z" fill="#9376EF" stroke="#1A1A1A" stroke-width="0.366773" stroke-linecap="round" stroke-linejoin="round"/>
<path d="M185.183 463.267C185.183 463.267 209.728 439.19 215.073 430.543C220.555 425.077 217.226 406.064 235.115 403.892C235.115 403.892 255.218 397.414 293.134 419.397C324.341 438.709 330.321 446.176 333.065 450.654C335.809 455.131 342.535 476.875 331.525 490.698C295.054 491.401 236.713 487.892 229.125 487.702" fill="#DACAFF"/>
<path d="M185.183 463.267C185.183 463.267 209.728 439.19 215.073 430.543C220.555 425.077 217.226 406.064 235.115 403.892C235.115 403.892 255.218 397.414 293.134 419.397C324.341 438.709 330.321 446.176 333.065 450.654C335.809 455.131 342.535 476.875 331.525 490.698C295.054 491.401 236.713 487.892 229.125 487.702" stroke="#1A1A1A" stroke-width="0.733746" stroke-linecap="round" stroke-linejoin="round"/>
<path d="M186.882 417.959C186.882 417.959 191.955 410.178 187.71 404.843C183.465 399.508 180.866 392.519 183.515 388.379C186.165 384.24 190.442 384.194 192.916 388.009C195.389 391.824 207.277 404.928 202.728 410.487C198.178 416.047 194.079 424.767 194.079 424.767L186.882 417.959Z" fill="white" stroke="#1A1A1A" stroke-width="0.733746" stroke-linecap="round" stroke-linejoin="round"/>
<path d="M198.403 470.635C182.124 464.765 194.717 430.613 195.955 426.346C197.193 422.079 190.019 418.449 188.362 416.741C186.706 415.033 185.005 416.873 185.005 416.873C185.005 416.873 150.266 461.527 155.53 478.744C160.793 495.96 207.289 488.993 207.289 488.993C207.289 488.993 233.991 491.142 235.348 490.173C236.705 489.204 235.348 478.074 235.348 478.074" fill="#DACAFF"/>
<path d="M198.403 470.635C182.124 464.765 194.717 430.613 195.955 426.346C197.193 422.079 190.019 418.449 188.362 416.741C186.706 415.033 185.005 416.873 185.005 416.873C185.005 416.873 150.266 461.527 155.53 478.744C160.793 495.96 207.289 488.993 207.289 488.993C207.289 488.993 233.991 491.142 235.348 490.173C236.705 489.204 235.348 478.074 235.348 478.074" stroke="#1A1A1A" stroke-width="0.733746" stroke-linecap="round" stroke-linejoin="round"/>
<path d="M199.616 362.557C199.616 362.557 185.125 382.692 191.405 399.318C197.685 415.945 216.635 403.459 216.635 403.459" fill="white"/>
<path d="M199.616 362.557C199.616 362.557 185.125 382.692 191.405 399.318C197.685 415.945 216.634 403.459 216.634 403.459" stroke="#1A1A1A" stroke-width="0.733746" stroke-linecap="round" stroke-linejoin="round"/>
<path d="M210.716 406.38C210.716 406.38 214.455 427.655 218.127 432.747C230.93 435.666 236.997 420.632 236.65 405.606C231.383 402.267 226.502 390.11 226.502 390.11" fill="white"/>
<path d="M210.716 406.38C210.716 406.38 214.455 427.655 218.127 432.747C230.93 435.666 236.997 420.632 236.65 405.606C231.383 402.267 226.502 390.11 226.502 390.11" stroke="#1A1A1A" stroke-width="0.733746" stroke-linecap="round" stroke-linejoin="round"/>
<path d="M215.789 403.884L210.984 408.722L210.716 406.205L215.789 403.884Z" fill="#9376EF" stroke="#1A1A1A" stroke-width="0.366773" stroke-linecap="round" stroke-linejoin="round"/>
<path d="M198.638 344.713C196.621 343.967 186.919 363.058 204.446 370.315C209.572 373.17 211.139 372.619 209.56 375.982C207.981 379.346 208.342 382.755 210.507 383.159C212.671 383.563 216.35 380.728 217.86 378.712C219.37 376.696 224.524 380.253 223.564 383.821C222.604 387.39 218.943 389.124 219.12 390.523C221.108 394.419 222.116 398.292 230.09 395.838C238.063 393.384 237.439 379.102 236.465 374.555C235.491 370.008 233.282 362.025 221.683 359.364C210.084 356.704 200.654 345.459 198.638 344.713Z" fill="#9376EF" stroke="#1A1A1A" stroke-width="0.366773" stroke-linecap="round" stroke-linejoin="round"/>
<path d="M207.843 477.892C200.798 480.646 195.877 490.467 199.282 490.791C201.69 491.02 213.659 490.951 220.47 490.891C219.884 486.04 218.878 481.356 215.918 477.278C213.558 476.822 210.716 476.769 207.843 477.892Z" fill="white" stroke="#1A1A1A" stroke-width="0.733746" stroke-linecap="round" stroke-linejoin="round"/>
<path d="M263.826 420.369C263.826 420.369 312.34 455.323 306.182 475.924C300.025 496.525 227.663 490.839 224.91 490.792C222.056 488.18 217.397 472.453 219.307 471.277C221.217 470.101 251.879 470.911 254.341 468.246C256.804 465.581 257.662 464.08 249.316 457.072C240.969 450.065 231.67 432.824 245.798 423.647C249.607 422.58 250.523 422.544 250.523 422.544M216.057 439.797C216.057 439.797 212.821 452.275 218.351 460.86L216.057 439.797Z" fill="#DACAFF"/>
<path d="M263.826 420.369C263.826 420.369 312.34 455.323 306.182 475.924C300.025 496.525 227.663 490.839 224.91 490.792C222.056 488.18 217.397 472.453 219.307 471.277C221.217 470.101 251.879 470.911 254.341 468.246C256.804 465.581 257.662 464.08 249.316 457.072C240.969 450.065 231.67 432.824 245.798 423.647C249.607 422.58 250.523 422.544 250.523 422.544M216.057 439.797C216.057 439.797 212.821 452.275 218.351 460.86" stroke="#1A1A1A" stroke-width="0.733746" stroke-linecap="round" stroke-linejoin="round"/>
<path d="M221.752 479.455C219.942 478.409 217.97 477.674 215.918 477.28C218.879 481.358 219.884 486.041 220.47 490.892C223.295 490.867 225.234 490.843 225.234 490.843C225.234 490.843 223.135 480.18 221.752 479.455Z" fill="#9376EF" stroke="#1A1A1A" stroke-width="0.733746" stroke-linecap="round" stroke-linejoin="round"/>
<path d="M144.73 483.329H94.1475V490.171H144.73V483.329Z" fill="#9376EF" stroke="#1A1A1A" stroke-width="0.366773" stroke-linecap="round" stroke-linejoin="round"/>
<path d="M75.0445 437.107C75.411 437.84 98.9124 480.854 98.9124 480.854L93.903 483.023L70.4446 440.147L75.0445 437.107Z" fill="white" stroke="#1A1A1A" stroke-width="0.733746" stroke-linecap="round" stroke-linejoin="round"/>
<path d="M514.402 225.417C521.334 225.417 526.954 219.797 526.954 212.865C526.954 205.932 521.334 200.312 514.402 200.312C507.469 200.312 501.849 205.932 501.849 212.865C501.849 219.797 507.469 225.417 514.402 225.417Z" fill="#9376EF" stroke="#1A1A1A" stroke-width="0.366773" stroke-linecap="round" stroke-linejoin="round"/>
<path d="M528.739 282.636C542.724 282.636 554.06 271.3 554.06 257.315C554.06 243.331 542.724 231.994 528.739 231.994C514.755 231.994 503.418 243.331 503.418 257.315C503.418 271.3 514.755 282.636 528.739 282.636Z" fill="white" stroke="#1A1A1A" stroke-width="0.733746" stroke-linecap="round" stroke-linejoin="round"/>
<path d="M208.05 258.921V254.945H203.949C203.788 254.364 203.557 253.805 203.26 253.281L206.16 250.381L203.348 247.569L200.448 250.469C199.924 250.172 199.365 249.941 198.784 249.78V245.681H194.81V249.78C194.229 249.941 193.67 250.172 193.146 250.469L190.246 247.569L187.434 250.381L190.334 253.281C190.037 253.805 189.806 254.364 189.645 254.945H185.544V258.921H189.645C189.806 259.502 190.037 260.061 190.334 260.585L187.434 263.485L190.246 266.297L193.146 263.397C193.67 263.694 194.229 263.925 194.81 264.086V268.185H198.784V264.086C199.365 263.925 199.924 263.694 200.448 263.397L203.348 266.297L206.16 263.485L203.26 260.585C203.557 260.061 203.788 259.502 203.949 258.921H208.05ZM200.239 258.921C199.89 259.525 199.388 260.027 198.784 260.376C198.484 260.551 198.161 260.685 197.825 260.774C197.151 260.954 196.441 260.954 195.767 260.774C195.432 260.685 195.11 260.551 194.81 260.376C193.898 259.848 193.231 258.98 192.955 257.962C192.867 257.626 192.822 257.28 192.822 256.933C192.822 256.586 192.867 256.24 192.957 255.904C193.046 255.568 193.18 255.246 193.355 254.945C193.704 254.341 194.206 253.839 194.81 253.49C195.11 253.315 195.432 253.181 195.767 253.092C196.441 252.912 197.151 252.912 197.825 253.092C198.161 253.181 198.484 253.315 198.784 253.49C199.388 253.839 199.89 254.341 200.239 254.945C200.414 255.246 200.548 255.568 200.637 255.904C200.727 256.24 200.772 256.586 200.772 256.933C200.772 257.28 200.727 257.626 200.639 257.962C200.548 258.298 200.414 258.62 200.239 258.921Z" fill="#9376EF" stroke="#1A1A1A" stroke-width="0.366773" stroke-linecap="round" stroke-linejoin="round"/>
</g>
</g>
<defs>
<clipPath id="clip0_130_15063">
<rect width="598" height="598" fill="white"/>
</clipPath>
<clipPath id="clip1_130_15063">
<rect width="598" height="598" fill="white"/>
</clipPath>
</defs>
</svg>
