<svg width="229" height="167" viewBox="0 0 229 167" fill="none" xmlns="http://www.w3.org/2000/svg">
<g clip-path="url(#clip0_209_17593)">
<path d="M145.368 162.09C142.926 156.388 147.618 145.673 153.63 141.164C161.059 135.59 174.406 140.096 175.531 140.797C175.957 139.811 182.71 124.896 196.459 124.34C207.098 123.909 212.01 127.657 216.153 141.715C216.505 141.559 221.787 141.9 225.186 145.474C229.263 149.76 228.88 159.592 225.17 165.872H149.68C146.997 164.934 145.882 163.29 145.368 162.09Z" stroke="#A9ACB7" stroke-width="0.8" stroke-linecap="round" stroke-linejoin="round"/>
<path d="M183.863 144.713C175.492 138.29 165.856 140.383 164.543 140.692C163.378 131.631 156.887 124.477 148.754 122.941C139.604 121.213 132.679 127.405 131.886 128.139C129.144 122.478 123.043 111.903 111.095 104.014C97.7263 95.1867 73.077 87.1072 55.1948 99.8947C45.6391 106.728 41.6303 116.935 39.8958 123.432C28.3935 118.767 15.1009 123.18 8.7095 133.729C2.39607 144.15 4.49664 157.785 13.7111 165.871H192.591C192.667 165.226 193.942 152.447 183.863 144.713Z" fill="#0C0C0E" stroke="#A9ACB7" stroke-width="0.8" stroke-linecap="round" stroke-linejoin="round"/>
<path d="M182.14 8.57397C182.14 6.35013 181.257 4.21737 179.684 2.64488C178.112 1.07238 175.979 0.188965 173.755 0.188965H60.7909C58.567 0.188965 56.4343 1.07238 54.8618 2.64488C53.2893 4.21737 52.4059 6.35013 52.4059 8.57397V9.8469H182.14V8.57397Z" fill="#DACAFF" stroke="#A9ACB7" stroke-width="0.1472" stroke-linecap="round" stroke-linejoin="round"/>
<path d="M52.4059 9.84668V80.2591C52.4059 82.4829 53.2893 84.6157 54.8618 86.1882C56.4343 87.7607 58.567 88.6441 60.7909 88.6441H173.755C175.979 88.6441 178.112 87.7607 179.684 86.1882C181.257 84.6157 182.14 82.4829 182.14 80.2591V9.84668H52.4059Z" fill="#0C0C0E" stroke="#A9ACB7" stroke-width="0.8" stroke-linecap="round" stroke-linejoin="round"/>
<path d="M52.4059 20.4385H182.14" stroke="#A9ACB7" stroke-width="0.8" stroke-linecap="round" stroke-linejoin="round" stroke-dasharray="1.77 1.77"/>
<path d="M133.455 13.3774H120.215V17.2022H133.455V13.3774Z" fill="#DACAFF" stroke="#A9ACB7" stroke-width="0.8" stroke-linecap="round" stroke-linejoin="round"/>
<path d="M151.402 13.3774H138.162V17.2022H151.402V13.3774Z" fill="#0C0C0E" stroke="#A9ACB7" stroke-width="0.8" stroke-linecap="round" stroke-linejoin="round"/>
<path d="M169.348 13.3774H156.109V17.2022H169.348V13.3774Z" fill="#0C0C0E" stroke="#A9ACB7" stroke-width="0.8" stroke-linecap="round" stroke-linejoin="round"/>
<path d="M83.8227 13.3774H58.7252V44.4166H83.8227V13.3774Z" fill="#0C0C0E" stroke="#A9ACB7" stroke-width="0.8" stroke-linecap="round" stroke-linejoin="round"/>
<path d="M78.3566 29.9575H64.6077V31.217H78.3566V29.9575Z" fill="#0C0C0E" stroke="#A9ACB7" stroke-width="0.8" stroke-linecap="round" stroke-linejoin="round"/>
<path d="M80.3507 33.6309H62.6135V34.8903H80.3507V33.6309Z" fill="#0C0C0E" stroke="#A9ACB7" stroke-width="0.8" stroke-linecap="round" stroke-linejoin="round"/>
<path d="M80.3507 36.8848H62.6135V38.1442H80.3507V36.8848Z" fill="#0C0C0E" stroke="#A9ACB7" stroke-width="0.8" stroke-linecap="round" stroke-linejoin="round"/>
<path d="M71.274 25.9553C73.6911 25.9553 75.6506 23.9958 75.6506 21.5787C75.6506 19.1616 73.6911 17.2021 71.274 17.2021C68.8569 17.2021 66.8975 19.1616 66.8975 21.5787C66.8975 23.9958 68.8569 25.9553 71.274 25.9553Z" fill="#DACAFF" stroke="#0C0C0E" stroke-width="0.8" stroke-linecap="round" stroke-linejoin="round"/>
<path d="M79.4834 82.3979H62.6135V85.3731H79.4834V82.3979Z" fill="#DACAFF"/>
<path d="M172.732 88.6441H89.0289V82.3979H181.865C180.149 87.3775 176.735 88.6522 172.732 88.6441Z" fill="#DACAFF" stroke="#A9ACB7" stroke-width="0.8" stroke-linecap="round" stroke-linejoin="round"/>
<path d="M89.0289 9.84668V88.644" stroke="#A9ACB7" stroke-width="0.8" stroke-linecap="round" stroke-linejoin="round" stroke-dasharray="1.77 1.77"/>
<path d="M114.629 28.897H94.1776V49.2455H114.629V28.897Z" stroke="#A9ACB7" stroke-width="0.5" stroke-linecap="round" stroke-linejoin="round" stroke-dasharray="1.77 1.77"/>
<path d="M143.681 28.897H123.229V49.2455H143.681V28.897Z" stroke="#A9ACB7" stroke-width="0.5" stroke-linecap="round" stroke-linejoin="round" stroke-dasharray="1.77 1.77"/>
<path d="M172.732 28.897H152.28V49.2455H172.732V28.897Z" stroke="#A9ACB7" stroke-width="0.5" stroke-linecap="round" stroke-linejoin="round" stroke-dasharray="1.77 1.77"/>
<path d="M114.629 55.605H94.1776V75.9535H114.629V55.605Z" stroke="#A9ACB7" stroke-width="0.5" stroke-linecap="round" stroke-linejoin="round" stroke-dasharray="1.77 1.77"/>
<path d="M143.681 55.605H123.229V75.9535H143.681V55.605Z" stroke="#A9ACB7" stroke-width="0.5" stroke-linecap="round" stroke-linejoin="round" stroke-dasharray="1.77 1.77"/>
<path d="M172.732 55.605H152.28V75.9535H172.732V55.605Z" stroke="#A9ACB7" stroke-width="0.5" stroke-linecap="round" stroke-linejoin="round" stroke-dasharray="1.77 1.77"/>
<path d="M113.359 47.6947C107.633 48.0214 100.712 47.5094 99.0326 45.963C97.3533 44.4166 97.0943 43.5706 96.6096 41.3057C95.9339 38.1484 95.7288 34.1413 95.6216 29.9575H113.359V47.6947Z" fill="#0C0C0E" stroke="#A9ACB7" stroke-width="0.5" stroke-linecap="round" stroke-linejoin="round"/>
<path d="M96.4707 40.6086C97.1624 43.4931 101.132 43.5491 101.132 43.5491C101.132 43.5491 101.212 45.9988 103.031 47.3156M142.323 47.6947C136.598 48.0214 129.676 47.5094 127.997 45.963C126.318 44.4166 126.059 43.5706 125.574 41.3057C124.898 38.1484 124.693 34.1413 124.586 29.9575H142.323V47.6947Z" fill="#0C0C0E"/>
<path d="M96.4707 40.6086C97.1624 43.4931 101.132 43.5491 101.132 43.5491C101.132 43.5491 101.212 45.9988 103.031 47.3156M142.323 47.6947C136.598 48.0214 129.676 47.5094 127.997 45.963C126.318 44.4166 126.059 43.5706 125.574 41.3057C124.898 38.1484 124.693 34.1413 124.586 29.9575H142.323V47.6947Z" stroke="#A9ACB7" stroke-width="0.5" stroke-linecap="round" stroke-linejoin="round"/>
<path d="M125.435 40.6086C126.127 43.4931 130.096 43.5491 130.096 43.5491C130.096 43.5491 130.177 45.9988 131.995 47.3156M171.288 47.6947C165.562 48.0214 158.641 47.5094 156.962 45.963C155.282 44.4166 155.023 43.5706 154.539 41.3057C153.863 38.1484 153.658 34.1413 153.551 29.9575H171.288V47.6947Z" fill="#0C0C0E"/>
<path d="M125.435 40.6086C126.127 43.4931 130.096 43.5491 130.096 43.5491C130.096 43.5491 130.177 45.9988 131.995 47.3156M171.288 47.6947C165.562 48.0214 158.641 47.5094 156.962 45.963C155.282 44.4166 155.023 43.5706 154.539 41.3057C153.863 38.1484 153.658 34.1413 153.551 29.9575H171.288V47.6947Z" stroke="#A9ACB7" stroke-width="0.5" stroke-linecap="round" stroke-linejoin="round"/>
<path d="M154.4 40.6084C155.092 43.4929 159.061 43.5489 159.061 43.5489C159.061 43.5489 159.141 45.9986 160.96 47.3154M113.359 74.6006C107.633 74.9273 100.712 74.4153 99.0326 72.8688C97.3533 71.3224 97.0943 70.4764 96.6096 68.2115C95.9339 65.0542 95.7288 61.0472 95.6216 56.8634H113.359V74.6006Z" fill="#0C0C0E"/>
<path d="M154.4 40.6084C155.092 43.4929 159.061 43.5489 159.061 43.5489C159.061 43.5489 159.141 45.9986 160.96 47.3154M113.359 74.6006C107.633 74.9273 100.712 74.4153 99.0326 72.8688C97.3533 71.3224 97.0943 70.4764 96.6096 68.2115C95.9339 65.0542 95.7288 61.0472 95.6216 56.8634H113.359V74.6006Z" stroke="#A9ACB7" stroke-width="0.5" stroke-linecap="round" stroke-linejoin="round"/>
<path d="M96.4707 67.5144C97.1624 70.3988 101.132 70.4548 101.132 70.4548C101.132 70.4548 101.212 72.9046 103.031 74.2214M142.323 74.6005C136.598 74.9272 129.676 74.4152 127.997 72.8688C126.318 71.3224 126.059 70.4764 125.574 68.2114C124.898 65.0541 124.693 61.0471 124.586 56.8633H142.323V74.6005Z" fill="#0C0C0E"/>
<path d="M96.4707 67.5144C97.1624 70.3988 101.132 70.4548 101.132 70.4548C101.132 70.4548 101.212 72.9046 103.031 74.2214M142.323 74.6005C136.598 74.9272 129.676 74.4152 127.997 72.8688C126.318 71.3224 126.059 70.4764 125.574 68.2114C124.898 65.0541 124.693 61.0471 124.586 56.8633H142.323V74.6005Z" stroke="#A9ACB7" stroke-width="0.5" stroke-linecap="round" stroke-linejoin="round"/>
<path d="M125.435 67.5144C126.127 70.3988 130.096 70.4548 130.096 70.4548C130.096 70.4548 130.177 72.9046 131.995 74.2214M171.288 74.6005C165.562 74.9272 158.641 74.4152 156.962 72.8688C155.282 71.3224 155.023 70.4764 154.539 68.2114C153.863 65.0541 153.658 61.0471 153.551 56.8633H171.288V74.6005Z" fill="#0C0C0E"/>
<path d="M125.435 67.5144C126.127 70.3988 130.096 70.4548 130.096 70.4548C130.096 70.4548 130.177 72.9046 131.995 74.2214M171.288 74.6005C165.562 74.9272 158.641 74.4152 156.962 72.8688C155.282 71.3224 155.023 70.4764 154.539 68.2114C153.863 65.0541 153.658 61.0471 153.551 56.8633H171.288V74.6005Z" stroke="#A9ACB7" stroke-width="0.5" stroke-linecap="round" stroke-linejoin="round"/>
<path d="M154.4 67.5146C155.092 70.3991 159.061 70.4551 159.061 70.4551C159.061 70.4551 159.141 72.9049 160.96 74.2217" fill="#0C0C0E"/>
<path d="M154.4 67.5146C155.092 70.3991 159.061 70.4551 159.061 70.4551C159.061 70.4551 159.141 72.9049 160.96 74.2217" stroke="#A9ACB7" stroke-width="0.5" stroke-linecap="round" stroke-linejoin="round"/>
<path d="M1.05994 165.872H213.48" stroke="#A9ACB7" stroke-width="0.8" stroke-linecap="round" stroke-linejoin="round"/>
<path d="M167.534 98.6443C168.662 96.3397 168.221 94.8686 166.602 95.1628C164.984 95.457 155.422 99.7721 154.442 100.9C153.836 101.596 154.502 104.75 155.099 107.061C155.155 107.033 155.211 107.007 155.266 106.985C157.293 106.352 159.401 105.855 161.52 105.623C161.41 105.192 161.295 104.74 161.182 104.283C161.499 103.646 166.406 100.949 167.534 98.6443Z" fill="#9376EF" stroke="#0C0C0E" stroke-width="0.8" stroke-linecap="round" stroke-linejoin="round"/>
<path d="M158.757 144.688C158.757 144.688 152.971 137.137 155.324 108.991C155.422 107.618 159.051 106.539 162.091 106.539C164.935 110.56 171.506 137.039 171.8 140.766C172.094 144.492 170.819 149.215 170.525 149.207C170.231 149.2 158.757 144.688 158.757 144.688Z" fill="#DACAFF" stroke="#0C0C0E" stroke-width="0.8" stroke-linecap="round" stroke-linejoin="round"/>
<path d="M158.718 110.93C158.718 110.93 163.894 145.928 167.253 149.734" stroke="#0C0C0E" stroke-width="0.8" stroke-linecap="round" stroke-linejoin="round" stroke-dasharray="1.77 1.77"/>
<path d="M209.41 114.336C208.135 112.816 200.339 105.902 197.691 105.853C195.655 105.815 192.65 110.009 191.37 111.95C193.804 111.34 196.167 112.362 197.642 114.179C197.955 113.89 198.26 113.698 198.524 113.698C199.603 113.698 202.741 116.346 206.615 117.327C210.489 118.308 210.685 115.856 209.41 114.336Z" fill="#9376EF" stroke="#0C0C0E" stroke-width="0.8" stroke-linecap="round" stroke-linejoin="round"/>
<path d="M191.316 112.522C171.604 126.153 169.054 146.185 169.054 146.185C169.054 146.185 157.384 141.256 146.694 140.079C136.005 138.902 124.236 147.173 124.236 147.173L124.286 148.357L125.021 165.872H150.029C154.246 165.872 173.86 167.637 177.979 162.145C182.097 156.653 196.906 116.542 196.906 115.66C196.906 114.777 195.729 112.423 191.316 112.522Z" fill="#DACAFF" stroke="#0C0C0E" stroke-width="0.8" stroke-linecap="round" stroke-linejoin="round"/>
<path d="M133.038 156.794C133.038 156.794 163.264 154.695 170.926 156.794C176.908 144.725 189.449 119.262 194.199 115.831" stroke="#0C0C0E" stroke-width="0.8" stroke-linecap="round" stroke-linejoin="round" stroke-dasharray="1.77 1.77"/>
<path d="M66.8208 154.927C66.8208 154.927 76.6718 145.264 78.8169 141.794C81.0173 139.6 79.6811 131.97 86.8605 131.098C86.8605 131.098 94.9288 128.498 110.146 137.32C122.67 145.071 125.07 148.068 126.172 149.865C127.273 151.662 129.972 160.389 125.554 165.936C110.916 166.219 87.502 164.81 84.4565 164.734" fill="#9376EF"/>
<path d="M66.8208 154.927C66.8208 154.927 76.6718 145.264 78.8169 141.794C81.0173 139.6 79.6811 131.97 86.8605 131.098C86.8605 131.098 94.9288 128.498 110.146 137.32C122.67 145.071 125.07 148.068 126.172 149.865C127.273 151.662 129.972 160.389 125.554 165.936C110.916 166.219 87.502 164.81 84.4565 164.734" stroke="#0C0C0E" stroke-width="0.8" stroke-linecap="round" stroke-linejoin="round"/>
<path d="M67.5028 136.743C67.5028 136.743 69.5389 133.62 67.8351 131.479C66.1314 129.338 65.0884 126.533 66.1516 124.871C67.2148 123.21 68.9317 123.192 69.9244 124.723C70.9171 126.254 75.6882 131.513 73.8623 133.744C72.0363 135.975 70.3914 139.475 70.3914 139.475L67.5028 136.743Z" fill="#DACAFF" stroke="#0C0C0E" stroke-width="0.8" stroke-linecap="round" stroke-linejoin="round"/>
<path d="M72.1267 157.883C65.593 155.527 70.6472 141.821 71.1441 140.108C71.6409 138.396 68.7618 136.939 68.0968 136.253C67.4319 135.568 66.7494 136.306 66.7494 136.306C66.7494 136.306 52.8073 154.228 54.9198 161.137C57.0324 168.047 75.6926 165.251 75.6926 165.251C75.6926 165.251 86.4092 166.113 86.9539 165.724C87.4986 165.335 86.9539 160.869 86.9539 160.869" fill="#9376EF"/>
<path d="M72.1267 157.883C65.593 155.527 70.6472 141.821 71.1441 140.108C71.6409 138.396 68.7618 136.939 68.0968 136.253C67.4319 135.568 66.7494 136.306 66.7494 136.306C66.7494 136.306 52.8073 154.228 54.9198 161.137C57.0324 168.047 75.6926 165.251 75.6926 165.251C75.6926 165.251 86.4092 166.113 86.9539 165.724C87.4986 165.335 86.9539 160.869 86.9539 160.869" stroke="#0C0C0E" stroke-width="0.8" stroke-linecap="round" stroke-linejoin="round"/>
<path d="M86.4999 120C86.4999 120 72.4054 112.68 71.5 114.5C70.0282 117.459 67.7576 125.13 69.318 129.262C71.8384 135.935 79.4435 130.924 79.4435 130.924" fill="#DACAFF"/>
<path d="M86.4999 120C86.4999 120 72.4054 112.68 71.5 114.5C70.0282 117.459 67.7576 125.13 69.318 129.262C71.8384 135.935 79.4435 130.924 79.4435 130.924" stroke="#0C0C0E" stroke-width="0.8" stroke-linecap="round" stroke-linejoin="round"/>
<path d="M77.0682 132.096C77.0682 132.096 78.5689 140.634 80.0426 142.678C85.181 143.849 87.616 137.815 87.4765 131.785C85.3626 130.445 83.4037 125.566 83.4037 125.566" fill="#DACAFF"/>
<path d="M77.0682 132.096C77.0682 132.096 78.5689 140.634 80.0426 142.678C85.181 143.849 87.616 137.815 87.4765 131.785C85.3626 130.445 83.4037 125.566 83.4037 125.566" stroke="#0C0C0E" stroke-width="0.8" stroke-linecap="round" stroke-linejoin="round"/>
<path d="M79.1045 131.094L77.1759 133.035L77.0682 132.025L79.1045 131.094Z" fill="#DACAFF" stroke="#0C0C0E" stroke-width="0.8" stroke-linecap="round" stroke-linejoin="round"/>
<path d="M72.2209 107.346C71.4116 107.047 67.5178 114.709 74.5519 117.621C76.609 118.767 77.2383 118.546 76.6045 119.896C75.9706 121.246 76.1155 122.614 76.9843 122.776C77.853 122.938 79.3295 121.801 79.9355 120.991C80.5416 120.182 82.6098 121.61 82.2246 123.042C81.8394 124.474 80.3701 125.17 80.4413 125.732C81.239 127.295 81.6438 128.849 84.8438 127.865C88.0438 126.88 87.7934 121.148 87.4025 119.323C87.0116 117.498 86.1247 114.294 81.4698 113.227C76.8148 112.159 73.0301 107.646 72.2209 107.346Z" fill="#9376EF" stroke="#0C0C0E" stroke-width="0.8" stroke-linecap="round" stroke-linejoin="round"/>
<path d="M75.9152 160.796C73.088 161.901 71.1127 165.843 72.4796 165.973C73.4458 166.065 78.2493 166.037 80.983 166.013C80.7477 164.066 80.3442 162.187 79.1559 160.55C78.2089 160.367 77.0681 160.346 75.9152 160.796Z" fill="#DACAFF" stroke="#0C0C0E" stroke-width="0.8" stroke-linecap="round" stroke-linejoin="round"/>
<path d="M98.3833 137.71C98.3833 137.71 117.854 151.738 115.382 160.006C112.911 168.274 83.8698 165.992 82.7649 165.973C81.6195 164.925 79.7495 158.613 80.5161 158.141C81.2827 157.67 93.5883 157.994 94.5767 156.925C95.5651 155.855 95.9094 155.253 92.5598 152.441C89.2101 149.628 85.4778 142.709 91.1478 139.026C92.6767 138.597 93.0442 138.583 93.0442 138.583M79.2116 145.507C79.2116 145.507 77.9131 150.515 80.1325 153.961L79.2116 145.507Z" fill="#9376EF"/>
<path d="M98.3833 137.71C98.3833 137.71 117.854 151.738 115.382 160.006C112.911 168.274 83.8698 165.992 82.7649 165.973C81.6195 164.925 79.7495 158.613 80.5161 158.141C81.2827 157.67 93.5883 157.994 94.5767 156.925C95.5651 155.855 95.9094 155.253 92.5598 152.441C89.2101 149.628 85.4778 142.709 91.1478 139.026C92.6767 138.597 93.0442 138.583 93.0442 138.583M79.2116 145.507C79.2116 145.507 77.9131 150.515 80.1325 153.961" stroke="#0C0C0E" stroke-width="0.8" stroke-linecap="round" stroke-linejoin="round"/>
<path d="M81.4974 161.423C80.7711 161.004 79.9797 160.709 79.1559 160.55C80.3442 162.187 80.7477 164.067 80.983 166.013C82.1167 166.003 82.8948 165.994 82.8948 165.994C82.8948 165.994 82.0527 161.714 81.4974 161.423Z" fill="#DACAFF" stroke="#0C0C0E" stroke-width="0.8" stroke-linecap="round" stroke-linejoin="round"/>
<path d="M50.5855 162.979H30.2849V165.725H50.5855V162.979Z" fill="#DACAFF"/>
<path d="M22.6182 144.428C22.7653 144.722 32.1973 161.986 32.1973 161.986L30.1868 162.856L20.7721 145.649L22.6182 144.428Z" fill="#DACAFF"/>
<path d="M30.2848 76.6076C36.2651 76.6076 41.113 71.7597 41.113 65.7794C41.113 59.7991 36.2651 54.9512 30.2848 54.9512C24.3045 54.9512 19.4565 59.7991 19.4565 65.7794C19.4565 71.7597 24.3045 76.6076 30.2848 76.6076Z" fill="#0C0C0E" stroke="#A9ACB7" stroke-width="0.8" stroke-linecap="round" stroke-linejoin="round"/>
<path d="M31.8771 63.5688C32.3588 63.2882 32.7346 62.8566 32.9464 62.341C33.1583 61.8253 33.1943 61.2542 33.0489 60.7159C32.9036 60.1777 32.585 59.7024 32.1423 59.3634C31.6997 59.0245 31.1578 58.8408 30.6003 58.8408C30.0428 58.8408 29.5008 59.0245 29.0582 59.3634C28.6155 59.7024 28.2969 60.1777 28.1516 60.7159C28.0062 61.2542 28.0423 61.8253 28.2541 62.341C28.4659 62.8566 28.8417 63.2882 29.3235 63.5688C28.2175 63.8526 27.2374 64.4963 26.5375 65.3984C25.8376 66.3005 25.4576 67.4098 25.4575 68.5516V71.0355H35.743V68.5516C35.7429 67.4098 35.363 66.3005 34.6631 65.3984C33.9631 64.4963 32.983 63.8526 31.8771 63.5688Z" fill="#DACAFF"/>
<path d="M198.949 59.4681C201.731 59.4681 203.987 57.2126 203.987 54.4303C203.987 51.6481 201.731 49.3926 198.949 49.3926C196.167 49.3926 193.911 51.6481 193.911 54.4303C193.911 57.2126 196.167 59.4681 198.949 59.4681Z" fill="#DACAFF"/>
<path d="M204.703 82.433C210.315 82.433 214.865 77.8832 214.865 72.2707C214.865 66.6582 210.315 62.1084 204.703 62.1084C199.09 62.1084 194.541 66.6582 194.541 72.2707C194.541 77.8832 199.09 82.433 204.703 82.433Z" fill="#0C0C0E" stroke="#A9ACB7" stroke-width="0.8" stroke-linecap="round" stroke-linejoin="round"/>
<path d="M32.0328 30.749H10.7613C9.77726 30.749 8.83354 31.1399 8.13774 31.8357C7.44193 32.5315 7.05103 33.4753 7.05103 34.4593V38.9271C7.05103 39.9112 7.44193 40.8549 8.13774 41.5507C8.83355 42.2465 9.77726 42.6374 10.7613 42.6374H27.7492C28.4944 43.7212 29.7522 45.4899 30.8388 47.0086C31.3882 47.7766 32.5988 47.3068 32.4876 46.3692L32.0448 42.6371C33.0267 42.634 33.9673 42.2417 34.6605 41.5463C35.3538 40.8509 35.743 39.909 35.743 38.9271V34.4593C35.743 33.972 35.6471 33.4896 35.4606 33.0394C35.2741 32.5893 35.0009 32.1803 34.6563 31.8357C34.3118 31.4912 33.9028 31.2179 33.4526 31.0315C33.0025 30.845 32.52 30.749 32.0328 30.749Z" fill="#0C0C0E" stroke="#A9ACB7" stroke-width="0.8" stroke-linecap="round" stroke-linejoin="round"/>
<path d="M30.3835 33.1582H11.3868V34.8375H30.3835V33.1582Z" fill="#0C0C0E" stroke="#A9ACB7" stroke-width="0.5" stroke-linecap="round" stroke-linejoin="round"/>
<path d="M30.3835 37.3921H11.3868V39.0714H30.3835V37.3921Z" fill="#0C0C0E" stroke="#A9ACB7" stroke-width="0.5" stroke-linecap="round" stroke-linejoin="round"/>
<path d="M75.9985 72.9149V71.3193H74.3523C74.288 71.0862 74.1951 70.8618 74.0758 70.6515L75.2397 69.4876L74.1112 68.3592L72.9474 69.523C72.737 69.4037 72.5127 69.3108 72.2795 69.2465V67.6011H70.6847V69.2465C70.4515 69.3108 70.2272 69.4037 70.0168 69.523L68.853 68.3592L67.7245 69.4876L68.8883 70.6515C68.7691 70.8619 68.6762 71.0862 68.6118 71.3193H66.9657V72.9149H68.6118C68.6762 73.148 68.7691 73.3724 68.8883 73.5827L67.7245 74.7466L68.853 75.875L70.0168 74.7112C70.2272 74.8305 70.4515 74.9234 70.6847 74.9877V76.6331H72.2795V74.9877C72.5127 74.9234 72.737 74.8305 72.9474 74.7112L74.1112 75.875L75.2397 74.7466L74.0758 73.5827C74.1951 73.3723 74.288 73.148 74.3523 72.9149H75.9985ZM72.8636 72.9149C72.7235 73.1575 72.5221 73.3589 72.2795 73.499C72.159 73.5692 72.0295 73.6228 71.8947 73.6585C71.6241 73.7307 71.3393 73.7307 71.0688 73.6585C70.9341 73.6228 70.8049 73.5692 70.6847 73.499C70.3184 73.2869 70.0509 72.9386 69.9403 72.5301C69.9048 72.3953 69.8868 72.2565 69.8869 72.1171C69.8867 71.9777 69.9049 71.8388 69.941 71.7041C69.9767 71.5693 70.0304 71.4399 70.1006 71.3193C70.2408 71.0769 70.4422 70.8755 70.6846 70.7352C70.8049 70.665 70.9341 70.6114 71.0687 70.5757C71.3393 70.5035 71.6241 70.5035 71.8947 70.5757C72.0295 70.6114 72.159 70.665 72.2795 70.7352C72.5219 70.8755 72.7233 71.0769 72.8636 71.3193C72.9338 71.4399 72.9875 71.5693 73.0232 71.7041C73.0593 71.8388 73.0775 71.9777 73.0773 72.1171C73.0774 72.2565 73.0594 72.3953 73.0239 72.5301C72.9876 72.6648 72.9337 72.7942 72.8636 72.9149Z" fill="#DACAFF"/>
</g>
<defs>
<clipPath id="clip0_209_17593">
<rect width="229" height="167" fill="white"/>
</clipPath>
</defs>
</svg>
