<svg width="298" height="297" viewBox="0 0 298 297" fill="none" xmlns="http://www.w3.org/2000/svg">
<g clip-path="url(#clip0_213_23791)">
<path d="M71.7898 44.2871H52.4821V63.5949H71.7898V44.2871Z" fill="#0C0C0E" stroke="#A9ACB7" stroke-width="0.865885" stroke-linecap="round" stroke-linejoin="round"/>
<path d="M62.1359 47.5859V60.2961" stroke="#A9ACB7" stroke-width="0.865885" stroke-linecap="round" stroke-linejoin="round"/>
<path d="M55.8036 53.9409H68.3093" stroke="#A9ACB7" stroke-width="0.865885" stroke-linecap="round" stroke-linejoin="round"/>
<path d="M223.065 112.3C227.011 114.684 231.617 115.633 236.111 116.616C240.604 117.599 245.202 118.706 248.991 121.337C252.78 123.969 255.63 128.488 255.009 133.09C254.323 138.182 249.803 141.802 245.334 144.257C241.228 146.512 236.793 148.321 233.326 151.486C229.858 154.652 227.517 159.693 229.112 164.131C230.196 167.148 232.828 169.275 235.342 171.236C237.857 173.198 240.494 175.315 241.595 178.326C242.696 181.336 241.478 185.444 238.393 186.212" stroke="#A9ACB7" stroke-width="0.865885" stroke-linecap="round" stroke-linejoin="round"/>
<path d="M222.952 105.224C226.854 110.544 233.514 113.082 240.001 114.035C246.487 114.987 253.108 114.63 259.601 115.537C266.094 116.444 272.773 118.879 276.785 124.115C279.897 128.177 280.949 134.187 278.167 138.485C276.455 141.129 273.606 142.771 270.785 144.132C267.963 145.494 264.999 146.714 262.69 148.844C260.382 150.975 258.837 154.305 259.777 157.318C260.498 159.632 262.476 161.268 264.023 163.124C269.333 169.494 269.371 179.728 264.108 186.138" stroke="#A9ACB7" stroke-width="0.865885" stroke-linecap="round" stroke-linejoin="round"/>
<path d="M182.625 282.239C211.845 282.239 235.531 275.993 235.531 268.288C235.531 260.583 211.845 254.337 182.625 254.337C153.406 254.337 129.72 260.583 129.72 268.288C129.72 275.993 153.406 282.239 182.625 282.239Z" fill="#0C0C0E" stroke="#A9ACB7" stroke-width="0.865885" stroke-linecap="round" stroke-linejoin="round"/>
<path d="M225.042 23.2863C225.042 22.1667 224.821 21.0581 224.393 20.0237C223.964 18.9893 223.336 18.0495 222.544 17.2578C221.753 16.4661 220.813 15.8381 219.779 15.4097C218.744 14.9812 217.636 14.7607 216.516 14.7607H98.7971C97.6775 14.7607 96.5689 14.9812 95.5345 15.4097C94.5001 15.8381 93.5602 16.4661 92.7686 17.2578C91.9769 18.0495 91.3489 18.9893 90.9204 20.0237C90.492 21.0581 90.2715 22.1667 90.2715 23.2863V24.2701H225.042V23.2863Z" fill="#9376EF"/>
<path d="M90.2715 24.27V116.351C90.2715 117.47 90.492 118.579 90.9204 119.613C91.3489 120.648 91.9769 121.588 92.7686 122.379C93.5602 123.171 94.5001 123.799 95.5345 124.227C96.5689 124.656 97.6775 124.876 98.7971 124.876H216.516C217.636 124.876 218.744 124.656 219.779 124.227C220.813 123.799 221.753 123.171 222.544 122.379C223.336 121.588 223.964 120.648 224.393 119.613C224.821 118.579 225.042 117.47 225.042 116.351V24.27H90.2715Z" fill="#0C0C0E" stroke="#A9ACB7" stroke-width="0.865885" stroke-linecap="round" stroke-linejoin="round"/>
<path d="M151.672 67.2002V68.5374H150.335" stroke="#1A1A1A" stroke-width="0.865885" stroke-linecap="round" stroke-linejoin="round"/>
<path d="M147.58 68.5376H104.873" stroke="#A9ACB7" stroke-width="0.865885" stroke-linecap="round" stroke-linejoin="round" stroke-dasharray="5.35 5.35"/>
<path d="M103.495 68.5374H102.158V67.2002" stroke="#1A1A1A" stroke-width="0.865885" stroke-linecap="round" stroke-linejoin="round"/>
<path d="M102.158 64.6563V35.4043" stroke="#A9ACB7" stroke-width="0.865885" stroke-linecap="round" stroke-linejoin="round" stroke-dasharray="4.94 4.94"/>
<path d="M102.158 34.1326V32.7954H103.495" stroke="#1A1A1A" stroke-width="0.865885" stroke-linecap="round" stroke-linejoin="round"/>
<path d="M106.251 32.7954H148.957" stroke="#A9ACB7" stroke-width="0.865885" stroke-linecap="round" stroke-linejoin="round" stroke-dasharray="5.35 5.35"/>
<path d="M150.335 32.7954H151.672V34.1326" stroke="#1A1A1A" stroke-width="0.865885" stroke-linecap="round" stroke-linejoin="round"/>
<path d="M151.672 36.6763V65.9283" stroke="#A9ACB7" stroke-width="0.865885" stroke-linecap="round" stroke-linejoin="round" stroke-dasharray="4.94 4.94"/>
<path d="M213.155 113.812V115.15H211.818" stroke="#1A1A1A" stroke-width="0.865885" stroke-linecap="round" stroke-linejoin="round"/>
<path d="M209.062 115.15H166.356" stroke="#A9ACB7" stroke-width="0.865885" stroke-linecap="round" stroke-linejoin="round" stroke-dasharray="5.35 5.35"/>
<path d="M164.978 115.15H163.641V113.812" stroke="#1A1A1A" stroke-width="0.865885" stroke-linecap="round" stroke-linejoin="round"/>
<path d="M163.641 111.065V35.5063" stroke="#A9ACB7" stroke-width="0.865885" stroke-linecap="round" stroke-linejoin="round" stroke-dasharray="5.34 5.34"/>
<path d="M163.641 34.1326V32.7954H164.978" stroke="#1A1A1A" stroke-width="0.865885" stroke-linecap="round" stroke-linejoin="round"/>
<path d="M167.733 32.7954H210.44" stroke="#A9ACB7" stroke-width="0.865885" stroke-linecap="round" stroke-linejoin="round" stroke-dasharray="5.35 5.35"/>
<path d="M211.818 32.7954H213.155V34.1326" stroke="#1A1A1A" stroke-width="0.865885" stroke-linecap="round" stroke-linejoin="round"/>
<path d="M213.155 36.8804V112.439" stroke="#A9ACB7" stroke-width="0.865885" stroke-linecap="round" stroke-linejoin="round" stroke-dasharray="5.34 5.34"/>
<path d="M210.747 34.6138H166.049V113.331H210.747V34.6138Z" fill="#0C0C0E" stroke="#A9ACB7" stroke-width="0.865885" stroke-linecap="round" stroke-linejoin="round"/>
<path d="M151.672 113.812V115.15H150.335" stroke="#1A1A1A" stroke-width="0.865885" stroke-linecap="round" stroke-linejoin="round"/>
<path d="M147.58 115.15H104.873" stroke="#A9ACB7" stroke-width="0.865885" stroke-linecap="round" stroke-linejoin="round" stroke-dasharray="5.35 5.35"/>
<path d="M103.495 115.15H102.158V113.812" stroke="#1A1A1A" stroke-width="0.865885" stroke-linecap="round" stroke-linejoin="round"/>
<path d="M102.158 111.088V79.7622" stroke="#A9ACB7" stroke-width="0.865885" stroke-linecap="round" stroke-linejoin="round" stroke-dasharray="5.29 5.29"/>
<path d="M102.158 78.4002V77.063H103.495" stroke="#1A1A1A" stroke-width="0.865885" stroke-linecap="round" stroke-linejoin="round"/>
<path d="M106.251 77.063H148.957" stroke="#A9ACB7" stroke-width="0.865885" stroke-linecap="round" stroke-linejoin="round" stroke-dasharray="5.35 5.35"/>
<path d="M150.335 77.063H151.672V78.4002" stroke="#1A1A1A" stroke-width="0.865885" stroke-linecap="round" stroke-linejoin="round"/>
<path d="M151.672 81.124V112.45" stroke="#A9ACB7" stroke-width="0.865885" stroke-linecap="round" stroke-linejoin="round" stroke-dasharray="5.29 5.29"/>
<path d="M149.231 78.9404H104.599V113.272H149.231V78.9404Z" fill="#0C0C0E" stroke="#A9ACB7" stroke-width="0.865885" stroke-linecap="round" stroke-linejoin="round"/>
<path d="M137.818 66.7881C131.48 69.7388 125.794 73.1289 125.794 73.1289C125.794 73.1289 120.111 69.7388 113.773 66.7881C107.432 63.8373 107.542 60.8313 107.542 60.8313V36.6201C107.542 30.2816 117.05 28.5337 117.05 28.5337H134.538C134.538 28.5337 144.049 30.2816 144.049 36.6201V60.8313C144.049 60.8313 144.157 63.8373 137.818 66.7881Z" fill="#0C0C0E" stroke="#A9ACB7" stroke-width="0.865885" stroke-linecap="round" stroke-linejoin="round"/>
<path d="M125.794 68.6142C123.54 67.3382 119.643 65.2088 115.422 63.2438C112.547 61.9056 111.673 60.7754 111.452 60.4105V36.6205C111.452 34.2986 115.848 32.8286 117.463 32.4438H134.128C135.724 32.823 140.139 34.2943 140.139 36.6205V60.4092C139.917 60.7744 139.043 61.9052 136.168 63.2439C131.947 65.2089 128.049 67.3383 125.794 68.6142Z" fill="#0C0C0E" stroke="#A9ACB7" stroke-width="0.865885" stroke-linecap="round" stroke-linejoin="round"/>
<path d="M132.517 47.1415V44.7027C132.517 43.7163 132.324 42.7394 131.947 41.8278C131.57 40.9162 131.017 40.0879 130.32 39.3901C129.623 38.6923 128.795 38.1387 127.883 37.761C126.972 37.3834 125.995 37.189 125.009 37.189C124.023 37.189 123.046 37.3834 122.135 37.761C121.223 38.1387 120.395 38.6923 119.698 39.3901C119.001 40.0879 118.448 40.9162 118.071 41.8278C117.694 42.7394 117.501 43.7163 117.501 44.7027V47.1415C117.501 47.5075 117.647 47.8585 117.906 48.1173C118.164 48.3761 118.515 48.5215 118.881 48.5215C119.247 48.5215 119.598 48.3761 119.857 48.1173C120.116 47.8585 120.261 47.5075 120.261 47.1415L120.261 44.7027C120.262 43.4439 120.762 42.2368 121.653 41.3469C122.543 40.4569 123.75 39.957 125.009 39.957C126.268 39.957 127.475 40.4569 128.366 41.3469C129.256 42.2368 129.756 43.4439 129.757 44.7027V47.1415C129.757 47.5075 129.902 47.8585 130.161 48.1173C130.42 48.3761 130.771 48.5215 131.137 48.5215C131.503 48.5215 131.854 48.3761 132.113 48.1173C132.371 47.8585 132.517 47.5075 132.517 47.1415H132.517Z" fill="#9376EF" stroke="#0C0C0E" stroke-width="0.432942" stroke-linecap="round" stroke-linejoin="round"/>
<path d="M103.06 21.7012C104.509 21.7012 105.683 20.5267 105.683 19.0779C105.683 17.6291 104.509 16.4546 103.06 16.4546C101.611 16.4546 100.437 17.6291 100.437 19.0779C100.437 20.5267 101.611 21.7012 103.06 21.7012Z" fill="#DACAFF" stroke="#0C0C0E" stroke-width="0.5" stroke-linecap="round" stroke-linejoin="round"/>
<path d="M112.897 21.7012C114.346 21.7012 115.52 20.5267 115.52 19.0779C115.52 17.6291 114.346 16.4546 112.897 16.4546C111.448 16.4546 110.274 17.6291 110.274 19.0779C110.274 20.5267 111.448 21.7012 112.897 21.7012Z" fill="#DACAFF" stroke="#0C0C0E" stroke-width="0.5" stroke-linecap="round" stroke-linejoin="round"/>
<path d="M122.734 21.7012C124.183 21.7012 125.358 20.5267 125.358 19.0779C125.358 17.6291 124.183 16.4546 122.734 16.4546C121.286 16.4546 120.111 17.6291 120.111 19.0779C120.111 20.5267 121.286 21.7012 122.734 21.7012Z" fill="#DACAFF" stroke="#0C0C0E" stroke-width="0.5" stroke-linecap="round" stroke-linejoin="round"/>
<path d="M50.6127 251.909H233.398C257.487 245.946 259.515 224.079 251.365 210.171C244.381 198.251 231.751 191.724 212.43 198.453C195.651 178.911 167.629 169.96 142.689 175.763C116.408 181.879 104.842 201.751 103.033 204.991C98.1181 199.588 82.0925 182.993 68.8457 185.762C54.2315 188.817 44.9435 215.035 50.6127 251.909Z" stroke="#A9ACB7" stroke-width="1.29902" stroke-linecap="round" stroke-linejoin="round"/>
<path d="M68.3393 251.96H224.674C230.976 242.128 230.506 230.349 224.197 223.362C219.191 217.817 212.115 217.071 209.898 216.927C208.201 212.208 204.019 202.988 194.646 197.624C179.878 189.172 158.075 193.641 142.217 210.016C140.07 202.179 132.041 197.909 125.297 200.007C119.669 201.757 115.706 207.702 116.241 214.306C101.763 204.668 83.1521 206.989 73.1056 218.357C65.3725 227.108 63.5739 240.246 68.3393 251.96Z" fill="#0C0C0E" stroke="#A9ACB7" stroke-width="0.865885" stroke-linecap="round" stroke-linejoin="round"/>
<path d="M32.5922 251.959H251.365" stroke="#A9ACB7" stroke-width="1.29902" stroke-linecap="round" stroke-linejoin="round"/>
<path d="M184.67 256.132C184.091 254.916 183.525 253.985 183.525 253.985L175.422 256.289C175.422 256.289 174.843 256.82 173.968 257.676C177.069 259.463 181.53 258.252 184.67 256.132Z" fill="#9376EF" stroke="#A9ACB7" stroke-width="0.432942" stroke-linecap="round" stroke-linejoin="round"/>
<path d="M173.968 257.675C171.026 260.552 164.73 267.106 165.77 269.555C167.121 272.732 171.887 270.707 175.224 268.522C178.56 266.338 186.107 262.048 185.868 259.744C185.754 258.636 185.206 257.261 184.67 256.132C181.53 258.251 177.069 259.463 173.968 257.675Z" fill="#DACAFF" stroke="#0C0C0E" stroke-width="0.865885" stroke-linecap="round" stroke-linejoin="round"/>
<path d="M199.941 256.966C199.77 255.651 199.624 254.767 199.624 254.767L192.157 256.196C191.681 256.789 191.242 257.41 190.84 258.056C193.525 260.145 197.491 259.005 199.941 256.966Z" fill="#9376EF" stroke="#A9ACB7" stroke-width="0.432942" stroke-linecap="round" stroke-linejoin="round"/>
<path d="M199.941 256.966C197.491 259.005 193.525 260.145 190.84 258.056C190.271 258.964 189.655 260.111 189.297 261.28C188.503 263.875 184.796 275.315 188.238 276.215C191.68 277.115 196.288 274.097 197.506 270.019C198.724 265.941 200.63 265.199 200.419 261.757C200.313 260.034 200.114 258.284 199.941 256.966ZM162.819 147.816C162.819 147.816 144.362 178.082 144.838 190.713C145.315 203.344 171.927 255.932 174.628 257.203C177.329 258.474 182.571 256.329 184.319 254.74C186.067 253.151 183.128 245.128 181.857 241.236C180.586 237.343 175.21 214.2 167.055 201.278C174.045 191.322 181.883 178.188 183.048 168.55C184.213 158.911 185.206 146.781 185.206 146.781" fill="#9376EF"/>
<path d="M162.819 147.816C162.819 147.816 144.362 178.082 144.838 190.713C145.315 203.344 171.927 255.932 174.628 257.203C177.329 258.474 182.571 256.329 184.319 254.74C186.067 253.151 183.128 245.128 181.857 241.236C180.586 237.343 175.21 214.2 167.055 201.278C174.045 191.322 181.883 178.188 183.048 168.55C184.213 158.911 185.206 146.781 185.206 146.781M199.941 256.966C197.491 259.005 193.525 260.145 190.84 258.056C190.271 258.964 189.655 260.111 189.297 261.28C188.503 263.875 184.796 275.315 188.238 276.215C191.68 277.115 196.288 274.097 197.506 270.019C198.724 265.941 200.63 265.199 200.419 261.757C200.313 260.034 200.114 258.284 199.941 256.966Z" stroke="#0C0C0E" stroke-width="0.865885" stroke-linecap="round" stroke-linejoin="round"/>
<path d="M199.941 256.966C197.491 259.005 193.525 260.145 190.84 258.056C190.271 258.964 189.655 260.111 189.297 261.28C188.503 263.875 184.796 275.315 188.238 276.215C191.68 277.115 196.288 274.097 197.506 270.019C198.724 265.941 200.63 265.199 200.419 261.757C200.313 260.034 200.114 258.284 199.941 256.966Z" fill="#DACAFF" stroke="#0C0C0E" stroke-width="0.865885" stroke-linecap="round" stroke-linejoin="round"/>
<path d="M179.553 164.207C179.553 164.207 185.552 200.96 187.637 210.599C188.344 222.673 189.615 254.237 190.568 256.038C191.522 257.838 199.465 259.427 200.736 253.813C202.007 248.2 205.185 233.901 204.232 220.026C203.702 208.481 208.257 196.935 209.316 192.487C210.375 188.038 217.154 159.017 207.833 144.188L178.388 144.612" fill="#9376EF"/>
<path d="M179.553 164.207C179.553 164.207 185.552 200.96 187.637 210.599C188.344 222.673 189.615 254.237 190.568 256.038C191.522 257.838 199.465 259.427 200.736 253.813C202.007 248.2 205.185 233.901 204.232 220.026C203.702 208.481 208.257 196.935 209.316 192.487C210.375 188.038 217.154 159.017 207.833 144.188L178.388 144.612" stroke="#0C0C0E" stroke-width="0.865885" stroke-linecap="round" stroke-linejoin="round"/>
<path d="M175.66 152.582C182.651 152.252 186.385 153.47 189.959 153.106C193.534 152.741 207.482 151.594 209.431 147.203C208.204 143.447 163.348 146.781 163.348 146.781L161.199 150.554C161.199 150.554 162.315 154.25 175.66 152.582Z" fill="#9376EF" stroke="#0C0C0E" stroke-width="0.432942" stroke-linecap="round" stroke-linejoin="round"/>
<path d="M163.242 126.818C163.242 126.818 163.771 134.973 162.077 138.786C160.382 142.599 158.581 151.285 165.678 151.073C172.774 150.861 179.91 149.929 184.121 151.077C188.331 152.225 206.403 150.358 209.581 144.638C212.758 138.919 215.38 120.41 214.585 116.438C213.791 112.466 210.242 93.5595 203.397 91.9707C196.553 90.382 171.609 93.5595 171.609 93.5595" fill="#DACAFF"/>
<path d="M163.242 126.818C163.242 126.818 163.771 134.973 162.077 138.786C160.382 142.599 158.581 151.285 165.678 151.073C172.774 150.861 179.91 149.929 184.121 151.077C188.331 152.225 206.403 150.358 209.581 144.638C212.758 138.919 215.38 120.41 214.585 116.438C213.791 112.466 210.242 93.5595 203.397 91.9707C196.553 90.382 171.609 93.5595 171.609 93.5595" stroke="#0C0C0E" stroke-width="0.865885" stroke-linecap="round" stroke-linejoin="round"/>
<path d="M181.853 125.569C205.446 132.321 217.763 119.933 219.351 106.27C220.94 92.6063 208.945 86.8868 204.735 84.5036C200.525 82.1205 196.155 80.9289 189.085 81.0878C182.015 81.2467 175.528 82.1205 175.528 82.1205C175.528 82.1205 152.12 91.0176 150.955 112.731C149.79 134.444 175.846 132.431 188.556 120.992C196.076 115.273 195.758 115.763 196.235 113.856C196.711 111.95 197.903 102.417 194.011 104.76C190.118 107.104 183.286 116.358 171.371 115.405L166.128 114.372C166.128 114.372 164.976 114.611 165.333 113.936C165.691 113.26 167.736 112.089 168.014 110.857C168.292 109.626 168.451 107.461 167.041 107.322C167.697 106.568 169.285 106.965 171.113 108.137C172.94 109.308 180.824 111.963 183.498 112.439" fill="#DACAFF"/>
<path d="M181.853 125.569C205.446 132.321 217.763 119.933 219.351 106.27C220.94 92.6063 208.945 86.8868 204.735 84.5036C200.525 82.1205 196.155 80.9289 189.085 81.0878C182.015 81.2467 175.528 82.1205 175.528 82.1205C175.528 82.1205 152.12 91.0176 150.955 112.731C149.79 134.444 175.846 132.431 188.556 120.992C196.076 115.273 195.758 115.763 196.235 113.856C196.711 111.95 197.903 102.417 194.011 104.76C190.118 107.104 183.286 116.358 171.371 115.405L166.128 114.372C166.128 114.372 164.976 114.611 165.333 113.936C165.691 113.26 167.736 112.089 168.014 110.857C168.292 109.626 168.451 107.461 167.041 107.322C167.697 106.568 169.285 106.965 171.113 108.137C172.94 109.308 180.824 111.963 183.498 112.439" stroke="#0C0C0E" stroke-width="0.865885" stroke-linecap="round" stroke-linejoin="round"/>
<path d="M187.391 75.7128C174.098 75.6599 181.671 58.819 181.671 58.819L193.587 58.4482L196.553 67.0805L193.799 72.0057C193.799 72.0057 192.051 74.0711 192.475 77.2486C192.899 80.4262 196.553 84.2922 196.553 84.2922C196.553 84.2922 189.244 88.4759 180.347 84.0274C181.671 80.9558 183.101 78.043 183.398 75.0008" fill="#DACAFF"/>
<path d="M187.391 75.7128C174.098 75.6599 181.671 58.819 181.671 58.819L193.587 58.4482L196.553 67.0805L193.799 72.0057C193.799 72.0057 192.051 74.0711 192.475 77.2486C192.899 80.4262 196.553 84.2922 196.553 84.2922C196.553 84.2922 189.244 88.4759 180.347 84.0274C181.671 80.9558 183.101 78.043 183.398 75.0008" stroke="#0C0C0E" stroke-width="0.865885" stroke-linecap="round" stroke-linejoin="round"/>
<path d="M183 75.5C183 75.5 186.596 76.368 187.391 75.7127C184.471 75.5637 183.359 75.1474 183.359 75.1474L183 75.5ZM177.607 52.1327C177.607 52.2519 173.833 61.6256 184.875 61.7448C188.609 61.8639 189.403 61.2681 190.198 60.3546C190.992 59.4411 192.7 61.3873 191.429 62.7775C192.819 63.1746 194.249 62.698 194.209 65.3989C194.17 68.0998 192.064 68.3779 191.23 68.6162C192.184 71.476 193.415 72.7867 194.408 72.7867C196.553 72.3498 197.069 72.3895 197.824 67.3054C198.578 62.2214 199.77 59.2425 196.553 56.1046C193.653 53.2449 191.28 52.4505 188.038 53.3243C184.796 54.1981 182.174 55.072 178.52 51.6561C177.726 51.0206 177.607 52.1327 177.607 52.1327Z" fill="#9376EF" stroke="#0C0C0E" stroke-width="0.432942" stroke-linecap="round" stroke-linejoin="round"/>
<path d="M196.235 113.856C205.132 110.798 203.226 98.4849 203.226 98.4849Z" fill="#DACAFF"/>
<path d="M196.235 113.856C205.132 110.798 203.226 98.4849 203.226 98.4849" stroke="#0C0C0E" stroke-width="0.865885" stroke-linecap="round" stroke-linejoin="round"/>
<path d="M167.266 108.415C167.266 108.415 163.215 106.535 159.534 108.653C155.854 110.771 155.986 114.373 157.231 115.829C158.475 117.285 161.362 115.723 162.209 115.008C163.056 114.293 163.347 113.764 163.877 113.711C164.407 113.658 166.34 113.843 166.34 113.843C166.34 113.843 168.552 112.026 169.173 109.792C169.438 108.838 167.266 108.415 167.266 108.415Z" fill="#DACAFF" stroke="#0C0C0E" stroke-width="0.865885" stroke-linecap="round" stroke-linejoin="round"/>
<path d="M134.343 46.1353H115.675V59.4015H134.343V46.1353Z" fill="#9376EF" stroke="#0C0C0E" stroke-width="0.432942" stroke-linecap="round" stroke-linejoin="round"/>
<path d="M196.235 105.502C196.235 105.502 199.816 103.622 203.04 105.529C200.896 111.832 199.131 112.762 198.565 112.837L196.447 111.91C197.151 109.897 196.999 107.748 196.235 105.502Z" fill="#DACAFF" stroke="#0C0C0E" stroke-width="0.865885" stroke-linecap="round" stroke-linejoin="round"/>
<path d="M196.182 157.428C196.182 157.428 198.618 165.054 206.774 166.008" stroke="#0C0C0E" stroke-width="0.865885" stroke-linecap="round" stroke-linejoin="round"/>
<path d="M55.8133 96.2907V91.2757H50.6395C50.4372 90.543 50.1453 89.838 49.7704 89.1767L53.4284 85.5188L49.8816 81.972L46.2236 85.63C45.5624 85.255 44.8574 84.9631 44.1246 84.7609V79.5894H39.112V84.7609C38.3792 84.9631 37.6742 85.255 37.013 85.63L33.355 81.972L29.8083 85.5188L33.4662 89.1767C33.0913 89.838 32.7994 90.543 32.5971 91.2757H27.4233V96.2907H32.5971C32.7994 97.0234 33.0913 97.7284 33.4662 98.3897L29.8083 102.048L33.355 105.594L37.013 101.936C37.6742 102.311 38.3792 102.603 39.112 102.806V107.977H44.1246V102.806C44.8574 102.603 45.5624 102.311 46.2236 101.936L49.8816 105.594L53.4283 102.048L49.7704 98.3897C50.1453 97.7284 50.4372 97.0234 50.6395 96.2907H55.8133ZM45.9604 96.2907C45.5202 97.0531 44.8871 97.6862 44.1246 98.1264C43.7458 98.347 43.339 98.5157 42.9152 98.628C42.0647 98.8549 41.1696 98.8549 40.3192 98.628C39.8961 98.5157 39.4901 98.347 39.112 98.1264C37.9609 97.4598 37.12 96.3652 36.7724 95.0812C36.6608 94.6575 36.6044 94.2213 36.6045 93.7832C36.604 93.3449 36.6612 92.9085 36.7747 92.4852C36.887 92.0614 37.0556 91.6546 37.2762 91.2757C37.7171 90.5138 38.35 89.8808 39.112 89.44C39.4901 89.2194 39.8961 89.0507 40.3192 88.9385C41.1696 88.7115 42.0647 88.7115 42.9152 88.9385C43.339 89.0507 43.7458 89.2194 44.1246 89.44C44.8866 89.8808 45.5196 90.5138 45.9604 91.2757C46.181 91.6546 46.3497 92.0614 46.4619 92.4852C46.5754 92.9085 46.6326 93.3449 46.6321 93.7832C46.6322 94.2213 46.5758 94.6575 46.4642 95.0812C46.3502 95.5047 46.1808 95.9114 45.9604 96.2907Z" fill="#0C0C0E" stroke="#A9ACB7" stroke-width="0.865885" stroke-linecap="round" stroke-linejoin="round"/>
<path d="M61.8185 152.683C69.7469 152.683 76.1742 146.255 76.1742 138.327C76.1742 130.398 69.7469 123.971 61.8185 123.971C53.89 123.971 47.4628 130.398 47.4628 138.327C47.4628 146.255 53.89 152.683 61.8185 152.683Z" fill="#0C0C0E" stroke="#A9ACB7" stroke-width="0.865885" stroke-linecap="round" stroke-linejoin="round"/>
<path d="M52.4003 137.994L60.7148 145.302C60.8902 145.456 61.0961 145.572 61.319 145.642C61.542 145.712 61.7771 145.734 62.0092 145.707C62.2413 145.68 62.4652 145.605 62.6665 145.487C62.8678 145.368 63.0421 145.209 63.178 145.019L76.3383 126.615C76.5958 126.255 76.6995 125.807 76.6268 125.37C76.554 124.933 76.3107 124.542 75.9503 124.285C75.5898 124.027 75.1418 123.923 74.7047 123.995C74.2675 124.068 73.877 124.311 73.619 124.671L61.5335 141.571L54.6073 135.483C54.2743 135.191 53.8388 135.042 53.3967 135.071C52.9545 135.1 52.5418 135.303 52.2493 135.636C51.9567 135.968 51.8083 136.404 51.8367 136.846C51.865 137.288 52.0678 137.701 52.4004 137.994L52.4003 137.994Z" fill="#DACAFF"/>
<path d="M105.128 218.46C102.851 216.337 100.341 213.669 100.874 210.602C101.276 208.287 103.294 206.668 104.719 204.8C106.689 202.217 107.609 198.778 106.865 195.617C106.121 192.455 103.606 189.694 100.442 188.959C97.2784 188.224 93.643 189.748 92.204 192.66C91.0764 194.942 91.3323 197.625 91.0997 200.16C90.8671 202.695 89.7815 205.54 87.3512 206.298C85.3213 206.93 83.1719 205.844 81.4409 204.61C79.7099 203.375 77.9916 201.903 75.8828 201.632C73.408 201.315 70.9326 202.851 69.6793 205.009C68.4261 207.166 68.2518 209.817 68.6912 212.273C69.1306 214.729 70.1366 217.042 71.1346 219.328L64.573 226.845L62.5 251H85.5C87.8244 249.951 89.459 249.481 91.6132 248.107C93.3931 246.972 95.1731 245.836 96.953 244.701C98.1576 243.933 99.4936 242.951 99.5737 241.525C99.7363 238.632 94.8091 237.513 94.8899 234.617C94.9229 233.437 95.8764 232.445 96.9632 231.983C98.05 231.521 99.2607 231.476 100.439 231.401C102.245 231.285 104.084 231.072 105.725 230.31C107.367 229.547 108.801 228.147 109.191 226.38C109.861 223.34 107.404 220.583 105.128 218.46Z" fill="#9376EF" stroke="#0C0C0E" stroke-width="0.432942" stroke-linecap="round" stroke-linejoin="round"/>
<path d="M95.5847 204.446C95.5847 204.446 93.2006 218.306 85.7901 225.124C78.3796 231.943 77.1052 241.077 77.4238 245.112C77.7424 249.148 74.5 250.5 74.5 250.5M86.9822 239.165C86.9822 239.165 80.3315 236.877 77.6032 240.889M78.3796 221.522C78.3796 221.522 81.5248 223.049 81.3329 230.523M96.3281 218.243C96.3281 218.243 94.0833 221.518 88.4618 222.111" stroke="#0C0C0E" stroke-width="1.29902" stroke-linecap="round" stroke-linejoin="round"/>
<path d="M73 246C73.8288 241.856 72.456 237.896 68.5696 235.364C64.7313 231.795 67.625 229.452 71.0389 227.282C77.1738 221.925 71.0685 212.165 63.56 215.371C60.8619 216.677 57.7289 220.423 54.5822 218.233C52.774 216.801 53.371 214.008 53.5642 211.709C54.1651 205.945 49.8197 197.73 43.2465 198.784C40.3188 199.517 38.6504 202.674 35.9267 203.974C27.8788 207.469 21.636 196.141 13.7908 196.878C-1.41867 200.288 3.40652 226.883 25.1903 223.599C26.9308 223.742 28.7515 224.401 29.7241 225.851C32.8862 230.812 24.7957 236.685 27.8191 241.669C30.4549 245.457 35.6878 243.502 39.5157 243.423C44.8867 243.258 47.4702 247.038 44.5 251H68.5696C71 250 72.5 248.5 73 246Z" fill="#DACAFF" stroke="#0C0C0E" stroke-width="0.865885" stroke-linecap="round" stroke-linejoin="round"/>
<path d="M51.5 251L52.8374 248.723C60.1655 223.393 21.7727 210.171 21.7727 210.171M56.3422 228.81C56.3422 228.81 57.2222 234.461 53.2509 237.769ZM40.146 210.171C40.2522 210.436 43.3686 215.662 40.828 220.537ZM40.5177 228.279C40.5177 228.279 47.2306 227.502 49.6623 229.669ZM23.472 214.1C23.472 214.1 27.1303 215.273 30.4255 213.996Z" fill="#DACAFF"/>
<path d="M51.5 251L52.8374 248.723C60.1655 223.393 21.7727 210.171 21.7727 210.171M56.3422 228.81C56.3422 228.81 57.2222 234.461 53.2509 237.769M40.146 210.171C40.2522 210.436 43.3686 215.662 40.828 220.537M40.5177 228.279C40.5177 228.279 47.2306 227.502 49.6623 229.669M23.472 214.1C23.472 214.1 27.1303 215.273 30.4255 213.996" stroke="#0C0C0E" stroke-width="0.865885" stroke-linecap="round" stroke-linejoin="round"/>
<path d="M257.749 188.179H230.863V190.764H257.749V188.179Z" fill="#9376EF" stroke="#A9ACB7" stroke-width="0.432942" stroke-linecap="round" stroke-linejoin="round"/>
<path d="M257.749 190.764H230.863V214.939H257.749V190.764Z" fill="#0C0C0E" stroke="#A9ACB7" stroke-width="0.865885" stroke-linecap="round" stroke-linejoin="round"/>
<path d="M257.749 214.939H230.863V251.971H257.749V214.939Z" fill="#0C0C0E" stroke="#A9ACB7" stroke-width="0.865885" stroke-linecap="round" stroke-linejoin="round"/>
<path d="M257.749 183.643H230.863V188.179H257.749V183.643Z" fill="#0C0C0E" stroke="#A9ACB7" stroke-width="0.865885" stroke-linecap="round" stroke-linejoin="round"/>
<path d="M235.88 200.186C236.303 200.186 236.646 199.843 236.646 199.42C236.646 198.997 236.303 198.654 235.88 198.654C235.457 198.654 235.114 198.997 235.114 199.42C235.114 199.843 235.457 200.186 235.88 200.186Z" fill="#0C0C0E" stroke="#A9ACB7" stroke-width="0.865885" stroke-linecap="round" stroke-linejoin="round"/>
<path d="M241.768 200.186C242.191 200.186 242.534 199.843 242.534 199.42C242.534 198.997 242.191 198.654 241.768 198.654C241.345 198.654 241.002 198.997 241.002 199.42C241.002 199.843 241.345 200.186 241.768 200.186Z" fill="#0C0C0E" stroke="#A9ACB7" stroke-width="0.865885" stroke-linecap="round" stroke-linejoin="round"/>
<path d="M247.657 200.186C248.08 200.186 248.423 199.843 248.423 199.42C248.423 198.997 248.08 198.654 247.657 198.654C247.234 198.654 246.891 198.997 246.891 199.42C246.891 199.843 247.234 200.186 247.657 200.186Z" fill="#0C0C0E" stroke="#A9ACB7" stroke-width="0.865885" stroke-linecap="round" stroke-linejoin="round"/>
<path d="M253.546 200.186C253.969 200.186 254.311 199.843 254.311 199.42C254.311 198.997 253.969 198.654 253.546 198.654C253.122 198.654 252.78 198.997 252.78 199.42C252.78 199.843 253.122 200.186 253.546 200.186Z" fill="#0C0C0E" stroke="#A9ACB7" stroke-width="0.865885" stroke-linecap="round" stroke-linejoin="round"/>
<path d="M247.657 209.687C248.08 209.687 248.423 209.344 248.423 208.921C248.423 208.498 248.08 208.155 247.657 208.155C247.234 208.155 246.891 208.498 246.891 208.921C246.891 209.344 247.234 209.687 247.657 209.687Z" fill="#0C0C0E" stroke="#A9ACB7" stroke-width="0.865885" stroke-linecap="round" stroke-linejoin="round"/>
<path d="M253.546 209.687C253.969 209.687 254.311 209.344 254.311 208.921C254.311 208.498 253.969 208.155 253.546 208.155C253.122 208.155 252.78 208.498 252.78 208.921C252.78 209.344 253.122 209.687 253.546 209.687Z" fill="#0C0C0E" stroke="#A9ACB7" stroke-width="0.865885" stroke-linecap="round" stroke-linejoin="round"/>
<path d="M253.546 218.819C253.969 218.819 254.311 218.476 254.311 218.053C254.311 217.63 253.969 217.287 253.546 217.287C253.122 217.287 252.78 217.63 252.78 218.053C252.78 218.476 253.122 218.819 253.546 218.819Z" fill="#0C0C0E" stroke="#A9ACB7" stroke-width="0.865885" stroke-linecap="round" stroke-linejoin="round"/>
<path d="M248.423 217.421H235.114V218.685H248.423V217.421Z" fill="#9376EF" stroke="#A9ACB7" stroke-width="0.432942" stroke-linecap="round" stroke-linejoin="round"/>
<path d="M253.546 226.364C253.969 226.364 254.311 226.021 254.311 225.598C254.311 225.175 253.969 224.832 253.546 224.832C253.122 224.832 252.78 225.175 252.78 225.598C252.78 226.021 253.122 226.364 253.546 226.364Z" fill="#0C0C0E" stroke="#A9ACB7" stroke-width="0.865885" stroke-linecap="round" stroke-linejoin="round"/>
<path d="M248.423 224.966H235.114V226.23H248.423V224.966Z" fill="#9376EF" stroke="#A9ACB7" stroke-width="0.432942" stroke-linecap="round" stroke-linejoin="round"/>
<path d="M253.546 233.909C253.969 233.909 254.311 233.566 254.311 233.143C254.311 232.72 253.969 232.377 253.546 232.377C253.122 232.377 252.78 232.72 252.78 233.143C252.78 233.566 253.122 233.909 253.546 233.909Z" fill="#0C0C0E" stroke="#A9ACB7" stroke-width="0.865885" stroke-linecap="round" stroke-linejoin="round"/>
<path d="M248.423 232.511H235.114V233.775H248.423V232.511Z" fill="#9376EF" stroke="#A9ACB7" stroke-width="0.432942" stroke-linecap="round" stroke-linejoin="round"/>
<path d="M253.546 241.454C253.969 241.454 254.311 241.111 254.311 240.688C254.311 240.265 253.969 239.922 253.546 239.922C253.122 239.922 252.78 240.265 252.78 240.688C252.78 241.111 253.122 241.454 253.546 241.454Z" fill="#0C0C0E" stroke="#A9ACB7" stroke-width="0.865885" stroke-linecap="round" stroke-linejoin="round"/>
<path d="M248.423 240.056H235.114V241.32H248.423V240.056Z" fill="#9376EF" stroke="#A9ACB7" stroke-width="0.432942" stroke-linecap="round" stroke-linejoin="round"/>
<path d="M287.221 188.179H260.334V190.764H287.221V188.179Z" fill="#9376EF" stroke="#A9ACB7" stroke-width="0.432942" stroke-linecap="round" stroke-linejoin="round"/>
<path d="M287.22 214.939H260.334V251.971H287.22V214.939Z" fill="#0C0C0E" stroke="#A9ACB7" stroke-width="0.865885" stroke-linecap="round" stroke-linejoin="round"/>
<path d="M287.22 190.764H260.334V214.939H287.22V190.764Z" fill="#0C0C0E" stroke="#A9ACB7" stroke-width="0.865885" stroke-linecap="round" stroke-linejoin="round"/>
<path d="M287.221 183.643H260.334V188.179H287.221V183.643Z" fill="#0C0C0E" stroke="#A9ACB7" stroke-width="0.865885" stroke-linecap="round" stroke-linejoin="round"/>
<path d="M265.351 200.186C265.774 200.186 266.117 199.843 266.117 199.42C266.117 198.997 265.774 198.654 265.351 198.654C264.928 198.654 264.585 198.997 264.585 199.42C264.585 199.843 264.928 200.186 265.351 200.186Z" fill="#0C0C0E" stroke="#A9ACB7" stroke-width="0.865885" stroke-linecap="round" stroke-linejoin="round"/>
<path d="M271.24 200.186C271.663 200.186 272.006 199.843 272.006 199.42C272.006 198.997 271.663 198.654 271.24 198.654C270.817 198.654 270.474 198.997 270.474 199.42C270.474 199.843 270.817 200.186 271.24 200.186Z" fill="#0C0C0E" stroke="#A9ACB7" stroke-width="0.865885" stroke-linecap="round" stroke-linejoin="round"/>
<path d="M277.129 200.186C277.552 200.186 277.894 199.843 277.894 199.42C277.894 198.997 277.552 198.654 277.129 198.654C276.705 198.654 276.363 198.997 276.363 199.42C276.363 199.843 276.705 200.186 277.129 200.186Z" fill="#0C0C0E" stroke="#A9ACB7" stroke-width="0.865885" stroke-linecap="round" stroke-linejoin="round"/>
<path d="M283.017 200.186C283.44 200.186 283.783 199.843 283.783 199.42C283.783 198.997 283.44 198.654 283.017 198.654C282.594 198.654 282.251 198.997 282.251 199.42C282.251 199.843 282.594 200.186 283.017 200.186Z" fill="#0C0C0E" stroke="#A9ACB7" stroke-width="0.865885" stroke-linecap="round" stroke-linejoin="round"/>
<path d="M277.129 209.687C277.552 209.687 277.894 209.344 277.894 208.921C277.894 208.498 277.552 208.155 277.129 208.155C276.705 208.155 276.363 208.498 276.363 208.921C276.363 209.344 276.705 209.687 277.129 209.687Z" fill="#0C0C0E" stroke="#A9ACB7" stroke-width="0.865885" stroke-linecap="round" stroke-linejoin="round"/>
<path d="M283.017 209.687C283.44 209.687 283.783 209.344 283.783 208.921C283.783 208.498 283.44 208.155 283.017 208.155C282.594 208.155 282.251 208.498 282.251 208.921C282.251 209.344 282.594 209.687 283.017 209.687Z" fill="#0C0C0E" stroke="#A9ACB7" stroke-width="0.865885" stroke-linecap="round" stroke-linejoin="round"/>
<path d="M283.017 218.819C283.44 218.819 283.783 218.476 283.783 218.053C283.783 217.63 283.44 217.287 283.017 217.287C282.594 217.287 282.251 217.63 282.251 218.053C282.251 218.476 282.594 218.819 283.017 218.819Z" fill="#0C0C0E" stroke="#A9ACB7" stroke-width="0.865885" stroke-linecap="round" stroke-linejoin="round"/>
<path d="M277.895 217.421H264.585V218.685H277.895V217.421Z" fill="#9376EF" stroke="#A9ACB7" stroke-width="0.432942" stroke-linecap="round" stroke-linejoin="round"/>
<path d="M283.017 226.364C283.44 226.364 283.783 226.021 283.783 225.598C283.783 225.175 283.44 224.832 283.017 224.832C282.594 224.832 282.251 225.175 282.251 225.598C282.251 226.021 282.594 226.364 283.017 226.364Z" fill="#0C0C0E" stroke="#A9ACB7" stroke-width="0.865885" stroke-linecap="round" stroke-linejoin="round"/>
<path d="M277.895 224.966H264.585V226.23H277.895V224.966Z" fill="#9376EF" stroke="#A9ACB7" stroke-width="0.432942" stroke-linecap="round" stroke-linejoin="round"/>
<path d="M283.017 233.909C283.44 233.909 283.783 233.566 283.783 233.143C283.783 232.72 283.44 232.377 283.017 232.377C282.594 232.377 282.251 232.72 282.251 233.143C282.251 233.566 282.594 233.909 283.017 233.909Z" fill="#0C0C0E" stroke="#A9ACB7" stroke-width="0.865885" stroke-linecap="round" stroke-linejoin="round"/>
<path d="M277.895 232.511H264.585V233.775H277.895V232.511Z" fill="#9376EF" stroke="#A9ACB7" stroke-width="0.432942" stroke-linecap="round" stroke-linejoin="round"/>
<path d="M283.017 241.454C283.44 241.454 283.783 241.111 283.783 240.688C283.783 240.265 283.44 239.922 283.017 239.922C282.594 239.922 282.251 240.265 282.251 240.688C282.251 241.111 282.594 241.454 283.017 241.454Z" fill="#0C0C0E" stroke="#A9ACB7" stroke-width="0.865885" stroke-linecap="round" stroke-linejoin="round"/>
<path d="M277.895 240.056H264.585V241.32H277.895V240.056Z" fill="#9376EF" stroke="#A9ACB7" stroke-width="0.432942" stroke-linecap="round" stroke-linejoin="round"/>
<path d="M287.221 251.971H293.045V189.472L287.221 183.643V251.971Z" fill="#0C0C0E" stroke="#A9ACB7" stroke-width="0.865885" stroke-linecap="round" stroke-linejoin="round"/>
<path d="M267.757 124.369C276.809 124.369 284.148 117.03 284.148 107.977C284.148 98.9242 276.809 91.5854 267.757 91.5854C258.704 91.5854 251.365 98.9242 251.365 107.977C251.365 117.03 258.704 124.369 267.757 124.369Z" fill="#9376EF" stroke="#A9ACB7" stroke-width="0.432942" stroke-linecap="round" stroke-linejoin="round"/>
<path d="M269.282 105.069C269.857 104.734 270.306 104.218 270.559 103.602C270.812 102.986 270.855 102.304 270.682 101.661C270.508 101.018 270.127 100.451 269.599 100.046C269.07 99.6408 268.423 99.4214 267.757 99.4214C267.091 99.4214 266.443 99.6408 265.915 100.046C265.386 100.451 265.005 101.018 264.832 101.661C264.658 102.304 264.701 102.986 264.954 103.602C265.207 104.218 265.656 104.734 266.232 105.069C264.91 105.408 263.74 106.177 262.904 107.254C262.068 108.332 261.614 109.657 261.614 111.021V113.988H273.9V111.021C273.899 109.657 273.446 108.332 272.61 107.254C271.774 106.177 270.603 105.408 269.282 105.069Z" fill="#DACAFF" stroke="#0C0C0E" stroke-width="0.865885" stroke-linecap="round" stroke-linejoin="round"/>
</g>
<defs>
<clipPath id="clip0_213_23791">
<rect width="297" height="297" fill="white" transform="translate(0.5)"/>
</clipPath>
</defs>
</svg>
