<svg width="552" height="552" viewBox="0 0 552 552" fill="none" xmlns="http://www.w3.org/2000/svg">
<g clip-path="url(#clip0_130_15366)">
<g clip-path="url(#clip1_130_15366)">
<path d="M132.498 82.3115H96.6133V118.197H132.498V82.3115Z" fill="white" stroke="#1A1A1A" stroke-width="0.828368" stroke-linecap="round" stroke-linejoin="round"/>
<path d="M114.556 88.4426V112.065" stroke="#1A1A1A" stroke-width="0.828368" stroke-linecap="round" stroke-linejoin="round"/>
<path d="M102.786 100.254H126.029" stroke="#1A1A1A" stroke-width="0.828368" stroke-linecap="round" stroke-linejoin="round"/>
<path d="M413.656 208.719C420.99 213.15 429.551 214.913 437.903 216.74C446.255 218.568 454.8 220.625 461.842 225.516C468.883 230.407 474.181 238.806 473.027 247.359C471.751 256.823 463.351 263.55 455.045 268.114C447.414 272.306 439.171 275.667 432.726 281.55C426.282 287.434 421.931 296.804 424.895 305.051C426.91 310.658 431.802 314.612 436.475 318.257C441.148 321.903 446.049 325.838 448.096 331.433C450.143 337.028 447.878 344.664 442.144 346.09" stroke="#1A1A1A" stroke-width="0.828368" stroke-linecap="round" stroke-linejoin="round"/>
<path d="M413.446 195.568C420.699 205.456 433.077 210.173 445.133 211.944C457.189 213.714 469.493 213.05 481.561 214.736C493.629 216.421 506.044 220.947 513.5 230.679C519.283 238.228 521.239 249.398 516.068 257.387C512.887 262.3 507.592 265.353 502.348 267.883C497.104 270.413 491.594 272.68 487.304 276.64C483.013 280.6 480.142 286.79 481.888 292.389C483.229 296.69 486.904 299.73 489.78 303.179C499.65 315.019 499.72 334.04 489.937 345.953" stroke="#1A1A1A" stroke-width="0.828368" stroke-linecap="round" stroke-linejoin="round"/>
<path d="M338.496 524.566C392.802 524.566 436.826 512.957 436.826 498.637C436.826 484.317 392.802 472.708 338.496 472.708C284.19 472.708 240.166 484.317 240.166 498.637C240.166 512.957 284.19 524.566 338.496 524.566Z" fill="white" stroke="#1A1A1A" stroke-width="0.828368" stroke-linecap="round" stroke-linejoin="round"/>
<path d="M417.33 43.2791C417.33 41.1983 416.92 39.1378 416.124 37.2153C415.327 35.2928 414.16 33.546 412.689 32.0746C411.217 30.6032 409.471 29.436 407.548 28.6397C405.626 27.8434 403.565 27.4336 401.484 27.4336H182.694C180.613 27.4336 178.552 27.8434 176.63 28.6397C174.707 29.436 172.961 30.6032 171.489 32.0746C170.018 33.546 168.851 35.2928 168.054 37.2153C167.258 39.1378 166.848 41.1983 166.848 43.2791V45.1075H417.33V43.2791Z" fill="#9376EF" stroke="#1A1A1A" stroke-width="0.414184" stroke-linecap="round" stroke-linejoin="round"/>
<path d="M166.848 45.1075V216.248C166.848 218.328 167.258 220.389 168.054 222.311C168.851 224.234 170.018 225.981 171.489 227.452C172.961 228.924 174.707 230.091 176.63 230.887C178.552 231.683 180.613 232.093 182.694 232.093H401.484C403.565 232.093 405.626 231.683 407.548 230.887C409.471 230.091 411.217 228.924 412.689 227.452C414.16 225.981 415.327 224.234 416.124 222.311C416.92 220.389 417.33 218.328 417.33 216.248V45.1075H166.848Z" fill="white" stroke="#1A1A1A" stroke-width="0.828368" stroke-linecap="round" stroke-linejoin="round"/>
<path d="M280.966 124.897V127.383H278.481" stroke="#1A1A1A" stroke-width="0.828368" stroke-linecap="round" stroke-linejoin="round"/>
<path d="M273.36 127.383H193.986" stroke="#1A1A1A" stroke-width="0.828368" stroke-linecap="round" stroke-linejoin="round" stroke-dasharray="5.12 5.12"/>
<path d="M191.426 127.383H188.94V124.897" stroke="#1A1A1A" stroke-width="0.828368" stroke-linecap="round" stroke-linejoin="round"/>
<path d="M188.94 120.17V65.8023" stroke="#1A1A1A" stroke-width="0.828368" stroke-linecap="round" stroke-linejoin="round" stroke-dasharray="4.73 4.73"/>
<path d="M188.94 63.4385V60.9532H191.426" stroke="#1A1A1A" stroke-width="0.828368" stroke-linecap="round" stroke-linejoin="round"/>
<path d="M196.547 60.9532H275.921" stroke="#1A1A1A" stroke-width="0.828368" stroke-linecap="round" stroke-linejoin="round" stroke-dasharray="5.12 5.12"/>
<path d="M278.481 60.9532H280.966V63.4385" stroke="#1A1A1A" stroke-width="0.828368" stroke-linecap="round" stroke-linejoin="round"/>
<path d="M280.967 68.1661V122.534" stroke="#1A1A1A" stroke-width="0.828368" stroke-linecap="round" stroke-linejoin="round" stroke-dasharray="4.73 4.73"/>
<path d="M395.237 211.53V214.015H392.752" stroke="#1A1A1A" stroke-width="0.828368" stroke-linecap="round" stroke-linejoin="round"/>
<path d="M387.631 214.015H308.257" stroke="#1A1A1A" stroke-width="0.828368" stroke-linecap="round" stroke-linejoin="round" stroke-dasharray="5.12 5.12"/>
<path d="M305.696 214.015H303.211V211.53" stroke="#1A1A1A" stroke-width="0.828368" stroke-linecap="round" stroke-linejoin="round"/>
<path d="M303.211 206.423V65.9917" stroke="#1A1A1A" stroke-width="0.828368" stroke-linecap="round" stroke-linejoin="round" stroke-dasharray="5.11 5.11"/>
<path d="M303.211 63.4385V60.9532H305.696" stroke="#1A1A1A" stroke-width="0.828368" stroke-linecap="round" stroke-linejoin="round"/>
<path d="M310.817 60.9532H390.191" stroke="#1A1A1A" stroke-width="0.828368" stroke-linecap="round" stroke-linejoin="round" stroke-dasharray="5.12 5.12"/>
<path d="M392.752 60.9532H395.237V63.4385" stroke="#1A1A1A" stroke-width="0.828368" stroke-linecap="round" stroke-linejoin="round"/>
<path d="M395.237 68.545V208.977" stroke="#1A1A1A" stroke-width="0.828368" stroke-linecap="round" stroke-linejoin="round" stroke-dasharray="5.11 5.11"/>
<path d="M390.762 64.333H307.686V210.635H390.762V64.333Z" fill="white" stroke="#1A1A1A" stroke-width="0.828368" stroke-linecap="round" stroke-linejoin="round"/>
<path d="M280.966 211.53V214.015H278.481" stroke="#1A1A1A" stroke-width="0.828368" stroke-linecap="round" stroke-linejoin="round"/>
<path d="M273.36 214.015H193.986" stroke="#1A1A1A" stroke-width="0.828368" stroke-linecap="round" stroke-linejoin="round" stroke-dasharray="5.12 5.12"/>
<path d="M191.426 214.015H188.94V211.53" stroke="#1A1A1A" stroke-width="0.828368" stroke-linecap="round" stroke-linejoin="round"/>
<path d="M188.94 206.467V148.245" stroke="#1A1A1A" stroke-width="0.828368" stroke-linecap="round" stroke-linejoin="round" stroke-dasharray="5.06 5.06"/>
<path d="M188.94 145.713V143.228H191.426" stroke="#1A1A1A" stroke-width="0.828368" stroke-linecap="round" stroke-linejoin="round"/>
<path d="M196.547 143.228H275.921" stroke="#1A1A1A" stroke-width="0.828368" stroke-linecap="round" stroke-linejoin="round" stroke-dasharray="5.12 5.12"/>
<path d="M278.481 143.228H280.966V145.713" stroke="#1A1A1A" stroke-width="0.828368" stroke-linecap="round" stroke-linejoin="round"/>
<path d="M280.967 150.776V208.999" stroke="#1A1A1A" stroke-width="0.828368" stroke-linecap="round" stroke-linejoin="round" stroke-dasharray="5.06 5.06"/>
<path d="M276.43 146.718H193.477V210.526H276.43V146.718Z" fill="white" stroke="#1A1A1A" stroke-width="0.828368" stroke-linecap="round" stroke-linejoin="round"/>
<path d="M255.217 124.132C243.437 129.616 232.87 135.917 232.87 135.917C232.87 135.917 222.308 129.616 210.527 124.132C198.742 118.647 198.947 113.06 198.947 113.06V68.0619C198.947 56.2812 216.618 53.0325 216.618 53.0325H249.122C249.122 53.0325 266.797 56.2812 266.797 68.0619V113.06C266.797 113.06 266.998 118.647 255.217 124.132Z" fill="white" stroke="#1A1A1A" stroke-width="0.828368" stroke-linecap="round" stroke-linejoin="round"/>
<path d="M232.87 127.525C228.681 125.153 221.438 121.196 213.593 117.543C208.248 115.056 206.625 112.956 206.213 112.278V68.0619C206.213 63.7464 214.383 61.0143 217.386 60.2992H248.358C251.326 61.0038 259.53 63.7385 259.53 68.0619V112.275C259.118 112.954 257.495 115.056 252.15 117.544C244.305 121.196 237.061 125.154 232.87 127.525Z" fill="white" stroke="#1A1A1A" stroke-width="0.828368" stroke-linecap="round" stroke-linejoin="round"/>
<path d="M245.365 87.6162V83.0834C245.366 81.2501 245.006 79.4344 244.306 77.7401C243.605 76.0459 242.578 74.5063 241.282 73.2094C239.986 71.9125 238.447 70.8837 236.753 70.1817C235.06 69.4798 233.244 69.1185 231.411 69.1185C229.578 69.1185 227.762 69.4798 226.068 70.1817C224.375 70.8837 222.836 71.9125 221.54 73.2094C220.244 74.5063 219.217 76.0459 218.516 77.7401C217.816 79.4344 217.456 81.2501 217.457 83.0834V87.6162C217.457 88.2964 217.728 88.9488 218.208 89.4298C218.689 89.9107 219.342 90.181 220.022 90.181C220.702 90.181 221.355 89.9107 221.836 89.4298C222.317 88.9488 222.587 88.2964 222.587 87.6162L222.587 83.0834C222.588 80.7438 223.518 78.5003 225.173 76.8463C226.827 75.1923 229.071 74.2631 231.411 74.2631C233.751 74.2631 235.994 75.1923 237.649 76.8463C239.304 78.5003 240.234 80.7438 240.235 83.0834V87.6162C240.235 88.2964 240.505 88.9488 240.986 89.4298C241.467 89.9107 242.12 90.181 242.8 90.181C243.48 90.181 244.133 89.9107 244.614 89.4298C245.095 88.9488 245.365 88.2964 245.365 87.6162H245.365Z" fill="#9376EF" stroke="#1A1A1A" stroke-width="0.414184" stroke-linecap="round" stroke-linejoin="round"/>
<path d="M190.616 40.3337C193.309 40.3337 195.492 38.1508 195.492 35.4581C195.492 32.7653 193.309 30.5824 190.616 30.5824C187.924 30.5824 185.741 32.7653 185.741 35.4581C185.741 38.1508 187.924 40.3337 190.616 40.3337Z" fill="white" stroke="#1A1A1A" stroke-width="0.828368" stroke-linecap="round" stroke-linejoin="round"/>
<path d="M208.9 40.3337C211.592 40.3337 213.775 38.1508 213.775 35.4581C213.775 32.7653 211.592 30.5824 208.9 30.5824C206.207 30.5824 204.024 32.7653 204.024 35.4581C204.024 38.1508 206.207 40.3337 208.9 40.3337Z" fill="white" stroke="#1A1A1A" stroke-width="0.828368" stroke-linecap="round" stroke-linejoin="round"/>
<path d="M227.183 40.3337C229.876 40.3337 232.059 38.1508 232.059 35.4581C232.059 32.7653 229.876 30.5824 227.183 30.5824C224.49 30.5824 222.307 32.7653 222.307 35.4581C222.307 38.1508 224.49 40.3337 227.183 40.3337Z" fill="white" stroke="#1A1A1A" stroke-width="0.828368" stroke-linecap="round" stroke-linejoin="round"/>
<path d="M93.1387 468.195H432.862C477.632 457.112 481.401 416.47 466.254 390.621C453.273 368.467 429.799 356.336 393.891 368.842C362.704 332.522 310.624 315.885 264.271 326.671C215.425 338.037 193.929 374.971 190.565 380.993C181.432 370.951 151.647 340.108 127.026 345.255C99.8645 350.933 82.6019 399.66 93.1387 468.195Z" stroke="#1A1A1A" stroke-width="1.24274" stroke-linecap="round" stroke-linejoin="round"/>
<path d="M126.085 468.289H416.646C428.36 450.016 427.485 428.123 415.761 415.137C406.456 404.831 393.305 403.445 389.185 403.178C386.029 394.407 378.258 377.271 360.837 367.301C333.39 351.593 292.867 359.899 263.393 390.333C259.403 375.767 244.479 367.831 231.945 371.73C221.486 374.984 214.12 386.033 215.114 398.306C188.206 380.392 153.616 384.706 134.944 405.836C120.571 422.1 117.228 446.517 126.085 468.289Z" fill="white" stroke="#1A1A1A" stroke-width="0.828368" stroke-linecap="round" stroke-linejoin="round"/>
<path d="M59.6462 468.289H466.255" stroke="#1A1A1A" stroke-width="1.24274" stroke-linecap="round" stroke-linejoin="round"/>
<path d="M342.295 476.043C341.22 473.783 340.167 472.053 340.167 472.053L325.108 476.335C325.108 476.335 324.031 477.322 322.405 478.912C328.168 482.235 336.46 479.983 342.295 476.043Z" fill="#9376EF" stroke="#1A1A1A" stroke-width="0.414184" stroke-linecap="round" stroke-linejoin="round"/>
<path d="M322.405 478.912C316.938 484.258 305.235 496.44 307.169 500.991C309.679 506.897 318.538 503.132 324.739 499.072C330.94 495.012 344.966 487.039 344.523 482.758C344.31 480.697 343.293 478.141 342.295 476.043C336.46 479.983 328.168 482.235 322.405 478.912Z" fill="white" stroke="#1A1A1A" stroke-width="0.828368" stroke-linecap="round" stroke-linejoin="round"/>
<path d="M370.679 477.593C370.36 475.15 370.09 473.505 370.09 473.505L356.211 476.163C355.327 477.265 354.51 478.419 353.763 479.618C358.754 483.502 366.124 481.383 370.679 477.593Z" fill="#9376EF" stroke="#1A1A1A" stroke-width="0.414184" stroke-linecap="round" stroke-linejoin="round"/>
<path d="M370.679 477.593C366.124 481.383 358.754 483.502 353.763 479.618C352.706 481.307 351.561 483.439 350.896 485.612C349.419 490.435 342.529 511.696 348.927 513.369C355.325 515.042 363.888 509.432 366.152 501.853C368.416 494.274 371.96 492.896 371.566 486.498C371.369 483.295 370.999 480.042 370.679 477.593ZM301.683 274.729C301.683 274.729 267.379 330.981 268.265 354.456C269.151 377.931 318.611 475.671 323.631 478.033C328.651 480.395 338.396 476.409 341.644 473.456C344.892 470.503 339.429 455.591 337.067 448.357C334.704 441.122 324.714 398.109 309.556 374.092C322.549 355.588 337.116 331.178 339.281 313.264C341.447 295.35 343.293 272.805 343.293 272.805" fill="white"/>
<path d="M301.683 274.729C301.683 274.729 267.379 330.981 268.265 354.456C269.151 377.931 318.611 475.671 323.631 478.033C328.651 480.395 338.396 476.409 341.644 473.456C344.892 470.503 339.429 455.591 337.067 448.357C334.704 441.122 324.714 398.109 309.556 374.092C322.549 355.588 337.116 331.178 339.281 313.264C341.447 295.35 343.293 272.805 343.293 272.805M370.679 477.593C366.124 481.383 358.754 483.502 353.763 479.618C352.706 481.307 351.561 483.439 350.896 485.612C349.419 490.435 342.529 511.696 348.927 513.369C355.325 515.042 363.888 509.432 366.152 501.853C368.416 494.274 371.96 492.896 371.566 486.498C371.369 483.295 370.999 480.042 370.679 477.593Z" stroke="#1A1A1A" stroke-width="0.828368" stroke-linecap="round" stroke-linejoin="round"/>
<path d="M332.785 305.192C332.785 305.192 343.935 373.502 347.809 391.416C349.124 413.858 351.487 472.521 353.258 475.868C355.03 479.214 369.794 482.167 372.157 471.734C374.519 461.3 380.425 434.724 378.653 408.936C377.669 387.479 386.134 366.021 388.102 357.753C390.071 349.485 402.67 295.546 385.346 267.986L330.62 268.774" fill="white"/>
<path d="M332.785 305.192C332.785 305.192 343.935 373.502 347.809 391.416C349.124 413.858 351.487 472.521 353.258 475.868C355.03 479.214 369.794 482.167 372.157 471.734C374.519 461.3 380.425 434.724 378.653 408.936C377.669 387.479 386.134 366.021 388.102 357.753C390.071 349.485 402.67 295.546 385.346 267.986L330.62 268.774" stroke="#1A1A1A" stroke-width="0.828368" stroke-linecap="round" stroke-linejoin="round"/>
<path d="M325.551 283.587C338.543 282.974 345.483 285.238 352.126 284.561C358.77 283.883 384.693 281.751 388.317 273.589C386.035 266.608 302.666 272.805 302.666 272.805L298.672 279.818C298.672 279.818 300.747 286.688 325.551 283.587Z" fill="#9376EF" stroke="#1A1A1A" stroke-width="0.414184" stroke-linecap="round" stroke-linejoin="round"/>
<path d="M302.469 235.702C302.469 235.702 303.454 250.86 300.304 257.947C297.154 265.034 293.808 281.176 306.997 280.782C320.186 280.388 333.45 278.655 341.275 280.789C349.1 282.923 382.689 279.453 388.594 268.823C394.5 258.193 399.372 223.792 397.896 216.41C396.419 209.028 389.823 173.889 377.102 170.936C364.381 167.983 318.021 173.889 318.021 173.889" fill="#DACAFF"/>
<path d="M302.469 235.702C302.469 235.702 303.454 250.86 300.304 257.947C297.154 265.034 293.808 281.176 306.997 280.782C320.186 280.388 333.45 278.655 341.275 280.789C349.1 282.923 382.689 279.453 388.594 268.823C394.5 258.193 399.372 223.792 397.896 216.41C396.419 209.028 389.823 173.889 377.102 170.936C364.381 167.983 318.021 173.889 318.021 173.889" stroke="#1A1A1A" stroke-width="0.828368" stroke-linecap="round" stroke-linejoin="round"/>
<path d="M337.06 233.381C380.91 245.931 403.801 222.906 406.754 197.512C409.707 172.117 387.413 161.487 379.588 157.058C371.763 152.628 363.643 150.414 350.502 150.709C337.362 151.004 325.305 152.628 325.305 152.628C325.305 152.628 281.799 169.164 279.634 209.52C277.468 249.876 325.895 246.135 349.518 224.875C363.495 214.245 362.904 215.155 363.79 211.612C364.676 208.068 366.891 190.351 359.656 194.706C352.422 199.062 339.724 216.262 317.578 214.491L307.834 212.571C307.834 212.571 305.693 213.014 306.357 211.759C307.021 210.504 310.823 208.326 311.34 206.038C311.857 203.75 312.152 199.726 309.531 199.468C310.749 198.065 313.702 198.804 317.098 200.981C320.494 203.159 335.147 208.093 340.118 208.979" fill="#DACAFF"/>
<path d="M337.06 233.381C380.91 245.931 403.801 222.906 406.754 197.512C409.707 172.117 387.413 161.487 379.588 157.058C371.763 152.628 363.643 150.414 350.502 150.709C337.362 151.004 325.305 152.628 325.305 152.628C325.305 152.628 281.799 169.164 279.634 209.52C277.468 249.876 325.895 246.135 349.518 224.875C363.495 214.245 362.904 215.155 363.79 211.612C364.676 208.068 366.891 190.351 359.656 194.706C352.422 199.062 339.724 216.262 317.578 214.491L307.834 212.571C307.834 212.571 305.693 213.014 306.357 211.759C307.021 210.504 310.823 208.326 311.34 206.038C311.857 203.75 312.152 199.726 309.531 199.468C310.749 198.065 313.702 198.804 317.098 200.981C320.494 203.159 335.147 208.093 340.118 208.979" stroke="#1A1A1A" stroke-width="0.828368" stroke-linecap="round" stroke-linejoin="round"/>
<path d="M347.352 140.718C322.647 140.62 336.722 109.32 336.722 109.32L358.869 108.631L364.381 124.674L359.262 133.828C359.262 133.828 356.014 137.667 356.802 143.573C357.589 149.478 364.381 156.664 364.381 156.664C364.381 156.664 350.797 164.44 334.261 156.172C336.722 150.463 339.38 145.049 339.932 139.395" fill="white"/>
<path d="M347.352 140.718C322.647 140.62 336.722 109.32 336.722 109.32L358.869 108.631L364.381 124.674L359.262 133.828C359.262 133.828 356.014 137.667 356.802 143.573C357.589 149.478 364.381 156.664 364.381 156.664C364.381 156.664 350.797 164.44 334.261 156.172C336.722 150.463 339.38 145.049 339.932 139.395" stroke="#1A1A1A" stroke-width="0.828368" stroke-linecap="round" stroke-linejoin="round"/>
<path d="M339.564 141.845C339.564 141.845 345.876 141.936 347.353 140.718C341.927 140.441 339.86 139.668 339.86 139.668L339.564 141.845ZM329.168 96.893C329.168 97.1145 322.155 114.536 342.677 114.758C349.616 114.979 351.093 113.872 352.569 112.174C354.046 110.476 357.22 114.093 354.858 116.677C357.441 117.415 360.099 116.529 360.025 121.549C359.951 126.569 356.039 127.086 354.489 127.529C356.26 132.844 358.549 135.28 360.394 135.28C364.381 134.468 365.34 134.542 366.743 125.093C368.146 115.644 370.36 110.107 364.381 104.275C358.992 98.96 354.581 97.4836 348.555 99.1076C342.53 100.732 337.657 102.356 330.866 96.0072C329.389 94.826 329.168 96.893 329.168 96.893Z" fill="#9376EF" stroke="#1A1A1A" stroke-width="0.414184" stroke-linecap="round" stroke-linejoin="round"/>
<path d="M363.79 211.611C380.326 205.927 376.783 183.043 376.783 183.043L363.79 211.611Z" fill="#DACAFF"/>
<path d="M363.79 211.611C380.326 205.927 376.783 183.043 376.783 183.043" stroke="#1A1A1A" stroke-width="0.828368" stroke-linecap="round" stroke-linejoin="round"/>
<path d="M309.95 201.498C309.95 201.498 302.42 198.004 295.579 201.941C288.738 205.878 288.985 212.571 291.298 215.278C293.611 217.985 298.975 215.081 300.55 213.752C302.125 212.424 302.666 211.439 303.65 211.341C304.635 211.242 308.227 211.587 308.227 211.587C308.227 211.587 312.34 208.21 313.493 204.057C313.985 202.285 309.95 201.498 309.95 201.498Z" fill="white" stroke="#1A1A1A" stroke-width="0.828368" stroke-linecap="round" stroke-linejoin="round"/>
<path d="M248.759 85.7459H214.063V110.402H248.759V85.7459Z" fill="#9376EF" stroke="#1A1A1A" stroke-width="0.414184" stroke-linecap="round" stroke-linejoin="round"/>
<path d="M363.79 196.084C363.79 196.084 370.446 192.59 376.438 196.134C372.453 207.849 369.172 209.578 368.121 209.717L364.184 207.994C365.492 204.252 365.209 200.258 363.79 196.084Z" fill="white" stroke="#1A1A1A" stroke-width="0.828368" stroke-linecap="round" stroke-linejoin="round"/>
<path d="M363.692 292.594C363.692 292.594 368.22 306.767 383.378 308.539" stroke="#1A1A1A" stroke-width="0.828368" stroke-linecap="round" stroke-linejoin="round"/>
<path d="M102.804 178.964V169.644H93.1885C92.8126 168.282 92.2701 166.971 91.5732 165.742L98.3719 158.944L91.7799 152.352L84.9813 159.15C83.7523 158.454 82.442 157.911 81.0801 157.535V147.923H71.7636V157.535C70.4017 157.911 69.0914 158.454 67.8625 159.15L61.0638 152.352L54.4719 158.944L61.2705 165.742C60.5737 166.971 60.0311 168.282 59.6552 169.644H50.0393V178.964H59.6552C60.0311 180.326 60.5736 181.636 61.2705 182.865L54.4719 189.664L61.0638 196.256L67.8624 189.457C69.0914 190.154 70.4017 190.697 71.7636 191.073V200.684H81.0801V191.073C82.442 190.697 83.7523 190.154 84.9813 189.457L91.7799 196.256L98.3718 189.664L91.5732 182.865C92.2701 181.636 92.8126 180.326 93.1885 178.964H102.804ZM84.4921 178.964C83.6739 180.381 82.4971 181.558 81.0801 182.376C80.3759 182.786 79.6199 183.1 78.8322 183.308C77.2516 183.73 75.588 183.73 74.0074 183.308C73.221 183.1 72.4663 182.786 71.7636 182.376C69.6243 181.137 68.0613 179.103 67.4154 176.716C67.208 175.929 67.1031 175.118 67.1033 174.304C67.1024 173.489 67.2087 172.678 67.4196 171.892C67.6282 171.104 67.9417 170.348 68.3517 169.644C69.1711 168.227 70.3475 167.051 71.7636 166.232C72.4663 165.822 73.221 165.508 74.0074 165.3C75.588 164.878 77.2516 164.878 78.8322 165.3C79.6199 165.508 80.3759 165.822 81.0801 166.232C82.4962 167.051 83.6727 168.227 84.4921 169.644C84.902 170.348 85.2155 171.104 85.4241 171.892C85.635 172.678 85.7414 173.489 85.7404 174.304C85.7407 175.118 85.6358 175.929 85.4283 176.716C85.2164 177.504 84.9016 178.259 84.4921 178.964Z" fill="white" stroke="#1A1A1A" stroke-width="0.828368" stroke-linecap="round" stroke-linejoin="round"/>
<path d="M113.965 283.774C128.701 283.774 140.647 271.828 140.647 257.093C140.647 242.357 128.701 230.411 113.965 230.411C99.2298 230.411 87.2842 242.357 87.2842 257.093C87.2842 271.828 99.2298 283.774 113.965 283.774Z" fill="white" stroke="#1A1A1A" stroke-width="0.828368" stroke-linecap="round" stroke-linejoin="round"/>
<path d="M96.4611 256.473L111.914 270.056C112.24 270.343 112.623 270.558 113.037 270.688C113.452 270.817 113.889 270.859 114.32 270.809C114.751 270.76 115.168 270.62 115.542 270.4C115.916 270.179 116.24 269.883 116.492 269.53L140.952 235.326C141.431 234.655 141.623 233.823 141.488 233.01C141.353 232.198 140.901 231.472 140.231 230.993C139.561 230.514 138.728 230.321 137.916 230.455C137.103 230.59 136.377 231.042 135.898 231.711L113.436 263.122L100.563 251.806C99.9441 251.263 99.1348 250.988 98.3129 251.041C97.4911 251.094 96.7241 251.472 96.1804 252.09C95.6367 252.709 95.3609 253.518 95.4136 254.34C95.4663 255.162 95.8431 255.929 96.4613 256.473L96.4611 256.473Z" fill="#9376EF"/>
<path d="M194.459 406.027C190.227 402.081 185.562 397.122 186.554 391.421C187.302 387.119 191.051 384.11 193.699 380.638C197.361 375.838 199.071 369.446 197.688 363.57C196.305 357.694 191.632 352.562 185.751 351.197C179.871 349.831 173.114 352.662 170.44 358.075C168.344 362.316 168.82 367.303 168.387 372.015C167.955 376.726 165.937 382.014 161.42 383.422C157.648 384.598 153.653 382.579 150.436 380.285C147.218 377.99 144.025 375.253 140.105 374.75C135.506 374.16 130.905 377.016 128.576 381.026C126.246 385.036 125.922 389.962 126.739 394.527C127.556 399.091 129.426 403.39 131.28 407.64L119.085 421.611L115.083 468.195H156.984C161.304 466.245 165.338 463.682 169.342 461.128C172.65 459.018 175.958 456.908 179.266 454.798C181.505 453.37 183.988 451.546 184.137 448.894C184.439 443.518 175.281 441.439 175.432 436.056C175.493 433.862 177.265 432.018 179.285 431.16C181.305 430.301 183.555 430.218 185.746 430.078C189.102 429.863 192.519 429.467 195.57 428.05C198.621 426.633 201.287 424.031 202.011 420.746C203.257 415.096 198.691 409.972 194.459 406.027Z" fill="#9376EF" stroke="#1A1A1A" stroke-width="0.414184" stroke-linecap="round" stroke-linejoin="round"/>
<path d="M176.723 379.98C176.723 379.98 172.292 405.74 158.519 418.413C144.746 431.086 142.377 448.061 142.97 455.562C143.562 463.063 136.653 468.195 136.653 468.195M160.735 444.508C160.735 444.508 148.374 440.257 143.303 447.712M144.746 411.718C144.746 411.718 150.592 414.556 150.235 428.446M178.105 405.623C178.105 405.623 173.933 411.711 163.485 412.812" stroke="white" stroke-width="1.24274" stroke-linecap="round" stroke-linejoin="round"/>
<path d="M133.76 457.456C138.108 448.923 133.736 442.15 126.513 437.444C119.379 430.811 124.757 426.457 131.102 422.424C142.505 412.466 131.157 394.327 117.202 400.286C112.188 402.713 106.365 409.675 100.516 405.605C97.1556 402.944 98.2651 397.752 98.6242 393.48C99.741 382.767 91.6647 367.498 79.4479 369.457C74.0065 370.82 70.9056 376.687 65.8434 379.103C50.8857 385.599 39.283 364.544 24.7019 365.914C-3.56614 372.253 5.40188 421.681 45.8889 415.578C49.1237 415.844 52.5077 417.068 54.3153 419.763C60.1923 428.983 45.1554 439.9 50.7748 449.162C55.6736 456.202 65.3995 452.569 72.5139 452.422C82.4964 452.115 86.4792 460.831 80.9589 468.195H119.736C125.55 466.22 130.796 463.049 133.76 457.456Z" fill="white" stroke="#1A1A1A" stroke-width="0.828368" stroke-linecap="round" stroke-linejoin="round"/>
<path d="M94.1647 468.195L97.2736 462.273C110.893 415.196 39.5371 390.621 39.5371 390.621M103.787 425.263C103.787 425.263 105.423 435.767 98.0421 441.914L103.787 425.263ZM73.6855 390.621C73.8829 391.114 79.675 400.827 74.9531 409.886L73.6855 390.621ZM74.3764 424.277C74.3764 424.277 86.8527 422.833 91.3723 426.861L74.3764 424.277ZM42.6953 397.924C42.6953 397.924 49.4947 400.103 55.619 397.731L42.6953 397.924Z" fill="white"/>
<path d="M94.1647 468.195L97.2736 462.273C110.893 415.196 39.5371 390.621 39.5371 390.621M103.787 425.263C103.787 425.263 105.423 435.767 98.0421 441.914M73.6855 390.621C73.8829 391.114 79.675 400.827 74.9531 409.886M74.3764 424.277C74.3764 424.277 86.8527 422.833 91.3723 426.861M42.6953 397.924C42.6953 397.924 49.4947 400.103 55.619 397.731" stroke="#1A1A1A" stroke-width="0.828368" stroke-linecap="round" stroke-linejoin="round"/>
<path d="M478.119 349.747H428.148V354.552H478.119V349.747Z" fill="#9376EF" stroke="#1A1A1A" stroke-width="0.414184" stroke-linecap="round" stroke-linejoin="round"/>
<path d="M478.119 354.552H428.148V399.482H478.119V354.552Z" fill="white" stroke="#1A1A1A" stroke-width="0.828368" stroke-linecap="round" stroke-linejoin="round"/>
<path d="M478.119 399.482H428.148V468.31H478.119V399.482Z" fill="white" stroke="#1A1A1A" stroke-width="0.828368" stroke-linecap="round" stroke-linejoin="round"/>
<path d="M478.119 341.315H428.148V349.747H478.119V341.315Z" fill="white" stroke="#1A1A1A" stroke-width="0.828368" stroke-linecap="round" stroke-linejoin="round"/>
<path d="M437.473 372.063C438.26 372.063 438.897 371.426 438.897 370.639C438.897 369.853 438.26 369.216 437.473 369.216C436.687 369.216 436.05 369.853 436.05 370.639C436.05 371.426 436.687 372.063 437.473 372.063Z" fill="white" stroke="#1A1A1A" stroke-width="0.828368" stroke-linecap="round" stroke-linejoin="round"/>
<path d="M448.418 372.063C449.204 372.063 449.842 371.426 449.842 370.639C449.842 369.853 449.204 369.216 448.418 369.216C447.632 369.216 446.994 369.853 446.994 370.639C446.994 371.426 447.632 372.063 448.418 372.063Z" fill="white" stroke="#1A1A1A" stroke-width="0.828368" stroke-linecap="round" stroke-linejoin="round"/>
<path d="M459.362 372.063C460.149 372.063 460.786 371.426 460.786 370.639C460.786 369.853 460.149 369.216 459.362 369.216C458.576 369.216 457.939 369.853 457.939 370.639C457.939 371.426 458.576 372.063 459.362 372.063Z" fill="white" stroke="#1A1A1A" stroke-width="0.828368" stroke-linecap="round" stroke-linejoin="round"/>
<path d="M470.307 372.063C471.093 372.063 471.73 371.426 471.73 370.639C471.73 369.853 471.093 369.216 470.307 369.216C469.521 369.216 468.883 369.853 468.883 370.639C468.883 371.426 469.521 372.063 470.307 372.063Z" fill="white" stroke="#1A1A1A" stroke-width="0.828368" stroke-linecap="round" stroke-linejoin="round"/>
<path d="M459.362 389.722C460.149 389.722 460.786 389.084 460.786 388.298C460.786 387.512 460.149 386.874 459.362 386.874C458.576 386.874 457.939 387.512 457.939 388.298C457.939 389.084 458.576 389.722 459.362 389.722Z" fill="white" stroke="#1A1A1A" stroke-width="0.828368" stroke-linecap="round" stroke-linejoin="round"/>
<path d="M470.307 389.722C471.093 389.722 471.73 389.084 471.73 388.298C471.73 387.512 471.093 386.874 470.307 386.874C469.521 386.874 468.883 387.512 468.883 388.298C468.883 389.084 469.521 389.722 470.307 389.722Z" fill="white" stroke="#1A1A1A" stroke-width="0.828368" stroke-linecap="round" stroke-linejoin="round"/>
<path d="M470.307 406.694C471.093 406.694 471.73 406.056 471.73 405.27C471.73 404.484 471.093 403.847 470.307 403.847C469.521 403.847 468.883 404.484 468.883 405.27C468.883 406.056 469.521 406.694 470.307 406.694Z" fill="white" stroke="#1A1A1A" stroke-width="0.828368" stroke-linecap="round" stroke-linejoin="round"/>
<path d="M460.786 404.096H436.05V406.445H460.786V404.096Z" fill="#9376EF" stroke="#1A1A1A" stroke-width="0.414184" stroke-linecap="round" stroke-linejoin="round"/>
<path d="M470.307 420.717C471.093 420.717 471.73 420.079 471.73 419.293C471.73 418.507 471.093 417.869 470.307 417.869C469.521 417.869 468.883 418.507 468.883 419.293C468.883 420.079 469.521 420.717 470.307 420.717Z" fill="white" stroke="#1A1A1A" stroke-width="0.828368" stroke-linecap="round" stroke-linejoin="round"/>
<path d="M460.786 418.119H436.05V420.468H460.786V418.119Z" fill="#9376EF" stroke="#1A1A1A" stroke-width="0.414184" stroke-linecap="round" stroke-linejoin="round"/>
<path d="M470.307 434.74C471.093 434.74 471.73 434.103 471.73 433.316C471.73 432.53 471.093 431.893 470.307 431.893C469.521 431.893 468.883 432.53 468.883 433.316C468.883 434.103 469.521 434.74 470.307 434.74Z" fill="white" stroke="#1A1A1A" stroke-width="0.828368" stroke-linecap="round" stroke-linejoin="round"/>
<path d="M460.786 432.142H436.05V434.491H460.786V432.142Z" fill="#9376EF" stroke="#1A1A1A" stroke-width="0.414184" stroke-linecap="round" stroke-linejoin="round"/>
<path d="M470.307 448.763C471.093 448.763 471.73 448.125 471.73 447.339C471.73 446.553 471.093 445.916 470.307 445.916C469.521 445.916 468.883 446.553 468.883 447.339C468.883 448.125 469.521 448.763 470.307 448.763Z" fill="white" stroke="#1A1A1A" stroke-width="0.828368" stroke-linecap="round" stroke-linejoin="round"/>
<path d="M460.786 446.165H436.05V448.514H460.786V446.165Z" fill="#9376EF" stroke="#1A1A1A" stroke-width="0.414184" stroke-linecap="round" stroke-linejoin="round"/>
<path d="M532.895 349.747H482.924V354.552H532.895V349.747Z" fill="#9376EF" stroke="#1A1A1A" stroke-width="0.414184" stroke-linecap="round" stroke-linejoin="round"/>
<path d="M532.894 399.482H482.924V468.31H532.894V399.482Z" fill="white" stroke="#1A1A1A" stroke-width="0.828368" stroke-linecap="round" stroke-linejoin="round"/>
<path d="M532.894 354.552H482.924V399.482H532.894V354.552Z" fill="white" stroke="#1A1A1A" stroke-width="0.828368" stroke-linecap="round" stroke-linejoin="round"/>
<path d="M532.895 341.315H482.924V349.747H532.895V341.315Z" fill="white" stroke="#1A1A1A" stroke-width="0.828368" stroke-linecap="round" stroke-linejoin="round"/>
<path d="M492.249 372.063C493.035 372.063 493.673 371.426 493.673 370.639C493.673 369.853 493.035 369.216 492.249 369.216C491.463 369.216 490.825 369.853 490.825 370.639C490.825 371.426 491.463 372.063 492.249 372.063Z" fill="white" stroke="#1A1A1A" stroke-width="0.828368" stroke-linecap="round" stroke-linejoin="round"/>
<path d="M503.193 372.063C503.98 372.063 504.617 371.426 504.617 370.639C504.617 369.853 503.98 369.216 503.193 369.216C502.407 369.216 501.77 369.853 501.77 370.639C501.77 371.426 502.407 372.063 503.193 372.063Z" fill="white" stroke="#1A1A1A" stroke-width="0.828368" stroke-linecap="round" stroke-linejoin="round"/>
<path d="M514.138 372.063C514.924 372.063 515.562 371.426 515.562 370.639C515.562 369.853 514.924 369.216 514.138 369.216C513.352 369.216 512.714 369.853 512.714 370.639C512.714 371.426 513.352 372.063 514.138 372.063Z" fill="white" stroke="#1A1A1A" stroke-width="0.828368" stroke-linecap="round" stroke-linejoin="round"/>
<path d="M525.082 372.063C525.869 372.063 526.506 371.426 526.506 370.639C526.506 369.853 525.869 369.216 525.082 369.216C524.296 369.216 523.659 369.853 523.659 370.639C523.659 371.426 524.296 372.063 525.082 372.063Z" fill="white" stroke="#1A1A1A" stroke-width="0.828368" stroke-linecap="round" stroke-linejoin="round"/>
<path d="M514.138 389.722C514.924 389.722 515.562 389.084 515.562 388.298C515.562 387.512 514.924 386.874 514.138 386.874C513.352 386.874 512.714 387.512 512.714 388.298C512.714 389.084 513.352 389.722 514.138 389.722Z" fill="white" stroke="#1A1A1A" stroke-width="0.828368" stroke-linecap="round" stroke-linejoin="round"/>
<path d="M525.082 389.722C525.869 389.722 526.506 389.084 526.506 388.298C526.506 387.512 525.869 386.874 525.082 386.874C524.296 386.874 523.659 387.512 523.659 388.298C523.659 389.084 524.296 389.722 525.082 389.722Z" fill="white" stroke="#1A1A1A" stroke-width="0.828368" stroke-linecap="round" stroke-linejoin="round"/>
<path d="M525.082 406.694C525.869 406.694 526.506 406.056 526.506 405.27C526.506 404.484 525.869 403.847 525.082 403.847C524.296 403.847 523.659 404.484 523.659 405.27C523.659 406.056 524.296 406.694 525.082 406.694Z" fill="white" stroke="#1A1A1A" stroke-width="0.828368" stroke-linecap="round" stroke-linejoin="round"/>
<path d="M515.562 404.096H490.825V406.445H515.562V404.096Z" fill="#9376EF" stroke="#1A1A1A" stroke-width="0.414184" stroke-linecap="round" stroke-linejoin="round"/>
<path d="M525.082 420.717C525.869 420.717 526.506 420.079 526.506 419.293C526.506 418.507 525.869 417.869 525.082 417.869C524.296 417.869 523.659 418.507 523.659 419.293C523.659 420.079 524.296 420.717 525.082 420.717Z" fill="white" stroke="#1A1A1A" stroke-width="0.828368" stroke-linecap="round" stroke-linejoin="round"/>
<path d="M515.562 418.119H490.825V420.468H515.562V418.119Z" fill="#9376EF" stroke="#1A1A1A" stroke-width="0.414184" stroke-linecap="round" stroke-linejoin="round"/>
<path d="M525.082 434.74C525.869 434.74 526.506 434.103 526.506 433.316C526.506 432.53 525.869 431.893 525.082 431.893C524.296 431.893 523.659 432.53 523.659 433.316C523.659 434.103 524.296 434.74 525.082 434.74Z" fill="white" stroke="#1A1A1A" stroke-width="0.828368" stroke-linecap="round" stroke-linejoin="round"/>
<path d="M515.562 432.142H490.825V434.491H515.562V432.142Z" fill="#9376EF" stroke="#1A1A1A" stroke-width="0.414184" stroke-linecap="round" stroke-linejoin="round"/>
<path d="M525.082 448.763C525.869 448.763 526.506 448.125 526.506 447.339C526.506 446.553 525.869 445.916 525.082 445.916C524.296 445.916 523.659 446.553 523.659 447.339C523.659 448.125 524.296 448.763 525.082 448.763Z" fill="white" stroke="#1A1A1A" stroke-width="0.828368" stroke-linecap="round" stroke-linejoin="round"/>
<path d="M515.562 446.165H490.825V448.514H515.562V446.165Z" fill="#9376EF" stroke="#1A1A1A" stroke-width="0.414184" stroke-linecap="round" stroke-linejoin="round"/>
<path d="M532.895 468.31H543.72V352.15L532.895 341.315V468.31Z" fill="white" stroke="#1A1A1A" stroke-width="0.828368" stroke-linecap="round" stroke-linejoin="round"/>
<path d="M496.719 231.149C513.545 231.149 527.185 217.51 527.185 200.684C527.185 183.859 513.545 170.219 496.719 170.219C479.894 170.219 466.254 183.859 466.254 200.684C466.254 217.51 479.894 231.149 496.719 231.149Z" fill="#9376EF" stroke="#1A1A1A" stroke-width="0.414184" stroke-linecap="round" stroke-linejoin="round"/>
<path d="M499.554 195.279C500.623 194.656 501.458 193.698 501.928 192.553C502.398 191.409 502.478 190.141 502.155 188.946C501.833 187.751 501.125 186.696 500.143 185.943C499.16 185.191 497.957 184.783 496.719 184.783C495.482 184.783 494.278 185.191 493.296 185.943C492.313 186.696 491.606 187.751 491.283 188.946C490.96 190.141 491.04 191.409 491.511 192.553C491.981 193.698 492.815 194.656 493.885 195.279C491.429 195.909 489.254 197.338 487.7 199.341C486.146 201.344 485.302 203.806 485.302 206.341V211.856H508.136V206.341C508.136 203.806 507.293 201.344 505.739 199.341C504.185 197.338 502.009 195.909 499.554 195.279Z" fill="white" stroke="#1A1A1A" stroke-width="0.828368" stroke-linecap="round" stroke-linejoin="round"/>
</g>
</g>
<defs>
<clipPath id="clip0_130_15366">
<rect width="552" height="552" fill="white"/>
</clipPath>
<clipPath id="clip1_130_15366">
<rect width="552" height="552" fill="white"/>
</clipPath>
</defs>
</svg>
