<svg width="40" height="40" viewBox="0 0 40 40" fill="none" xmlns="http://www.w3.org/2000/svg">
  <path
    d="M37.5478 16.2914C37.0877 14.0465 36.2174 11.9441 34.9551 10.0321L36.1885 8.0114L31.8367 3.6596L29.816 4.89296C27.9033 3.63068 25.8016 2.76045 23.5567 2.30026L23.0007 0H16.8474L16.2914 2.30026C14.0465 2.76045 11.9441 3.63068 10.0321 4.89296L8.0114 3.6596L3.6596 8.0114L4.89296 10.0321C3.63068 11.9448 2.76045 14.0465 2.30026 16.2914L0 16.8474V23.0007L2.30026 23.5567C2.76045 25.8016 3.63068 27.904 4.89296 29.816L3.6596 31.8367L8.0114 36.1885L10.0321 34.9551C11.9448 36.2174 14.0465 37.0877 16.2914 37.5478L16.8474 39.8481H23.0007L23.5567 37.5478C25.8016 37.0877 27.904 36.2174 29.816 34.9551L31.8367 36.1885L36.1885 31.8367L34.9551 29.816C36.2174 27.9033 37.0877 25.8016 37.5478 23.5567L39.8481 23.0007V16.8474L37.5478 16.2914ZM38.5627 21.9891L36.4366 22.5033L36.362 22.9159C35.9359 25.2721 35.0278 27.4643 33.6626 29.4336L33.4248 29.7768L34.5637 31.6439L31.6433 34.5644L29.7762 33.4255L29.433 33.6633C27.4643 35.0284 25.2714 35.9366 22.9152 36.3627L22.5026 36.4372L21.9891 38.5627H17.859L17.3449 36.4366L16.9322 36.362C14.5761 35.9359 12.3838 35.0278 10.4145 33.6626L10.0713 33.4248L8.20421 34.5637L5.28373 31.6433L6.42261 29.7762L6.18481 29.433C4.81969 27.4643 3.91154 25.2714 3.48542 22.9152L3.41087 22.5026L1.28542 21.9891V17.859L3.41151 17.3449L3.48607 16.9322C3.91218 14.5761 4.82033 12.3838 6.18545 10.4145L6.42326 10.0713L5.28437 8.20421L8.20485 5.28373L10.0719 6.42261L10.4151 6.18481C12.3838 4.81969 14.5767 3.91154 16.9329 3.48542L17.3455 3.41087L17.859 1.28542H21.9891L22.5033 3.41151L22.9159 3.48607C25.2721 3.91218 27.4643 4.82033 29.4336 6.18545L29.7768 6.42326L31.6439 5.28437L34.5644 8.20485L33.4255 10.0719L33.6633 10.4151C35.0284 12.3838 35.9366 14.5767 36.3627 16.9329L36.4372 17.3455L38.5633 17.8597V21.9891H38.5627Z"
    fill="#3CCF91" />
  <path d="M20.5667 2.57089H19.2812V3.85632H20.5667V2.57089Z" fill="#3CCF91" />
  <path d="M8.10765 7.19905L7.19873 8.10797L8.10765 9.01689L9.01658 8.10797L8.10765 7.19905Z" fill="#3CCF91" />
  <path d="M3.85622 19.2814H2.5708V20.5668H3.85622V19.2814Z" fill="#3CCF91" />
  <path d="M8.10765 30.8313L7.19873 31.7403L8.10765 32.6492L9.01658 31.7403L8.10765 30.8313Z" fill="#3CCF91" />
  <path d="M20.5667 35.9919H19.2812V37.2773H20.5667V35.9919Z" fill="#3CCF91" />
  <path d="M31.74 30.8313L30.8311 31.7402L31.74 32.6491L32.6489 31.7402L31.74 30.8313Z" fill="#3CCF91" />
  <path d="M37.2771 19.2814H35.9917V20.5668H37.2771V19.2814Z" fill="#3CCF91" />
  <path d="M31.74 7.19896L30.8311 8.10788L31.74 9.0168L32.6489 8.10788L31.74 7.19896Z" fill="#3CCF91" />
  <path
    d="M19.924 5.14169C11.7725 5.14169 5.1416 11.7725 5.1416 19.9241C5.1416 28.0756 11.7725 34.7064 19.924 34.7064C28.0755 34.7064 34.7063 28.0756 34.7063 19.9241C34.7063 11.7725 28.0755 5.14169 19.924 5.14169ZM19.924 33.421C12.482 33.421 6.42702 27.366 6.42702 19.9241C6.42702 12.4821 12.482 6.42712 19.924 6.42712C27.3659 6.42712 33.4209 12.4821 33.4209 19.9241C33.4209 27.366 27.3659 33.421 19.924 33.421Z"
    fill="#3CCF91" />
  <path
    d="M25.7082 18.1142V14.7824C25.7082 11.5926 23.1136 8.99799 19.9238 8.99799C16.7341 8.99799 14.1394 11.5926 14.1394 14.7824V18.1142C13.3932 18.3803 12.854 19.0873 12.854 19.9241V23.7803C12.854 27.6784 16.0258 30.8502 19.9238 30.8502C23.8219 30.8502 26.9937 27.6784 26.9937 23.7803V19.9241C26.9937 19.0873 26.4544 18.3803 25.7082 18.1142ZM19.9238 10.2834C22.4041 10.2834 24.4228 12.3022 24.4228 14.7824V17.9959H23.1374V14.7824C23.1374 13.0104 21.6958 11.5688 19.9238 11.5688C18.1519 11.5688 16.7103 13.0104 16.7103 14.7824V17.9959H15.4248V14.7824C15.4248 12.3022 17.4436 10.2834 19.9238 10.2834ZM21.852 17.9959H17.9957V14.7824C17.9957 13.7193 18.8608 12.8543 19.9238 12.8543C20.9869 12.8543 21.852 13.7193 21.852 14.7824V17.9959ZM25.7082 23.7803C25.7082 26.9701 23.1136 29.5648 19.9238 29.5648C16.7341 29.5648 14.1394 26.9701 14.1394 23.7803V19.9241C14.1394 19.5693 14.4274 19.2814 14.7821 19.2814H25.0655C25.4203 19.2814 25.7082 19.5693 25.7082 19.9241V23.7803Z"
    fill="#3CCF91" />
  <path
    d="M19.9239 20.5668C18.5061 20.5668 17.353 21.7198 17.353 23.1376C17.353 24.3324 18.1751 25.3299 19.2812 25.6172V28.2793H20.5666V25.6172C21.6727 25.3299 22.4947 24.3324 22.4947 23.1376C22.4947 21.7198 21.3417 20.5668 19.9239 20.5668ZM19.9239 24.423C19.215 24.423 18.6385 23.8465 18.6385 23.1376C18.6385 22.4287 19.215 21.8522 19.9239 21.8522C20.6328 21.8522 21.2093 22.4287 21.2093 23.1376C21.2093 23.8465 20.6328 24.423 19.9239 24.423Z"
    fill="#3CCF91" />
</svg>